<svg width="60" height="60" viewBox="0 0 60 60" fill="none" xmlns="http://www.w3.org/2000/svg">
<rect x="2" y="2" width="56" height="56" fill="#FDFDF5" stroke="#1D1D1D" stroke-width="4"/>
<path d="M50.5 45.5V50.5H45.5V45.5H50.5Z" fill="#1D1D1D" stroke="#1D1D1D"/>
<path d="M32.5 27.5V32.5H27.5V27.5H32.5Z" fill="#1D1D1D" stroke="#1D1D1D"/>
<path d="M26.5 33.5V38.5H21.5V33.5H26.5Z" fill="#1D1D1D" stroke="#1D1D1D"/>
<path d="M20.5 39.5V44.5H15.5V39.5H20.5Z" fill="#1D1D1D" stroke="#1D1D1D"/>
<path d="M14.5 45.5V50.5H9.5V45.5H14.5Z" fill="#1D1D1D" stroke="#1D1D1D"/>
<path d="M38.5 21.5V26.5H33.5V21.5H38.5Z" fill="#1D1D1D" stroke="#1D1D1D"/>
<path d="M44.5 15.5V20.5H39.5V15.5H44.5Z" fill="#1D1D1D" stroke="#1D1D1D"/>
<path d="M50.5 9.5V14.5H45.5V9.5H50.5Z" fill="#1D1D1D" stroke="#1D1D1D"/>
<path d="M38.5 33.5V38.5H33.5V33.5H38.5Z" fill="#1D1D1D" stroke="#1D1D1D"/>
<path d="M44.5 39.5V44.5H39.5V39.5H44.5Z" fill="#1D1D1D" stroke="#1D1D1D"/>
<path d="M26.5 21.5V26.5H21.5V21.5H26.5Z" fill="#1D1D1D" stroke="#1D1D1D"/>
<path d="M14.5 9.5V14.5H9.5V9.5H14.5Z" fill="#1D1D1D" stroke="#1D1D1D"/>
<path d="M20.5 15.5V20.5H15.5V15.5H20.5Z" fill="#1D1D1D" stroke="#1D1D1D"/>
</svg>
