<svg width="103" height="103" viewBox="0 0 103 103" fill="none" xmlns="http://www.w3.org/2000/svg">
<path d="M90.2409 42.3787L85.627 43.162L86.4102 47.7759L91.0242 46.9927L95.648 46.2078L94.8648 41.5938L90.2409 42.3787Z" fill="#EAF3B2"/>
<path d="M77.1616 49.3456L77.9465 53.9694L82.5704 53.1845L87.1943 52.3996L86.4093 47.7757L81.7855 48.5606L77.1616 49.3456Z" fill="#EAF3B2"/>
<path d="M81.0025 43.9475L85.6264 43.1626L84.8415 38.5387L80.2176 39.3236L75.5938 40.1086L76.3787 44.7324L81.0025 43.9475Z" fill="#EAF3B2"/>
<path d="M68.7095 55.537L69.4944 60.1608L74.1084 59.3776L78.7322 58.5926L77.9473 53.9688L73.3235 54.7537L68.7095 55.537Z" fill="#EAF3B2"/>
<path d="M70.9702 40.892L75.5941 40.1071L74.8091 35.4832L70.1853 36.2681L65.5713 37.0514L66.3562 41.6752L70.9702 40.892Z" fill="#EAF3B2"/>
<path d="M69.4945 60.1622L64.8706 60.9471L65.6555 65.5709L70.2794 64.786L69.4945 60.1622Z" fill="#EAF3B2"/>
<path d="M64.7865 32.4281L60.1626 33.213L60.9475 37.8368L65.5714 37.0519L64.7865 32.4281Z" fill="#EAF3B2"/>
<path d="M61.8145 70.9694L62.5994 75.5932L67.2233 74.8083L66.4384 70.1845L65.6551 65.5705L61.0312 66.3554L61.8145 70.9694Z" fill="#EAF3B2"/>
<path d="M57.8931 47.8699L58.6763 52.4839L63.3002 51.6989L67.924 50.914L67.1408 46.3L62.5169 47.0849L57.8931 47.8699Z" fill="#EAF3B2"/>
<path d="M55.5384 33.9988L60.1622 33.2139L59.379 28.5999L58.5941 23.9761L53.9702 24.761L54.7551 29.3848L55.5384 33.9988Z" fill="#EAF3B2"/>
<path d="M58.7605 81.0012L59.5454 85.625L64.1693 84.8401L63.3844 80.2162L62.5994 75.5924L57.9756 76.3773L58.7605 81.0012Z" fill="#EAF3B2"/>
<path d="M57.1082 43.2465L52.4844 44.0315L53.2693 48.6553L57.8931 47.8704L57.1082 43.2465Z" fill="#EAF3B2"/>
<path d="M49.3462 25.5451L53.9701 24.7601L53.1851 20.1363L52.4002 15.5124L47.7764 16.2974L48.5613 20.9212L49.3462 25.5451Z" fill="#EAF3B2"/>
<path d="M55.7149 91.023L56.4998 95.6469L61.1138 94.8636L60.3289 90.2398L59.5456 85.6258L54.9316 86.4091L55.7149 91.023Z" fill="#EAF3B2"/>
<path d="M50.9148 34.7829L46.3008 35.5661L47.0857 40.19L47.8706 44.8138L52.4846 44.0306L51.6997 39.4067L50.9148 34.7829Z" fill="#EAF3B2"/>
<path d="M46.9936 11.6842L46.2087 7.06032L41.5947 7.84357L42.3797 12.4674L43.1629 17.0814L47.7769 16.2982L46.9936 11.6842Z" fill="#EAF3B2"/>
<path d="M53.3616 77.1605L48.7378 77.9454L49.5227 82.5693L50.3076 87.1931L54.9315 86.4082L54.1466 81.7844L53.3616 77.1605Z" fill="#EAF3B2"/>
<path d="M43.9478 21.7044L43.1629 17.0806L38.5391 17.8655L39.324 22.4893L40.1089 27.1132L44.7328 26.3283L43.9478 21.7044Z" fill="#EAF3B2"/>
<path d="M47.1698 68.7085L42.5459 69.4934L43.3291 74.1074L44.1141 78.7313L48.7379 77.9464L47.953 73.3225L47.1698 68.7085Z" fill="#EAF3B2"/>
<path d="M40.8936 31.7379L40.1087 27.1141L35.4849 27.899L36.2698 32.5229L37.053 37.1369L41.6769 36.3519L40.8936 31.7379Z" fill="#EAF3B2"/>
<path d="M41.7611 64.8701L37.1372 65.655L37.9221 70.2789L42.546 69.494L41.7611 64.8701Z" fill="#EAF3B2"/>
<path d="M37.053 37.136L32.4292 37.9209L33.2141 42.5448L37.838 41.7599L37.053 37.136Z" fill="#EAF3B2"/>
<path d="M31.7381 61.813L27.1143 62.5979L27.8992 67.2218L32.523 66.4368L37.137 65.6536L36.3521 61.0297L31.7381 61.813Z" fill="#EAF3B2"/>
<path d="M33.9993 47.168L33.2144 42.5442L28.6004 43.3274L23.9766 44.1124L24.7615 48.7362L29.3853 47.9513L33.9993 47.168Z" fill="#EAF3B2"/>
<path d="M21.7054 58.7596L17.0815 59.5445L17.8665 64.1683L22.4903 63.3834L27.1142 62.5985L26.3292 57.9746L21.7054 58.7596Z" fill="#EAF3B2"/>
<path d="M25.5463 53.3615L24.7614 48.7376L20.1375 49.5226L15.5137 50.3075L16.2986 54.9313L20.9224 54.1464L25.5463 53.3615Z" fill="#EAF3B2"/>
<path d="M11.6849 55.714L7.06104 56.4989L7.84429 61.1129L12.4681 60.328L17.0821 59.5447L16.2989 54.9308L11.6849 55.714Z" fill="#EAF3B2"/>
</svg>
