<svg width="151" height="120" viewBox="0 0 151 120" fill="none" xmlns="http://www.w3.org/2000/svg">
<path d="M50.399 87.0568L45.9717 87.8828L47.7156 93.228L52.1429 92.4019L50.399 87.0568Z" fill="#EAF3B2"/>
<path d="M120.253 73.0331L116.425 60.0816L111.572 61.0831L113.486 67.5588L55.2515 79.5759L53.3377 73.1001L48.4849 74.1016L52.3124 87.053L120.253 73.0331Z" fill="#EAF3B2"/>
<path d="M102.471 0.654877L33.856 15.7188L35.7902 22.6741L104.405 7.61027L102.471 0.654877Z" fill="#EAF3B2"/>
<path d="M95.0127 12.9947L46.1982 23.4062L48.1241 30.1376L96.9386 19.726L95.0127 12.9947Z" fill="#EAF3B2"/>
<path d="M33.5601 22.6729L30.123 23.4453L45.048 78.3653L48.4851 77.5929L33.5601 22.6729Z" fill="#EAF3B2"/>
<path d="M107.842 4.39162L104.405 5.16406L119.33 60.0841L122.767 59.3117L107.842 4.39162Z" fill="#EAF3B2"/>
<path d="M105.985 57.565L57.1704 67.9766L59.0963 74.7079L107.911 64.2963L105.985 57.565Z" fill="#EAF3B2"/>
<path d="M100.476 16.7332L96.939 17.5078L108.106 57.5693L111.644 56.7946L100.476 16.7332Z" fill="#EAF3B2"/>
<path d="M46.6651 93.2208L42.2378 94.0469L43.9817 99.392L48.409 98.566L46.6651 93.2208Z" fill="#EAF3B2"/>
<path d="M42.4495 99.3918L38.5049 100.18L43.1697 115.467L47.1143 114.679L42.4495 99.3918Z" fill="#EAF3B2"/>
<path d="M124.681 68.7677L120.253 69.5938L121.997 74.9389L126.425 74.1129L124.681 68.7677Z" fill="#EAF3B2"/>
<path d="M130.851 72.5021L126.424 73.3281L128.168 78.6733L132.595 77.8472L130.851 72.5021Z" fill="#EAF3B2"/>
<path d="M136.54 76.2356L132.596 77.0234L137.26 92.311L141.205 91.5232L136.54 76.2356Z" fill="#EAF3B2"/>
<path d="M135.532 92.312L47.1143 112.102L49.0534 119.208L137.472 99.4181L135.532 92.312Z" fill="#EAF3B2"/>
<path d="M61.5225 89.5646L57.0952 90.3906L58.8391 95.7358L63.2664 94.9097L61.5225 89.5646Z" fill="#EAF3B2"/>
<path d="M71.4254 87.1271L66.998 87.9531L68.7419 93.2983L73.1693 92.4722L71.4254 87.1271Z" fill="#EAF3B2"/>
<path d="M81.3301 84.6896L76.9028 85.5156L78.6467 90.8608L83.074 90.0347L81.3301 84.6896Z" fill="#EAF3B2"/>
<path d="M68.9117 98.2521L64.4844 99.0781L66.2283 104.423L70.6556 103.597L68.9117 98.2521Z" fill="#EAF3B2"/>
<path d="M59.0074 100.69L54.5801 101.516L56.324 106.861L60.7513 106.035L59.0074 100.69Z" fill="#EAF3B2"/>
<path d="M88.7208 93.3771L84.2935 94.2031L86.0374 99.5483L90.4647 98.7222L88.7208 93.3771Z" fill="#EAF3B2"/>
<path d="M78.8165 95.8146L74.3892 96.6406L76.1331 101.986L80.5604 101.16L78.8165 95.8146Z" fill="#EAF3B2"/>
<path d="M91.2344 82.2521L86.8071 83.0781L88.551 88.4233L92.9783 87.5972L91.2344 82.2521Z" fill="#EAF3B2"/>
<path d="M101.139 79.8146L96.7119 80.6406L98.4558 85.9858L102.883 85.1597L101.139 79.8146Z" fill="#EAF3B2"/>
<path d="M111.044 77.3771L106.616 78.2031L108.36 83.5483L112.787 82.7222L111.044 77.3771Z" fill="#EAF3B2"/>
<path d="M98.6241 90.9396L94.1968 91.7656L95.9407 97.1108L100.368 96.2847L98.6241 90.9396Z" fill="#EAF3B2"/>
<path d="M118.433 86.0568L114.006 86.8828L115.75 92.228L120.177 91.4019L118.433 86.0568Z" fill="#EAF3B2"/>
<path d="M108.528 88.5021L104.101 89.3281L105.845 94.6733L110.272 93.8472L108.528 88.5021Z" fill="#EAF3B2"/>
<path d="M46.0036 30.1394L42.4663 30.9141L53.6337 70.9755L57.1711 70.2009L46.0036 30.1394Z" fill="#EAF3B2"/>
</svg>
