<svg width="96" height="86" viewBox="0 0 96 86" fill="none" xmlns="http://www.w3.org/2000/svg">
<path d="M4.77778 33.4453H0V38.2231H4.77778V33.4453Z" fill="#7280E5"/>
<path d="M9.55537 28.6641H4.77759V33.4418H9.55537V28.6641Z" fill="#7280E5"/>
<path d="M14.333 23.8906H9.55518V28.6684H14.333V23.8906Z" fill="#7280E5"/>
<path d="M19.111 19.1094H14.3333V23.8872H19.111V19.1094Z" fill="#7280E5"/>
<path d="M23.8886 14.3359H19.1108V19.1137H23.8886V14.3359Z" fill="#7280E5"/>
<path d="M71.6662 14.329V19.1068H76.444V4.77344H71.6662V9.55122H23.8884V14.329H71.6662Z" fill="#7280E5"/>
<path d="M57.3328 52.5547H38.2217V57.3325H57.3328V52.5547Z" fill="#7280E5"/>
<path d="M95.5554 33.4453H90.7776V38.2231H95.5554V33.4453Z" fill="#7280E5"/>
<path d="M90.7778 28.6641H86V33.4418H90.7778V28.6641Z" fill="#7280E5"/>
<path d="M4.77759 38.2188V42.9965H9.55537V81.2188H14.3331V42.9965H81.222V81.2188H85.9998V42.9965H90.7776V38.2188H4.77759Z" fill="#7280E5"/>
<path d="M62.111 81.2248V57.3359H57.3332V81.2248H38.2221V57.3359H33.4444V81.2248H14.3333V86.0026H81.2221V81.2248H62.111Z" fill="#7280E5"/>
<path d="M47.7778 66.8906H43V71.6684H47.7778V66.8906Z" fill="#7280E5"/>
<path d="M81.2221 0H76.4443V4.77778H81.2221V0Z" fill="#7280E5"/>
<path d="M81.2221 19.1068H76.4443V23.8845H81.2221V28.6623H85.9999V4.77344H81.2221V19.1068Z" fill="#7280E5"/>
<path d="M33.4445 19.1094H28.6667V23.8872H33.4445V19.1094Z" fill="#7280E5"/>
<path d="M57.333 19.1094H52.5552V23.8872H57.333V19.1094Z" fill="#7280E5"/>
<path d="M71.6662 23.8906H66.8884V28.6684H71.6662V23.8906Z" fill="#7280E5"/>
<path d="M42.9995 23.8906H38.2217V28.6684H42.9995V23.8906Z" fill="#7280E5"/>
<path d="M23.8886 28.6641H19.1108V33.4418H23.8886V28.6641Z" fill="#7280E5"/>
<path d="M62.111 28.6641H57.3333V33.4418H62.111V28.6641Z" fill="#7280E5"/>
</svg>
