<svg width="158" height="170" viewBox="0 0 158 170" fill="none" xmlns="http://www.w3.org/2000/svg">
<path d="M53.0446 56.5218L53.7334 54.814L54.4221 53.1063L52.7144 52.4176L51.0067 51.7288L51.6954 50.0211L52.3841 48.3134L50.6765 47.6247L48.9687 46.9359L49.6575 45.2283L50.3462 43.5206L48.6298 42.8283L46.9221 42.1395L45.2144 41.4508L43.5067 40.7621L41.799 40.0733L40.0912 39.3845L38.3835 38.6958L36.6758 38.007L34.9681 37.3183L33.2604 36.6296L31.5527 35.9408L29.8449 35.252L28.1285 34.5598L26.4208 33.871L24.7131 33.1823L25.4019 31.4746L26.0941 29.7582L24.3864 29.0694L22.6787 28.3807L23.3674 26.673L24.0562 24.9652L24.7449 23.2576L25.4337 21.5499L26.1224 19.8422L26.8111 18.1345L28.5189 18.8232L30.2266 19.512L30.9154 17.8043L31.6041 16.0966L33.3118 16.7853L35.0195 17.4741L35.7082 15.7664L36.397 14.0587L37.0857 12.351L37.7745 10.6433L36.0667 9.95453L34.3591 9.2658L33.6703 10.9735L32.9816 12.6812L31.2739 11.9924L29.5661 11.3037L28.8774 13.0114L28.1886 14.7191L26.4809 14.0304L24.7732 13.3416L24.0845 15.0493L23.3957 16.757L21.6881 16.0683L19.9803 15.3795L19.2916 17.0872L18.6028 18.7949L17.9141 20.5026L17.2254 22.2103L16.5366 23.918L15.8479 25.6257L17.5556 26.3145L19.2633 27.0032L18.571 28.7196L17.8823 30.4273L19.59 31.1161L21.2977 31.8048L20.6089 33.5125L19.9202 35.2202L21.6279 35.9089L23.3357 36.5977L22.6469 38.3054L21.9582 40.0131L23.6659 40.7018L25.3736 41.3906L27.09 42.0828L26.4012 43.7905L25.7125 45.4982L25.0238 47.2059L24.335 48.9136L23.6462 50.6213L22.9575 52.329L22.2653 54.0455L21.5765 55.7531L20.8878 57.4608L20.199 59.1686L19.5103 60.8762L18.8215 62.5839L18.1328 64.2917L17.4441 65.9993L16.7553 67.707L16.0666 69.4148L15.3778 71.1224L17.0856 71.8112L18.7933 72.4999L20.501 73.1887L21.1897 71.481L21.8784 69.7733L22.5672 68.0656L24.2749 68.7543L25.9827 69.4431L26.6714 67.7354L27.3601 66.0277L28.0489 64.32L28.7376 62.6123L27.0299 61.9236L25.3222 61.2348L26.0109 59.5271L26.6997 57.8194L27.3884 56.1117L28.0807 54.3953L28.7694 52.6876L29.4581 50.9799L30.1469 49.2722L30.8356 47.5645L31.5244 45.8568L32.2131 44.1491L33.9209 44.8378L35.6286 45.5266L37.3363 46.2153L36.6475 47.923L35.9588 49.6307L35.27 51.3384L34.5813 53.0461L33.8925 54.7538L33.2038 56.4615L32.5115 58.1779L31.8228 59.8856L31.134 61.5933L30.4453 63.301L29.7566 65.0087L29.0678 66.7164L28.3791 68.4241L27.6903 70.1318L27.0016 71.8395L26.3128 73.5472L25.6241 75.2549L27.3318 75.9437L29.0396 76.6324L30.7472 77.3212L31.436 75.6135L32.1247 73.9058L32.8135 72.1981L34.5212 72.8868L36.2289 73.5756L37.9453 74.2678L38.6341 72.5602L39.3228 70.8524L41.0305 71.5412L42.7382 72.2299L43.427 70.5222L44.1157 68.8146L45.8234 69.5033L47.5312 70.1921L48.2199 68.4843L48.9087 66.7766L50.6163 67.4654L52.3241 68.1541L53.0128 66.4465L53.7051 64.73L54.3938 63.0224L55.0826 61.3146L55.7713 59.6069L56.46 57.8992L54.7523 57.2105L53.0446 56.5218ZM45.4932 65.3991L43.7855 64.7104L42.0778 64.0216L41.389 65.7293L40.7003 67.4371L38.9839 66.7448L37.2762 66.0561L35.5684 65.3673L36.2572 63.6596L36.9459 61.9519L37.6347 60.2442L38.3269 58.5278L39.0157 56.8201L39.7044 55.1124L40.3932 53.4047L41.0819 51.697L41.7706 49.9893L42.4594 48.2816L44.1671 48.9703L45.8749 49.6591L47.5913 50.3513L46.9025 52.059L46.2138 53.7668L47.9215 54.4555L49.6292 55.1442L48.9404 56.8519L48.2517 58.5596L47.5629 60.2673L46.8742 61.975L46.1819 63.6915L45.4932 65.3991Z" fill="#9FBAF1"/>
<path d="M44.1957 39.0541L45.9033 39.7428L46.5956 38.0264L47.2843 36.3187L47.9731 34.611L48.6618 32.9033L49.3506 31.1956L50.0393 29.4879L50.7281 27.7802L51.4168 26.0725L52.1055 24.3648L53.8133 25.0536L55.521 25.7423L57.2374 26.4346L56.5487 28.1423L55.8599 29.85L57.5676 30.5387L59.2753 31.2275L58.5866 32.9352L57.8978 34.6428L59.6056 35.3316L61.3133 36.0204L62.002 34.3127L62.6908 32.605L63.3795 30.8973L64.0683 29.1896L62.3605 28.5008L60.6528 27.8121L61.3416 26.1044L62.0303 24.3966L60.3226 23.7079L58.6149 23.0192L59.3036 21.3115L59.9924 19.6038L58.276 18.9115L56.5682 18.2228L54.8605 17.534L55.5528 15.8176L56.2415 14.1099L56.9303 12.4022L55.2226 11.7135L53.5149 11.0247L51.8071 10.3359L51.1184 12.0437L50.4296 13.7514L49.7374 15.4678L49.0486 17.1755L48.3599 18.8831L47.6711 20.5909L46.9824 22.2986L46.2937 24.0062L45.6049 25.714L44.9162 27.4217L44.2274 29.1293L43.5387 30.8371L42.85 32.5447L42.1612 34.2524L41.4724 35.9602L40.7802 37.6765L42.4879 38.3653L44.1957 39.0541Z" fill="#9FBAF1"/>
<path d="M33.9493 34.9217L35.657 35.6105L36.3492 33.8941L37.038 32.1864L37.7268 30.4786L38.4155 28.771L39.1042 27.0633L39.793 25.3556L40.4817 23.6479L41.1705 21.9402L41.8592 20.2325L43.5669 20.9213L45.2747 21.61L45.9634 19.9023L46.6522 18.1946L47.3409 16.4869L48.0296 14.7792L46.3219 14.0904L44.6142 13.4017L45.3064 11.6853L45.9952 9.97758L46.6839 8.26986L44.9763 7.58113L43.2685 6.89237L41.5608 6.20361L40.872 7.91133L40.1833 9.61905L39.491 11.3354L38.8023 13.0432L38.1136 14.7508L37.4248 16.4585L36.7361 18.1663L36.0473 19.8739L35.3586 21.5816L34.6698 23.2894L33.9811 24.997L33.2923 26.7047L32.6036 28.4124L31.9149 30.1201L31.2261 31.8278L30.5339 33.5442L32.2416 34.233L33.9493 34.9217Z" fill="#9FBAF1"/>
<path d="M15.068 57.0975L15.7567 55.3898L16.4455 53.682L14.7377 52.9933L13.03 52.3045L13.7187 50.5969L14.411 48.8804L12.7033 48.1917L10.9956 47.5029L10.3033 49.2194L9.61461 50.927L8.92586 52.6348L8.2371 54.3425L9.94483 55.0312L11.6525 55.72L10.9638 57.4276L10.275 59.1353L11.9828 59.8241L13.6905 60.5129L13.0017 62.2206L12.313 63.9282L14.0207 64.617L15.7284 65.3057L16.4171 63.5981L17.1059 61.8903L17.7947 60.1826L18.4834 58.475L16.7757 57.7862L15.068 57.0975Z" fill="#9FBAF1"/>
<path d="M140.934 122.708L140.028 121.104L139.123 119.501L137.52 120.406L135.916 121.312L135.011 119.708L134.105 118.105L132.502 119.01L130.899 119.915L129.993 118.312L129.088 116.708L127.476 117.618L125.873 118.524L124.269 119.429L122.666 120.334L121.062 121.24L119.459 122.145L117.856 123.05L116.252 123.955L114.649 124.861L113.045 125.766L111.442 126.671L109.838 127.577L108.227 128.487L106.623 129.392L105.02 130.297L104.114 128.694L103.205 127.082L101.601 127.987L99.9976 128.893L99.0923 127.289L98.187 125.686L97.2817 124.082L96.3764 122.479L95.4711 120.875L94.5658 119.272L96.1693 118.367L97.7727 117.461L96.8674 115.858L95.9622 114.254L97.5656 113.349L99.1691 112.444L98.2638 110.84L97.3585 109.237L96.4532 107.634L95.5479 106.03L93.9444 106.935L92.341 107.841L93.2463 109.444L94.1516 111.048L92.5481 111.953L90.9446 112.858L91.8499 114.462L92.7552 116.065L91.1518 116.97L89.5483 117.876L90.4536 119.479L91.3589 121.083L89.7555 121.988L88.152 122.893L89.0573 124.497L89.9626 126.1L90.8679 127.704L91.7731 129.307L92.6784 130.91L93.5837 132.514L95.1872 131.609L96.7907 130.703L97.7006 132.315L98.6059 133.918L100.209 133.013L101.813 132.108L102.718 133.711L103.623 135.315L105.227 134.409L106.83 133.504L107.736 135.107L108.641 136.711L110.244 135.806L111.848 134.9L113.459 133.99L114.365 135.594L115.27 137.197L116.175 138.801L117.081 140.404L117.986 142.008L118.891 143.611L119.801 145.223L120.706 146.826L121.612 148.43L122.517 150.033L123.422 151.637L124.328 153.24L125.233 154.843L126.138 156.447L127.043 158.05L127.949 159.654L128.854 161.257L130.457 160.352L132.061 159.447L133.664 158.541L132.759 156.938L131.854 155.334L130.949 153.731L132.552 152.826L134.155 151.92L133.25 150.317L132.345 148.713L131.44 147.11L130.534 145.507L128.931 146.412L127.327 147.317L126.422 145.714L125.517 144.11L124.611 142.507L123.702 140.895L122.796 139.292L121.891 137.688L120.986 136.085L120.08 134.481L119.175 132.878L118.27 131.274L119.873 130.369L121.477 129.464L123.08 128.559L123.985 130.162L124.891 131.766L125.796 133.369L126.701 134.972L127.607 136.576L128.512 138.179L129.422 139.791L130.327 141.394L131.232 142.998L132.138 144.601L133.043 146.205L133.948 147.808L134.854 149.412L135.759 151.015L136.664 152.619L137.57 154.222L138.475 155.825L140.078 154.92L141.682 154.015L143.285 153.109L142.38 151.506L141.475 149.903L140.569 148.299L142.173 147.394L143.776 146.489L145.388 145.579L144.483 143.975L143.577 142.372L145.181 141.466L146.784 140.561L145.879 138.958L144.974 137.354L146.577 136.449L148.181 135.544L147.275 133.94L146.37 132.337L147.973 131.431L149.577 130.526L148.672 128.923L147.762 127.311L146.856 125.708L145.951 124.104L145.046 122.501L144.14 120.897L142.537 121.803L140.934 122.708ZM143.163 134.147L141.56 135.053L139.956 135.958L140.861 137.561L141.767 139.165L140.155 140.075L138.552 140.98L136.948 141.885L136.043 140.282L135.138 138.678L134.232 137.075L133.322 135.463L132.417 133.86L131.512 132.256L130.606 130.653L129.701 129.05L128.796 127.446L127.891 125.843L129.494 124.937L131.098 124.032L132.709 123.122L133.614 124.726L134.52 126.329L136.123 125.424L137.727 124.518L138.632 126.122L139.537 127.725L140.443 129.329L141.348 130.932L142.258 132.544L143.163 134.147Z" fill="#9FBAF1"/>
<path d="M121.761 118.731L123.364 117.825L122.454 116.214L121.549 114.61L120.644 113.007L119.739 111.403L118.833 109.8L117.928 108.196L117.023 106.593L116.117 104.989L115.212 103.386L116.816 102.481L118.419 101.575L120.031 100.666L120.936 102.269L121.841 103.872L123.445 102.967L125.048 102.062L125.953 103.665L126.859 105.269L128.462 104.363L130.066 103.458L129.16 101.855L128.255 100.251L127.35 98.6478L126.445 97.0443L124.841 97.9496L123.238 98.855L122.332 97.2515L121.427 95.648L119.824 96.5533L118.22 97.4586L117.315 95.8552L116.41 94.2517L114.798 95.1616L113.194 96.067L111.591 96.9723L110.681 95.3607L109.776 93.7572L108.87 92.1537L107.267 93.059L105.664 93.9643L104.06 94.8696L104.965 96.4731L105.871 98.0766L106.781 99.6882L107.686 101.292L108.591 102.895L109.496 104.499L110.402 106.102L111.307 107.705L112.212 109.309L113.118 110.912L114.023 112.516L114.928 114.119L115.833 115.723L116.739 117.326L117.644 118.93L118.554 120.541L120.157 119.636L121.761 118.731Z" fill="#9FBAF1"/>
<path d="M112.14 124.162L113.744 123.257L112.834 121.645L111.928 120.042L111.023 118.438L110.118 116.835L109.212 115.231L108.307 113.628L107.402 112.025L106.497 110.421L105.591 108.818L107.195 107.912L108.798 107.007L107.893 105.404L106.988 103.8L106.082 102.197L105.177 100.593L103.574 101.499L101.97 102.404L101.06 100.792L100.155 99.1888L99.2496 97.5854L97.6462 98.4906L96.0427 99.396L94.4392 100.301L95.3445 101.905L96.2498 103.508L97.1597 105.12L98.065 106.723L98.9703 108.327L99.8756 109.93L100.781 111.534L101.686 113.137L102.591 114.741L103.497 116.344L104.402 117.947L105.307 119.551L106.213 121.154L107.118 122.758L108.023 124.361L108.933 125.973L110.537 125.067L112.14 124.162Z" fill="#9FBAF1"/>
<path d="M117.698 152.752L116.793 151.149L115.888 149.546L114.284 150.451L112.681 151.356L111.776 149.753L110.866 148.141L109.262 149.046L107.659 149.952L108.569 151.563L109.474 153.167L110.379 154.77L111.285 156.374L112.888 155.468L114.491 154.563L115.397 156.166L116.302 157.77L117.905 156.865L119.509 155.959L120.414 157.563L121.32 159.166L122.923 158.261L124.526 157.356L123.621 155.752L122.716 154.149L121.811 152.545L120.905 150.942L119.302 151.847L117.698 152.752Z" fill="#9FBAF1"/>
</svg>
