<svg width="120" height="162" viewBox="0 0 120 162" fill="none" xmlns="http://www.w3.org/2000/svg">
<path d="M61.2565 3.37564L62.9404 8.08767L58.2283 9.77153L53.5162 11.4554L48.8043 13.1392L44.0922 14.8231L39.3803 16.5069L34.6682 18.1907L29.9561 19.8746L25.2442 21.5584L20.5321 23.2423L15.82 24.9261L11.1081 26.6099L9.42427 21.8979L4.7122 23.5818L0.00012207 25.2656L1.68397 29.9777L3.36776 34.6895L8.07984 33.0057L9.76368 37.7177L11.4475 42.4296L13.1313 47.1416L14.8152 51.8537L16.5076 56.5896L18.1914 61.3016L19.8753 66.0137L21.559 70.7256L23.2429 75.4376L27.955 73.7537L32.6669 72.0699L30.983 67.3579L29.2993 62.646L27.6154 57.934L25.9316 53.2219L24.2392 48.486L22.5553 43.774L20.8715 39.0619L25.5836 37.3781L30.2956 35.6942L35.0076 34.0104L39.7196 32.3265L44.4317 30.6427L49.1436 28.9589L53.8557 27.275L58.5676 25.5912L63.2797 23.9073L64.9636 28.6194L66.6474 33.3314L68.3398 38.0674L70.0236 42.7794L71.7075 47.4914L73.3913 52.2033L75.0751 56.9153L79.7872 55.2315L84.4991 53.5477L82.8153 48.8356L81.1315 44.1237L79.4476 39.4117L77.7638 34.6997L76.0714 29.9637L74.3876 25.2517L72.7037 20.5397L71.0199 15.8278L69.3361 11.1158L74.0722 9.42329L72.3884 4.7114L70.7046 -0.000627414L65.9684 1.69183L61.2565 3.37564Z" fill="#9FBAF1"/>
<path d="M90.2381 99.3478L91.9219 104.06L93.6058 108.772L95.2895 113.484L96.9734 118.196L98.6572 122.908L93.9452 124.592L92.2613 119.88L87.5494 121.563L89.2332 126.276L84.5212 127.959L82.8373 123.247L78.1254 124.931L79.8092 129.643L75.0972 131.327L73.4133 126.615L68.7012 128.299L70.3851 133.011L65.6731 134.695L63.9893 129.983L59.2772 131.667L60.9611 136.379L56.249 138.062L54.5652 133.35L52.8813 128.638L51.1975 123.926L49.5137 119.214L47.8298 114.502L46.146 109.791L44.4536 105.054L39.7417 106.738L35.0296 108.422L36.722 113.158L38.4058 117.87L40.0897 122.582L41.7735 127.294L43.4573 132.006L45.1411 136.718L46.825 141.43L48.5088 146.142L50.1926 150.854L45.4806 152.538L47.1644 157.25L48.8482 161.962L53.5603 160.278L58.2723 158.594L56.5886 153.882L61.3005 152.198L66.0126 150.515L70.7246 148.831L75.4366 147.147L80.1486 145.463L84.8607 143.779L89.5726 142.095L94.2847 140.411L98.9966 138.728L103.709 137.044L108.421 135.36L110.105 140.072L114.817 138.388L119.553 136.696L117.869 131.984L116.185 127.272L111.449 128.964L109.765 124.252L108.081 119.54L106.397 114.828L104.714 110.116L103.03 105.404L101.346 100.692L99.6621 95.9801L97.9783 91.2683L96.2858 86.5322L91.5739 88.216L86.8618 89.8998L88.5543 94.6359L90.2381 99.3478Z" fill="#9FBAF1"/>
<path d="M77.4381 93.2672L82.15 91.5834L86.8621 89.8995L85.1783 85.1876L83.4944 80.4756L78.7824 82.1595L74.0704 83.8433L75.7543 88.5553L77.4381 93.2672Z" fill="#9FBAF1"/>
<path d="M65.6508 60.2808L67.3346 64.9926L69.0184 69.7047L73.7303 68.0209L78.4424 66.337L76.7586 61.625L75.0748 56.9131L70.3627 58.597L65.6508 60.2808Z" fill="#9FBAF1"/>
<path d="M66.995 49.1726L62.2831 50.8564L63.9669 55.5683L68.6788 53.8845L66.995 49.1726Z" fill="#9FBAF1"/>
<path d="M85.8666 116.851L81.1545 118.535L82.8384 123.247L87.5505 121.563L85.8666 116.851Z" fill="#9FBAF1"/>
<path d="M63.9673 55.5696L59.2552 57.2534L60.9391 61.9655L65.6512 60.2816L63.9673 55.5696Z" fill="#9FBAF1"/>
<path d="M60.5996 46.1452L55.8876 47.8291L57.5714 52.5411L62.2835 50.8573L60.5996 46.1452Z" fill="#9FBAF1"/>
<path d="M79.4684 113.82L74.7565 115.503L76.4403 120.215L81.1522 118.531L79.4684 113.82Z" fill="#9FBAF1"/>
<path d="M59.5941 73.0737L61.278 77.7858L62.9618 82.4976L64.6456 87.2097L69.3575 85.5259L74.0696 83.842L72.3858 79.13L70.702 74.4181L69.0181 69.7061L64.306 71.3899L59.5941 73.0737Z" fill="#9FBAF1"/>
<path d="M57.5706 52.5403L52.8586 54.2241L54.5424 58.936L59.2544 57.2522L57.5706 52.5403Z" fill="#9FBAF1"/>
<path d="M76.4417 120.219L71.7296 121.903L73.4135 126.615L78.1255 124.931L76.4417 120.219Z" fill="#9FBAF1"/>
<path d="M73.074 110.795L68.3619 112.479L70.0457 117.19L74.7577 115.506L73.074 110.795Z" fill="#9FBAF1"/>
<path d="M69.7049 101.368L64.9928 103.052L66.6766 107.764L71.3887 106.08L69.7049 101.368Z" fill="#9FBAF1"/>
<path d="M66.3299 91.9221L61.6178 93.606L63.3016 98.3178L68.0137 96.634L66.3299 91.9221Z" fill="#9FBAF1"/>
<path d="M57.9091 68.3581L53.197 70.042L54.8809 74.754L59.5929 73.0702L57.9091 68.3581Z" fill="#9FBAF1"/>
<path d="M54.5426 58.9372L49.8306 60.6211L51.5144 65.3331L56.2265 63.6493L54.5426 58.9372Z" fill="#9FBAF1"/>
<path d="M51.1747 49.5129L46.4626 51.1968L48.1465 55.9088L52.8586 54.2249L51.1747 49.5129Z" fill="#9FBAF1"/>
<path d="M70.0452 117.187L65.3331 118.871L67.0169 123.583L71.729 121.899L70.0452 117.187Z" fill="#9FBAF1"/>
<path d="M59.9341 88.8938L58.2503 84.1817L56.5665 79.4699L54.8826 74.7578L50.1705 76.4417L45.4586 78.1255L47.1425 82.8375L48.8263 87.5494L50.5101 92.2614L55.222 90.5776L59.9341 88.8938Z" fill="#9FBAF1"/>
<path d="M48.147 55.9079L43.4349 57.5918L45.1187 62.3037L49.8308 60.6198L48.147 55.9079Z" fill="#9FBAF1"/>
<path d="M67.0178 123.587L62.3059 125.271L63.9898 129.983L68.7017 128.299L67.0178 123.587Z" fill="#9FBAF1"/>
<path d="M45.1189 62.305L40.407 63.9888L42.0908 68.7008L46.8028 67.017L45.1189 62.305Z" fill="#9FBAF1"/>
<path d="M41.7506 52.8806L37.0387 54.5645L38.7225 59.2765L43.4345 57.5927L41.7506 52.8806Z" fill="#9FBAF1"/>
<path d="M53.8778 101.685L52.1941 96.9732L50.5102 92.2612L45.7981 93.945L41.0861 95.6289L42.7699 100.341L44.4537 105.053L49.1658 103.369L53.8778 101.685Z" fill="#9FBAF1"/>
<path d="M42.0908 68.7011L37.3787 70.385L32.6666 72.0688L34.3505 76.7808L36.0343 81.493L40.7464 79.8091L45.4585 78.1253L43.7747 73.4131L42.0908 68.7011Z" fill="#9FBAF1"/>
<path d="M38.7231 59.2756L34.011 60.9595L35.6948 65.6714L40.4069 63.9875L38.7231 59.2756Z" fill="#9FBAF1"/>
</svg>
