<svg width="428" height="495" viewBox="0 0 428 495" fill="none" xmlns="http://www.w3.org/2000/svg">
<path d="M313.976 334.548L318.053 324.439L322.13 314.331L312.022 310.255L301.913 306.178L305.99 296.07L310.067 285.962L299.959 281.885L289.851 277.808L293.927 267.7L298.004 257.592L287.845 253.495L277.737 249.418L267.628 245.341L257.521 241.265L247.412 237.188L237.304 233.111L227.196 229.034L217.088 224.958L206.98 220.881L196.872 216.804L186.764 212.727L176.656 208.65L166.496 204.553L156.388 200.476L146.28 196.4L150.357 186.291L154.455 176.132L144.346 172.055L134.238 167.978L138.315 157.87L142.392 147.762L146.469 137.654L150.545 127.546L154.622 117.438L158.699 107.33L168.807 111.407L178.915 115.484L182.992 105.376L187.069 95.2678L197.176 99.3444L207.285 103.421L211.361 93.3131L215.438 83.2049L219.515 73.0971L223.592 62.989L213.483 58.9122L203.376 54.8355L199.299 64.9436L195.222 75.0515L185.114 70.9747L175.006 66.8979L170.929 77.006L166.852 87.1142L156.744 83.0375L146.636 78.9607L142.56 89.0685L138.483 99.1767L128.375 95.1L118.267 91.0232L114.19 101.131L110.113 111.239L106.037 121.347L101.96 131.455L97.8831 141.563L93.8063 151.671L103.914 155.748L114.022 159.825L109.925 169.984L105.848 180.092L115.956 184.169L126.064 188.246L121.987 198.354L117.911 208.462L128.019 212.539L138.127 216.616L134.05 226.724L129.974 236.831L140.081 240.908L150.19 244.985L160.349 249.082L156.272 259.191L152.195 269.299L148.119 279.407L144.042 289.515L139.965 299.623L135.889 309.731L131.791 319.89L127.714 329.998L123.638 340.106L119.561 350.215L115.484 360.322L111.407 370.43L107.331 380.539L103.254 390.646L99.1771 400.755L95.1003 410.863L91.0236 420.971L101.132 425.047L111.24 429.124L121.348 433.201L125.424 423.093L129.501 412.985L133.578 402.877L143.686 406.954L153.794 411.03L157.871 400.922L161.948 390.814L166.025 380.706L170.101 370.598L159.993 366.522L149.885 362.445L153.962 352.337L158.039 342.228L162.115 332.121L166.213 321.961L170.289 311.853L174.366 301.745L178.443 291.637L182.52 281.529L186.596 271.421L190.673 261.313L200.781 265.389L210.89 269.466L220.997 273.543L216.921 283.651L212.844 293.759L208.767 303.867L204.69 313.975L200.614 324.083L196.537 334.191L192.439 344.351L188.363 354.459L184.286 364.567L180.209 374.675L176.132 384.783L172.056 394.891L167.979 404.999L163.902 415.107L159.825 425.215L155.749 435.323L151.672 445.431L161.78 449.508L171.888 453.585L181.996 457.661L186.073 447.554L190.15 437.445L194.226 427.337L204.335 431.414L214.443 435.491L224.602 439.588L228.679 429.48L232.756 419.372L242.864 423.449L252.972 427.526L257.048 417.418L261.125 407.31L271.233 411.387L281.341 415.463L285.418 405.355L289.495 395.247L299.603 399.324L309.711 403.401L313.788 393.293L317.885 383.133L321.962 373.025L326.039 362.917L330.116 352.809L334.192 342.701L324.084 338.624L313.976 334.548ZM269.279 387.094L259.171 383.017L249.063 378.94L244.986 389.048L240.909 399.156L230.75 395.059L220.641 390.982L210.533 386.905L214.61 376.797L218.687 366.689L222.764 356.581L226.861 346.421L230.938 336.314L235.015 326.205L239.091 316.097L243.168 305.989L247.245 295.881L251.322 285.773L261.43 289.85L271.538 293.927L281.697 298.024L277.621 308.132L273.544 318.241L283.652 322.317L293.76 326.394L289.683 336.502L285.606 346.61L281.53 356.718L277.453 366.826L273.355 376.986L269.279 387.094Z" fill="#AFCAFF"/>
<path d="M261.599 231.158L271.707 235.235L275.804 225.075L279.881 214.967L283.958 204.859L288.034 194.751L292.111 184.643L296.188 174.535L300.265 164.427L304.341 154.318L308.418 144.211L318.526 148.287L328.634 152.364L338.794 156.462L334.717 166.57L330.64 176.678L340.749 180.755L350.856 184.831L346.78 194.939L342.703 205.047L352.811 209.124L362.919 213.201L366.996 203.093L371.073 192.985L375.15 182.877L379.226 172.769L369.118 168.692L359.01 164.615L363.087 154.507L367.163 144.399L357.056 140.322L346.947 136.245L351.024 126.137L355.101 116.029L344.941 111.932L334.833 107.855L324.725 103.778L328.822 93.6186L332.899 83.5104L336.976 73.4022L326.868 69.3255L316.76 65.2487L306.652 61.1719L302.575 71.2801L298.498 81.3883L294.401 91.5478L290.324 101.656L286.247 111.764L282.171 121.872L278.094 131.98L274.017 142.088L269.94 152.196L265.864 162.305L261.787 172.412L257.71 182.521L253.634 192.628L249.557 202.737L245.48 212.845L241.382 223.004L251.491 227.081L261.599 231.158Z" fill="#AFCAFF"/>
<path d="M200.952 206.698L211.059 210.774L215.157 200.615L219.234 190.507L223.31 180.399L227.387 170.291L231.464 160.183L235.541 150.075L239.617 139.967L243.694 129.859L247.771 119.751L257.879 123.828L267.987 127.904L272.064 117.796L276.141 107.688L280.217 97.5805L284.294 87.4724L274.186 83.3956L264.078 79.3188L268.175 69.1594L272.252 59.0513L276.329 48.9431L266.221 44.8665L256.113 40.7897L246.005 36.7129L241.928 46.821L237.851 56.9291L233.754 67.0885L229.677 77.1966L225.6 87.3044L221.523 97.4125L217.447 107.521L213.37 117.628L209.293 127.737L205.216 137.845L201.14 147.952L197.063 158.061L192.986 168.168L188.91 178.276L184.833 188.385L180.735 198.544L190.843 202.621L200.952 206.698Z" fill="#AFCAFF"/>
<path d="M89.2399 337.91L93.3167 327.802L97.3935 317.694L87.2853 313.617L77.1771 309.54L81.2538 299.432L85.3514 289.273L75.2435 285.196L65.1354 281.119L61.0378 291.279L56.9611 301.387L52.8843 311.495L48.8076 321.603L58.9157 325.68L69.0236 329.757L64.9469 339.865L60.8701 349.973L70.9783 354.05L81.0865 358.126L77.0097 368.235L72.933 378.343L83.0409 382.419L93.1491 386.496L97.2257 376.388L101.303 366.28L105.379 356.172L109.456 346.064L99.3478 341.987L89.2399 337.91Z" fill="#AFCAFF"/>
</svg>
