<svg width="370" height="216" viewBox="0 0 370 216" fill="none" xmlns="http://www.w3.org/2000/svg">
<path d="M140.876 188.174V185.646H138.348V183.118H135.82V180.59H123.168V183.118H120.64V185.646H118.112V188.174H115.584V200.826H118.112V203.354H120.64V205.882H123.168V208.41H135.82V205.882H138.348V203.354H140.876V200.826H143.404V188.174H140.876ZM133.286 190.702H128.225V193.23H133.286V200.82H130.758V203.348H128.23V200.82H125.702V198.292H130.764V195.764H125.702V188.174H128.23V185.646H130.758V188.174H133.286V190.702ZM148.472 188.174V183.112H145.944V180.584H143.416V178.056H140.888V175.528H135.826V173H123.174V175.528H118.112V178.056H115.584V180.584H113.056V183.112H110.528V188.174H108V200.826H110.528V205.888H113.056V208.416H115.584V210.944H118.112V213.472H123.174V216H135.826V213.472H140.888V210.944H143.416V208.416H145.944V205.888H148.472V200.826H151V188.174H148.472ZM145.938 200.822H143.41V203.35H140.882V205.878H138.354V208.406H135.826V210.934H123.174V208.406H120.646V205.878H118.118V203.35H115.59V200.822H113.062V188.17H115.59V185.642H118.118V183.114H120.646V180.586H123.174V178.058H135.826V180.586H138.354V183.114H140.882V185.642H143.41V188.17H145.938V200.822Z" fill="#F4CE24"/>
<path d="M86.8763 188.174V185.646H84.3482V183.118H81.8201V180.59H69.1685V183.118H66.6404V185.646H64.1123V188.174H61.5842V200.826H64.1123V203.354H66.6404V205.882H69.1685V208.41H81.8201V205.882H84.3482V203.354H86.8763V200.826H89.4044V188.174H86.8763ZM79.2865 190.702H74.2247V193.23H79.2865V200.82H76.7584V203.348H74.2303V200.82H71.7022V198.292H76.764V195.764H71.7022V188.174H74.2303V185.646H76.7584V188.174H79.2865V190.702ZM94.4719 188.174V183.112H91.9438V180.584H89.4157V178.056H86.8876V175.528H81.8258V173H69.1742V175.528H64.1124V178.056H61.5843V180.584H59.0562V183.112H56.5281V188.174H54V200.826H56.5281V205.888H59.0562V208.416H61.5843V210.944H64.1124V213.472H69.1742V216H81.8258V213.472H86.8876V210.944H89.4157V208.416H91.9438V205.888H94.4719V200.826H97V188.174H94.4719ZM91.9382 200.822H89.4101V203.35H86.8821V205.878H84.354V208.406H81.8259V210.934H69.1742V208.406H66.6461V205.878H64.118V203.35H61.59V200.822H59.0619V188.17H61.59V185.642H64.118V183.114H66.6461V180.586H69.1742V178.058H81.8259V180.586H84.354V183.114H86.8821V185.642H89.4101V188.17H91.9382V200.822Z" fill="#F4CE24"/>
<path d="M32.8763 188.174V185.646H30.3482V183.118H27.8201V180.59H15.1685V183.118H12.6404V185.646H10.1123V188.174H7.58421V200.826H10.1123V203.354H12.6404V205.882H15.1685V208.41H27.8201V205.882H30.3482V203.354H32.8763V200.826H35.4044V188.174H32.8763ZM25.2865 190.702H20.2247V193.23H25.2865V200.82H22.7584V203.348H20.2303V200.82H17.7022V198.292H22.764V195.764H17.7022V188.174H20.2303V185.646H22.7584V188.174H25.2865V190.702ZM40.4719 188.174V183.112H37.9438V180.584H35.4157V178.056H32.8876V175.528H27.8258V173H15.1742V175.528H10.1124V178.056H7.58426V180.584H5.05617V183.112H2.52809V188.174H0V200.826H2.52809V205.888H5.05617V208.416H7.58426V210.944H10.1124V213.472H15.1742V216H27.8258V213.472H32.8876V210.944H35.4157V208.416H37.9438V205.888H40.4719V200.826H43V188.174H40.4719ZM37.9382 200.822H35.4101V203.35H32.8821V205.878H30.354V208.406H27.8259V210.934H15.1742V208.406H12.6461V205.878H10.118V203.35H7.58995V200.822H5.06186V188.17H7.58995V185.642H10.118V183.114H12.6461V180.586H15.1742V178.058H27.8259V180.586H30.354V183.114H32.8821V185.642H35.4101V188.17H37.9382V200.822Z" fill="#F4CE24"/>
<path d="M273.071 156.145V144.123H285.189V132.12H297.307V120.098H309.418V132.12H321.536V120.098H333.657V108.096H321.536H309.418V96.0742V84.0718H321.536H333.657H345.784V72.0728H333.657H321.536V60.0509H333.657H345.784H357.899H370V48.0485V36.0266V24.0243V12.0024H357.892V0H345.778H333.65H321.529H309.411H297.3H285.183H273.071V12.0024H260.954V24.0243V36.0266V48.0485V60.0509V72.0728H248.846V84.0751H236.718V96.0775H224.61V108.099H212.483V119.877V120.098H200.375H188.471H188.247H176.343V108.096H164.235V96.0742H152.108V84.0718V72.0728H140V84.0751V96.0775V108.099V120.102H152.108V132.124H164.235V144.126H176.343V156.148H188.247V167.948H200.375V168.15V179.951H212.483H212.552V191.976V203.978V216H224.66H236.787V203.978H224.66V191.976V180.195H236.722V168.173H248.849V180.195H260.957V191.976V203.978H260.888V216H273.016H285.123V203.978H273.071V191.976V180.195V179.947V168.17V156.167M285.189 48.0485V36.0266H297.307V48.0485H285.189Z" fill="#7280E5"/>
</svg>
