<svg width="150" height="199" viewBox="0 0 150 199" fill="none" xmlns="http://www.w3.org/2000/svg">
<path d="M53.0449 56.5223L53.7336 54.8146L54.4224 53.1069L52.7146 52.4182L51.0069 51.7294L51.6956 50.0218L52.3844 48.3141L50.6767 47.6254L48.969 46.9366L49.6577 45.229L50.3465 43.5213L48.6301 42.8291L46.9223 42.1403L45.2146 41.4516L43.5069 40.7629L41.7992 40.0741L40.0915 39.3854L38.3838 38.6967L36.6761 38.0079L34.9683 37.3192L33.2606 36.6304L31.5529 35.9417L29.8452 35.253L28.1288 34.5607L26.4211 33.872L24.7134 33.1832L25.4021 31.4756L26.0944 29.7592L24.3867 29.0705L22.6789 28.3817L23.3677 26.674L24.0564 24.9663L24.7452 23.2587L25.4339 21.551L26.1226 19.8434L26.8114 18.1357L28.5191 18.8245L30.2268 19.5132L30.9156 17.8055L31.6043 16.0979L33.312 16.7866L35.0197 17.4753L35.7085 15.7677L36.3972 14.06L37.086 12.3523L37.7747 10.6447L36.067 9.95591L34.3593 9.26718L33.6706 10.9749L32.9818 12.6825L31.2741 11.9938L29.5664 11.305L28.8776 13.0127L28.1889 14.7204L26.4812 14.0317L24.7735 13.3429L24.0847 15.0506L23.396 16.7582L21.6883 16.0695L19.9806 15.3808L19.2918 17.0885L18.6031 18.7961L17.9143 20.5038L17.2256 22.2114L16.5369 23.9191L15.8481 25.6268L17.5558 26.3155L19.2635 27.0043L18.5713 28.7206L17.8825 30.4283L19.5902 31.117L21.2979 31.8058L20.6092 33.5134L19.9204 35.2211L21.6282 35.9098L23.3359 36.5986L22.6472 38.3063L21.9584 40.0139L23.6661 40.7026L25.3738 41.3914L27.0902 42.0836L26.4015 43.7913L25.7127 45.499L25.024 47.2066L24.3352 48.9143L23.6465 50.622L22.9578 52.3296L22.2655 54.046L21.5768 55.7536L20.888 57.4613L20.1993 59.169L19.5105 60.8767L18.8218 62.5843L18.133 64.292L17.4443 65.9997L16.7556 67.7073L16.0668 69.415L15.3781 71.1227L17.0858 71.8114L18.7935 72.5002L20.5012 73.1889L21.1899 71.4812L21.8787 69.7736L22.5674 68.0659L24.2752 68.7546L25.9829 69.4434L26.6716 67.7357L27.3604 66.028L28.0491 64.3203L28.7379 62.6127L27.0301 61.924L25.3224 61.2352L26.0112 59.5275L26.6999 57.8199L27.3886 56.1122L28.0809 54.3958L28.7696 52.6882L29.4584 50.9805L30.1471 49.2728L30.8359 47.5652L31.5246 45.8575L32.2134 44.1498L33.9211 44.8385L35.6288 45.5273L37.3365 46.216L36.6477 47.9237L35.959 49.6314L35.2703 51.339L34.5815 53.0467L33.8928 54.7544L33.204 56.462L32.5118 58.1784L31.823 59.8861L31.1343 61.5938L30.4455 63.3014L29.7568 65.0091L29.0681 66.7168L28.3793 68.4244L27.6906 70.1321L27.0018 71.8398L26.3131 73.5474L25.6243 75.2551L27.3321 75.9438L29.0398 76.6326L30.7475 77.3213L31.4362 75.6137L32.125 73.906L32.8137 72.1983L34.5214 72.887L36.2292 73.5758L37.9456 74.268L38.6343 72.5604L39.323 70.8527L41.0308 71.5414L42.7385 72.2302L43.4272 70.5225L44.1159 68.8148L45.8237 69.5036L47.5314 70.1923L48.2201 68.4846L48.9089 66.777L50.6166 67.4657L52.3243 68.1544L53.013 66.4468L53.7053 64.7304L54.394 63.0227L55.0828 61.3151L55.7715 59.6074L56.4603 57.8997L54.7525 57.211L53.0449 56.5223ZM45.4934 65.3995L43.7858 64.7107L42.078 64.022L41.3893 65.7297L40.7005 67.4374L38.9841 66.7451L37.2764 66.0564L35.5687 65.3676L36.2574 63.66L36.9462 61.9523L37.6349 60.2446L38.3272 58.5282L39.0159 56.8206L39.7047 55.1129L40.3934 53.4052L41.0821 51.6976L41.7709 49.9899L42.4596 48.2822L44.1674 48.971L45.8751 49.6597L47.5915 50.3519L46.9027 52.0596L46.214 53.7673L47.9217 54.4561L49.6294 55.1448L48.9407 56.8524L48.2519 58.5601L47.5632 60.2678L46.8744 61.9754L46.1822 63.6918L45.4934 65.3995Z" fill="#9FBAF1"/>
<path d="M44.1957 39.0547L45.9033 39.7435L46.5956 38.0271L47.2843 36.3193L47.9731 34.6115L48.6618 32.9038L49.3506 31.1961L50.0393 29.4884L50.7281 27.7806L51.4168 26.0729L52.1055 24.3652L53.8133 25.0539L55.521 25.7427L57.2374 26.435L56.5487 28.1427L55.8599 29.8504L57.5676 30.5392L59.2753 31.228L58.5866 32.9357L57.8978 34.6434L59.6056 35.3322L61.3133 36.021L62.002 34.3133L62.6908 32.6055L63.3795 30.8977L64.0683 29.19L62.3605 28.5013L60.6528 27.8125L61.3416 26.1047L62.0303 24.397L60.3226 23.7082L58.6149 23.0194L59.3036 21.3117L59.9924 19.604L58.276 18.9117L56.5682 18.2229L54.8605 17.5342L55.5528 15.8177L56.2415 14.11L56.9303 12.4022L55.2226 11.7135L53.5149 11.0247L51.8071 10.3359L51.1184 12.0437L50.4296 13.7515L49.7374 15.4679L49.0486 17.1756L48.3599 18.8833L47.6711 20.5911L46.9824 22.2989L46.2937 24.0066L45.6049 25.7143L44.9162 27.4221L44.2274 29.1298L43.5387 30.8375L42.85 32.5452L42.1612 34.253L41.4724 35.9608L40.7802 37.6772L42.4879 38.366L44.1957 39.0547Z" fill="#9FBAF1"/>
<path d="M33.9496 34.9221L35.6573 35.6108L36.3495 33.8945L37.0383 32.1868L37.727 30.4792L38.4157 28.7716L39.1045 27.0639L39.7932 25.3563L40.482 23.6487L41.1707 21.941L41.8594 20.2334L43.5672 20.9222L45.2749 21.6109L45.9636 19.9032L46.6524 18.1956L47.3411 16.488L48.0299 14.7803L46.3221 14.0916L44.6144 13.4029L45.3067 11.6866L45.9954 9.9789L46.6841 8.27125L44.9765 7.58254L43.2688 6.89381L41.561 6.20508L40.8723 7.91273L40.1835 9.62038L39.4913 11.3367L38.8025 13.0444L38.1138 14.752L37.4251 16.4596L36.7363 18.1673L36.0476 19.8749L35.3589 21.5825L34.6701 23.2902L33.9814 24.9978L33.2926 26.7054L32.6039 28.413L31.9152 30.1207L31.2264 31.8283L30.5342 33.5447L32.2419 34.2334L33.9496 34.9221Z" fill="#9FBAF1"/>
<path d="M15.0682 57.0985L15.757 55.3907L16.4457 53.683L14.738 52.9943L13.0303 52.3055L13.719 50.5978L14.4113 48.8814L12.7036 48.1927L10.9958 47.5039L10.3036 49.2203L9.61485 50.928L8.9261 52.6357L8.23735 54.3434L9.94508 55.0322L11.6528 55.7209L10.964 57.4286L10.2753 59.1363L11.983 59.8251L13.6907 60.5138L13.002 62.2216L12.3133 63.9292L14.0209 64.618L15.7287 65.3067L16.4174 63.599L17.1061 61.8913L17.7949 60.1836L18.4836 58.4759L16.7759 57.7872L15.0682 57.0985Z" fill="#9FBAF1"/>
<path d="M132.933 151.707L132.028 150.103L131.123 148.5L129.519 149.405L127.916 150.31L127.01 148.707L126.105 147.103L124.502 148.009L122.898 148.914L121.993 147.311L121.088 145.707L119.476 146.617L117.873 147.522L116.269 148.428L114.666 149.333L113.062 150.238L111.459 151.144L109.855 152.049L108.252 152.954L106.648 153.859L105.045 154.765L103.441 155.67L101.838 156.575L100.226 157.485L98.6229 158.391L97.0195 159.296L96.1142 157.692L95.2043 156.081L93.6008 156.986L91.9974 157.891L91.0921 156.288L90.1868 154.685L89.2815 153.081L88.3762 151.478L87.471 149.874L86.5657 148.271L88.1692 147.366L89.7726 146.46L88.8673 144.857L87.9621 143.253L89.5655 142.348L91.169 141.443L90.2637 139.839L89.3584 138.236L88.4531 136.633L87.5478 135.029L85.9444 135.934L84.3409 136.84L85.2462 138.443L86.1515 140.047L84.548 140.952L82.9446 141.857L83.8498 143.461L84.7551 145.064L83.1517 145.969L81.5482 146.875L82.4535 148.478L83.3588 150.081L81.7554 150.987L80.1519 151.892L81.0572 153.495L81.9625 155.099L82.8677 156.702L83.773 158.306L84.6783 159.909L85.5836 161.513L87.1871 160.607L88.7905 159.702L89.7004 161.314L90.6057 162.917L92.2091 162.012L93.8126 161.106L94.7178 162.71L95.6231 164.313L97.2266 163.408L98.83 162.503L99.7353 164.106L100.641 165.71L102.244 164.804L103.847 163.899L105.459 162.989L106.364 164.592L107.27 166.196L108.175 167.799L109.08 169.403L109.986 171.006L110.891 172.61L111.801 174.221L112.706 175.825L113.611 177.428L114.517 179.032L115.422 180.635L116.327 182.238L117.232 183.842L118.138 185.445L119.043 187.049L119.948 188.652L120.853 190.255L122.457 189.35L124.06 188.445L125.664 187.54L124.759 185.936L123.853 184.333L122.948 182.729L124.551 181.824L126.155 180.919L125.25 179.315L124.344 177.712L123.439 176.108L122.534 174.505L120.93 175.41L119.327 176.316L118.422 174.712L117.516 173.109L116.611 171.505L115.701 169.894L114.796 168.29L113.891 166.687L112.985 165.083L112.08 163.48L111.175 161.877L110.269 160.273L111.873 159.368L113.476 158.463L115.08 157.557L115.985 159.161L116.89 160.764L117.796 162.368L118.701 163.971L119.606 165.574L120.512 167.178L121.421 168.789L122.327 170.393L123.232 171.996L124.137 173.6L125.043 175.203L125.948 176.807L126.853 178.41L127.758 180.013L128.664 181.617L129.569 183.22L130.474 184.824L132.078 183.918L133.681 183.013L135.285 182.108L134.379 180.504L133.474 178.901L132.569 177.298L134.172 176.392L135.776 175.487L137.387 174.577L136.482 172.974L135.577 171.37L137.18 170.465L138.784 169.56L137.878 167.956L136.973 166.353L138.577 165.447L140.18 164.542L139.275 162.939L138.369 161.335L139.973 160.43L141.576 159.525L140.671 157.921L139.761 156.31L138.856 154.706L137.951 153.103L137.045 151.499L136.14 149.896L134.537 150.801L132.933 151.707ZM135.162 163.146L133.559 164.051L131.956 164.956L132.861 166.56L133.766 168.163L132.155 169.073L130.551 169.979L128.948 170.884L128.042 169.28L127.137 167.677L126.232 166.074L125.322 164.462L124.417 162.859L123.511 161.255L122.606 159.652L121.701 158.048L120.795 156.445L119.89 154.841L121.494 153.936L123.097 153.031L124.709 152.121L125.614 153.724L126.519 155.328L128.123 154.422L129.726 153.517L130.631 155.121L131.537 156.724L132.442 158.327L133.347 159.931L134.257 161.542L135.162 163.146Z" fill="#9FBAF1"/>
<path d="M113.761 147.731L115.364 146.826L114.454 145.214L113.549 143.61L112.644 142.007L111.738 140.403L110.833 138.8L109.928 137.196L109.022 135.593L108.117 133.989L107.212 132.386L108.815 131.481L110.419 130.575L112.03 129.665L112.936 131.269L113.841 132.872L115.445 131.967L117.048 131.062L117.953 132.665L118.859 134.269L120.462 133.363L122.065 132.458L121.16 130.854L120.255 129.251L119.35 127.647L118.444 126.044L116.841 126.949L115.237 127.855L114.332 126.251L113.427 124.648L111.823 125.553L110.22 126.458L109.315 124.855L108.409 123.251L106.798 124.161L105.194 125.067L103.591 125.972L102.681 124.36L101.776 122.757L100.87 121.153L99.2668 122.058L97.6633 122.964L96.0598 123.869L96.9651 125.473L97.8704 127.076L98.7803 128.688L99.6856 130.291L100.591 131.895L101.496 133.498L102.402 135.102L103.307 136.705L104.212 138.309L105.117 139.912L106.023 141.516L106.928 143.119L107.833 144.723L108.739 146.326L109.644 147.93L110.554 149.542L112.157 148.636L113.761 147.731Z" fill="#9FBAF1"/>
<path d="M104.14 153.163L105.744 152.257L104.834 150.646L103.928 149.042L103.023 147.439L102.118 145.835L101.212 144.232L100.307 142.628L99.4019 141.025L98.4966 139.421L97.5913 137.818L99.1948 136.912L100.798 136.007L99.893 134.403L98.9877 132.8L98.0824 131.196L97.1771 129.593L95.5736 130.498L93.9701 131.403L93.0602 129.792L92.1549 128.188L91.2496 126.585L89.6462 127.49L88.0427 128.395L86.4392 129.301L87.3445 130.904L88.2498 132.508L89.1597 134.12L90.065 135.723L90.9703 137.327L91.8756 138.93L92.7809 140.534L93.6862 142.137L94.5915 143.741L95.4968 145.344L96.4021 146.948L97.3074 148.551L98.2127 150.155L99.118 151.758L100.023 153.362L100.933 154.973L102.537 154.068L104.14 153.163Z" fill="#9FBAF1"/>
<path d="M109.698 181.752L108.793 180.148L107.888 178.545L106.284 179.45L104.681 180.356L103.775 178.752L102.865 177.141L101.262 178.046L99.6584 178.951L100.568 180.563L101.474 182.166L102.379 183.77L103.284 185.373L104.888 184.468L106.491 183.563L107.396 185.166L108.302 186.769L109.905 185.864L111.509 184.959L112.414 186.562L113.319 188.166L114.923 187.26L116.526 186.355L115.621 184.752L114.716 183.148L113.81 181.545L112.905 179.941L111.302 180.847L109.698 181.752Z" fill="#9FBAF1"/>
</svg>
