<svg width="353" height="399" viewBox="0 0 353 399" fill="none" xmlns="http://www.w3.org/2000/svg">
<path d="M281.511 188.077L277.811 180.225L274.111 172.373L266.259 176.073L258.407 179.772L254.708 171.92L251.008 164.068L243.156 167.768L235.304 171.467L231.604 163.615L227.905 155.763L220.013 159.481L212.16 163.181L204.308 166.88L196.456 170.58L188.604 174.279L180.752 177.979L172.9 181.679L165.048 185.378L157.195 189.078L149.343 192.777L141.491 196.477L133.639 200.176L125.747 203.895L117.895 207.594L110.043 211.294L106.343 203.441L102.625 195.549L94.7724 199.249L86.9202 202.949L83.2206 195.096L79.5211 187.244L75.8216 179.392L72.1221 171.54L68.4226 163.688L64.723 155.836L72.5753 152.136L80.4275 148.437L76.7279 140.585L73.0285 132.733L80.8805 129.033L88.7327 125.334L85.0331 117.482L81.3336 109.629L77.6341 101.777L73.9345 93.9253L66.0823 97.6248L58.2303 101.324L61.9299 109.176L65.6293 117.028L57.7771 120.728L49.9249 124.428L53.6244 132.28L57.324 140.132L49.472 143.831L41.6198 147.531L45.3193 155.383L49.0188 163.235L41.1668 166.934L33.3146 170.634L37.0142 178.486L40.7136 186.338L44.4132 194.19L48.1126 202.042L51.8122 209.894L55.5118 217.747L63.364 214.047L71.216 210.348L74.9343 218.24L78.6339 226.092L86.4861 222.392L94.3381 218.693L98.0377 226.545L101.737 234.397L109.589 230.697L117.442 226.998L121.141 234.85L124.841 242.702L132.693 239.002L140.545 235.303L148.437 231.584L152.136 239.437L155.836 247.289L159.536 255.141L163.235 262.993L166.935 270.845L170.634 278.697L174.353 286.589L178.052 294.441L181.752 302.293L185.451 310.146L189.151 317.997L192.85 325.85L196.55 333.702L200.249 341.554L203.949 349.406L207.648 357.258L211.348 365.11L219.2 361.41L227.052 357.711L234.904 354.011L231.205 346.16L227.505 338.307L223.806 330.455L231.658 326.756L239.51 323.056L235.811 315.204L232.111 307.352L228.412 299.5L224.712 291.648L216.86 295.347L209.008 299.047L205.308 291.195L201.608 283.343L197.909 275.491L194.191 267.598L190.491 259.746L186.792 251.894L183.092 244.042L179.393 236.19L175.693 228.338L171.993 220.486L179.846 216.786L187.698 213.087L195.55 209.387L199.249 217.239L202.949 225.092L206.648 232.944L210.348 240.796L214.048 248.648L217.747 256.5L221.465 264.392L225.165 272.244L228.864 280.096L232.564 287.948L236.263 295.8L239.963 303.652L243.663 311.505L247.362 319.357L251.062 327.209L254.761 335.061L258.461 342.913L266.313 339.213L274.165 335.514L282.017 331.814L278.318 323.962L274.618 316.11L270.919 308.258L278.771 304.558L286.623 300.859L294.515 297.14L290.816 289.289L287.116 281.436L294.968 277.737L302.82 274.037L299.121 266.185L295.421 258.333L303.273 254.634L311.126 250.934L307.426 243.082L303.727 235.23L311.579 231.53L319.431 227.831L315.731 219.979L312.013 212.087L308.313 204.235L304.614 196.382L300.914 188.53L297.215 180.678L289.363 184.378L281.511 188.077ZM288.022 242.629L280.17 246.328L272.318 250.028L276.017 257.88L279.717 265.732L271.825 269.451L263.973 273.15L256.12 276.85L252.421 268.998L248.721 261.145L245.022 253.293L241.303 245.401L237.604 237.549L233.904 229.697L230.205 221.845L226.505 213.993L222.806 206.141L219.106 198.289L226.958 194.589L234.811 190.89L242.703 187.171L246.402 195.023L250.102 202.876L257.954 199.176L265.806 195.477L269.506 203.328L273.205 211.181L276.905 219.033L280.604 226.885L284.323 234.777L288.022 242.629Z" fill="#AFCAFF"/>
<path d="M192.758 162.727L200.61 159.027L196.892 151.135L193.192 143.283L189.493 135.431L185.793 127.579L182.094 119.727L178.394 111.875L174.695 104.023L170.995 96.1705L167.296 88.3185L175.148 84.6189L183 80.9193L190.892 77.201L194.592 85.0529L198.291 92.9051L206.143 89.2055L213.995 85.5061L217.695 93.3583L221.394 101.21L229.247 97.5107L237.099 93.8111L233.399 85.9591L229.7 78.1069L226 70.2547L222.301 62.4028L214.449 66.1023L206.596 69.8019L202.897 61.9497L199.197 54.0975L191.345 57.797L183.493 61.4966L179.794 53.6446L176.094 45.7924L168.202 49.5108L160.35 53.2104L152.497 56.9099L148.779 49.0179L145.08 41.1657L141.38 33.3135L133.528 37.0129L125.676 40.7125L117.823 44.4121L121.523 52.2643L125.223 60.1165L128.941 68.0086L132.641 75.8608L136.34 83.7127L140.04 91.5649L143.739 99.4171L147.439 107.269L151.138 115.121L154.838 122.973L158.537 130.825L162.237 138.678L165.936 146.53L169.636 154.382L173.335 162.234L177.054 170.126L184.906 166.426L192.758 162.727Z" fill="#AFCAFF"/>
<path d="M145.646 184.924L153.498 181.224L149.78 173.332L146.08 165.48L142.381 157.628L138.681 149.776L134.982 141.924L131.282 134.072L127.583 126.22L123.883 118.367L120.184 110.516L128.036 106.816L135.888 103.116L132.189 95.2642L128.489 87.412L124.79 79.5601L121.09 71.708L113.238 75.4075L105.386 79.1071L101.667 71.2151L97.9679 63.3629L94.2683 55.5108L86.4164 59.2102L78.5641 62.9098L70.7119 66.6094L74.4115 74.4615L78.111 82.3137L81.8293 90.2057L85.5289 98.0579L89.2283 105.91L92.9279 113.762L96.6274 121.614L100.327 129.466L104.026 137.318L107.726 145.17L111.425 153.022L115.125 160.874L118.824 168.726L122.524 176.579L126.223 184.431L129.942 192.323L137.794 188.623L145.646 184.924Z" fill="#AFCAFF"/>
<path d="M161.847 321.184L158.148 313.332L154.448 305.479L146.596 309.179L138.744 312.878L135.044 305.026L131.326 297.134L123.474 300.834L115.622 304.533L119.34 312.426L123.04 320.278L126.739 328.13L130.439 335.982L138.291 332.282L146.143 328.583L149.842 336.435L153.542 344.287L161.394 340.588L169.246 336.888L172.946 344.74L176.646 352.592L184.498 348.893L192.35 345.193L188.65 337.341L184.951 329.489L181.251 321.637L177.552 313.785L169.699 317.484L161.847 321.184Z" fill="#AFCAFF"/>
</svg>
