<svg width="138" height="187" viewBox="0 0 138 187" fill="none" xmlns="http://www.w3.org/2000/svg">
<path d="M67.2306 3.89401L65.2887 9.32819L70.7228 11.2701L76.157 13.212L81.5909 15.1539L87.025 17.0958L92.4589 19.0376L97.893 20.9796L103.327 22.9215L108.761 24.8633L114.195 26.8052L119.629 28.7472L125.063 30.689L127.005 25.2548L132.439 27.1968L137.873 29.1387L135.931 34.5729L133.99 40.0069L128.556 38.0649L126.614 43.4991L124.672 48.9331L122.73 54.3673L120.788 59.8015L118.836 65.2633L116.895 70.6974L114.953 76.1316L113.011 81.5656L111.069 86.9998L105.635 85.0579L100.201 83.116L102.143 77.6819L104.085 72.2478L106.026 66.8137L107.968 61.3795L109.92 55.9177L111.862 50.4835L113.804 45.0494L108.37 43.1074L102.936 41.1655L97.5017 39.2237L92.0675 37.2818L86.6334 35.3398L81.1995 33.398L75.7654 31.4561L70.3315 29.5142L64.8974 27.5723L62.9555 33.0065L61.0136 38.4407L59.0619 43.9024L57.12 49.3366L55.1782 54.7708L53.2364 60.2048L51.2945 65.639L45.8604 63.6971L40.4265 61.7552L42.3683 56.321L44.3101 50.887L46.252 45.4528L48.1939 40.0187L50.1456 34.5569L52.0875 29.1227L54.0293 23.6885L55.9711 18.2545L57.913 12.8203L52.4511 10.8685L54.3929 5.4345L56.3348 0.000317259L61.7967 1.95215L67.2306 3.89401Z" fill="#1D1D1D"/>
<path d="M33.8079 114.574L31.866 120.008L29.9241 125.442L27.9823 130.876L26.0404 136.31L24.0986 141.744L29.5327 143.686L31.4746 138.252L36.9085 140.194L34.9666 145.628L40.4007 147.57L42.3426 142.136L47.7766 144.077L45.8347 149.511L51.2688 151.453L53.2107 146.019L58.6448 147.961L56.7029 153.395L62.1369 155.337L64.0787 149.903L69.5128 151.845L67.571 157.279L73.0051 159.221L74.947 153.787L76.8888 148.353L78.8306 142.919L80.7725 137.485L82.7144 132.051L84.6562 126.617L86.608 121.155L92.0419 123.097L97.476 125.039L95.5243 130.5L93.5824 135.934L91.6406 141.368L89.6987 146.802L87.7569 152.236L85.815 157.67L83.8731 163.104L81.9313 168.538L79.9895 173.972L85.4236 175.914L83.4817 181.348L81.5399 186.782L76.1058 184.84L70.6717 182.899L72.6135 177.465L67.1795 175.523L61.7454 173.581L56.3113 171.639L50.8774 169.697L45.4432 167.755L40.0091 165.814L34.5752 163.872L29.1411 161.93L23.7071 159.988L18.273 158.046L12.8389 156.104L10.8971 161.538L5.46314 159.596L0.00127804 157.645L1.94309 152.211L3.88496 146.777L9.34683 148.728L11.2887 143.294L13.2305 137.86L15.1724 132.426L17.1143 126.992L19.0561 121.558L20.9979 116.124L22.9398 110.69L24.8816 105.256L26.8334 99.7945L32.2674 101.736L37.7015 103.678L35.7497 109.14L33.8079 114.574Z" fill="#1D1D1D"/>
<path d="M48.5698 107.563L43.1358 105.621L37.7017 103.68L39.6435 98.2456L41.5853 92.8115L47.0194 94.7535L52.4534 96.6953L50.5115 102.129L48.5698 107.563Z" fill="#1D1D1D"/>
<path d="M62.1628 69.5205L60.221 74.9538L58.2792 80.3873L52.8452 78.4457L47.4111 76.504L49.353 71.0705L51.2948 65.6373L56.7289 67.5789L62.1628 69.5205Z" fill="#1D1D1D"/>
<path d="M60.6129 56.7092L66.0469 58.6514L64.1051 64.0862L58.6711 62.144L60.6129 56.7092Z" fill="#1D1D1D"/>
<path d="M38.8496 134.76L44.2837 136.701L42.3418 142.135L36.9077 140.193L38.8496 134.76Z" fill="#1D1D1D"/>
<path d="M64.1042 64.0862L69.5383 66.0283L67.5965 71.4631L62.1624 69.521L64.1042 64.0862Z" fill="#1D1D1D"/>
<path d="M67.9883 53.2195L73.4224 55.1611L71.4805 60.5945L66.0464 58.6529L67.9883 53.2195Z" fill="#1D1D1D"/>
<path d="M46.2279 131.263L51.6619 133.205L49.7201 138.638L44.2861 136.697L46.2279 131.263Z" fill="#1D1D1D"/>
<path d="M69.1477 84.2734L67.2058 89.7075L65.264 95.1414L63.3221 100.575L57.8882 98.6337L52.4541 96.6918L54.396 91.2577L56.3378 85.8238L58.2796 80.3898L63.7138 82.3316L69.1477 84.2734Z" fill="#1D1D1D"/>
<path d="M71.4814 60.594L76.9153 62.5361L74.9735 67.9709L69.5396 66.0288L71.4814 60.594Z" fill="#1D1D1D"/>
<path d="M49.7182 138.64L55.1523 140.582L53.2105 146.015L47.7764 144.074L49.7182 138.64Z" fill="#1D1D1D"/>
<path d="M53.6023 127.777L59.0364 129.719L57.0945 135.154L51.6604 133.211L53.6023 127.777Z" fill="#1D1D1D"/>
<path d="M57.4878 116.902L62.9219 118.844L60.9801 124.279L55.546 122.336L57.4878 116.902Z" fill="#1D1D1D"/>
<path d="M61.3799 106.011L66.814 107.953L64.8722 113.386L59.4381 111.445L61.3799 106.011Z" fill="#1D1D1D"/>
<path d="M71.0908 78.8357L76.5249 80.7773L74.583 86.2107L69.1489 84.2691L71.0908 78.8357Z" fill="#1D1D1D"/>
<path d="M74.9731 67.9709L80.4072 69.9131L78.4654 75.3479L73.0313 73.4058L74.9731 67.9709Z" fill="#1D1D1D"/>
<path d="M78.8574 57.1043L84.2915 59.0459L82.3496 64.4793L76.9155 62.5376L78.8574 57.1043Z" fill="#1D1D1D"/>
<path d="M57.0949 135.146L62.5291 137.088L60.5872 142.523L55.1531 140.58L57.0949 135.146Z" fill="#1D1D1D"/>
<path d="M68.7551 102.518L70.697 97.0839L72.6388 91.65L74.5807 86.2159L80.0148 88.1578L85.4487 90.0996L83.5069 95.5337L81.565 100.968L79.6232 106.402L74.1892 104.46L68.7551 102.518Z" fill="#1D1D1D"/>
<path d="M82.3488 64.4787L87.783 66.4209L85.8411 71.8557L80.407 69.9135L82.3488 64.4787Z" fill="#1D1D1D"/>
<path d="M60.5864 142.525L66.0203 144.467L64.0784 149.9L58.6445 147.959L60.5864 142.525Z" fill="#1D1D1D"/>
<path d="M85.8409 71.8567L91.2749 73.7988L89.333 79.2337L83.899 77.2916L85.8409 71.8567Z" fill="#1D1D1D"/>
<path d="M89.7251 60.9852L95.1589 62.9268L93.2171 68.3602L87.7832 66.4186L89.7251 60.9852Z" fill="#1D1D1D"/>
<path d="M75.7396 117.271L77.6814 111.837L79.6232 106.403L85.0573 108.345L90.4915 110.287L88.5496 115.721L86.6078 121.155L81.1737 119.213L75.7396 117.271Z" fill="#1D1D1D"/>
<path d="M89.333 79.2314L94.7671 81.1733L100.201 83.1152L98.2594 88.5491L96.3175 93.9832L90.8834 92.0413L85.4493 90.0994L87.3912 84.6653L89.333 79.2314Z" fill="#1D1D1D"/>
<path d="M93.2165 68.362L98.6506 70.3037L96.7088 75.737L91.2747 73.7954L93.2165 68.362Z" fill="#1D1D1D"/>
</svg>
