<svg width="109" height="76" viewBox="0 0 109 76" fill="none" xmlns="http://www.w3.org/2000/svg">
<path d="M24.8294 2.50942L19.8999 1.67285L19.0628 6.60679L23.9923 7.44336L24.8294 2.50942Z" fill="#F3B2D9"/>
<path d="M93.843 14.2207L93.0059 19.1538L97.9354 19.9902L98.7725 15.0571L93.843 14.2207Z" fill="#F3B2D9"/>
<path d="M19.0636 6.60308L14.134 5.7666L10.7868 25.4926L15.7163 26.3291L19.0636 6.60308Z" fill="#F3B2D9"/>
<path d="M97.936 19.986L94.5887 39.7123L99.5182 40.5488L102.862 20.8218L97.9321 19.9854L97.936 19.986Z" fill="#F3B2D9"/>
<path d="M10.7867 25.4918L5.85718 24.6553L4.18356 34.5189L9.11309 35.3555L10.7867 25.4918Z" fill="#F3B2D9"/>
<path d="M60.082 33.8565L50.2229 32.1836L49.3858 37.117L59.2448 38.7899L60.082 33.8565Z" fill="#F3B2D9"/>
<path d="M104.448 41.3853L99.5183 40.5488L97.8447 50.4116L102.774 51.248L104.448 41.3853Z" fill="#F3B2D9"/>
<path d="M39.5269 35.4441L14.8792 31.2617L14.042 36.1953L38.6897 40.3777L39.5269 35.4441Z" fill="#F3B2D9"/>
<path d="M49.3858 37.1168L44.4563 36.2803L43.6192 41.2142L48.5487 42.0508L49.3858 37.1168Z" fill="#F3B2D9"/>
<path d="M63.3381 44.5557L64.1752 39.6226L59.2456 38.7861L58.4085 43.7192L63.3381 44.5557Z" fill="#F3B2D9"/>
<path d="M93.7517 44.6453L69.104 40.4629L68.2669 45.3963L92.9145 49.5786L93.7517 44.6453Z" fill="#F3B2D9"/>
<path d="M10.6953 55.917L14.0426 36.191L9.11304 35.3545L5.7658 55.0805L10.6953 55.917Z" fill="#F3B2D9"/>
<path d="M40.2727 60.9365L43.62 41.2105L38.6904 40.374L35.3432 60.1L40.2727 60.9365Z" fill="#F3B2D9"/>
<path d="M64.9165 65.1182L68.2638 45.3921L63.3342 44.5557L59.987 64.2817L64.9165 65.1182Z" fill="#F3B2D9"/>
<path d="M94.4976 70.1377L97.8448 50.4117L92.9153 49.5752L89.568 69.3012L94.4976 70.1377Z" fill="#F3B2D9"/>
<path d="M27.9947 43.6304L23.0652 42.7939L22.2281 47.7271L27.1576 48.5635L27.9947 43.6304Z" fill="#F3B2D9"/>
<path d="M82.2196 52.8316L77.29 51.9951L76.453 56.9282L81.3825 57.7647L82.2196 52.8316Z" fill="#F3B2D9"/>
<path d="M22.2288 47.7232L17.2993 46.8867L16.4621 51.8206L21.3916 52.6571L22.2288 47.7232Z" fill="#F3B2D9"/>
<path d="M76.4538 56.9245L71.5242 56.0879L70.687 61.0218L75.6166 61.8584L76.4538 56.9245Z" fill="#F3B2D9"/>
<path d="M9.85965 60.8428L34.5073 65.0254L35.3445 60.0918L10.6961 55.913L9.85899 60.8467L9.85965 60.8428Z" fill="#F3B2D9"/>
<path d="M64.0806 70.0435L88.7282 74.2258L89.5653 69.2927L64.9177 65.1104L64.0806 70.0435Z" fill="#F3B2D9"/>
</svg>
