<svg width="115" height="93" viewBox="0 0 115 93" fill="none" xmlns="http://www.w3.org/2000/svg">
<path d="M13.9654 31.0237L9.3103 32.8486L11.1368 37.5078L15.792 35.6829L13.9654 31.0237Z" fill="#F3B2D9"/>
<path d="M79.1365 5.47461L80.9628 10.1333L85.6179 8.3084L83.7915 3.6497L79.1365 5.47461Z" fill="#F3B2D9"/>
<path d="M11.1353 37.5042L6.48022 39.3291L13.7826 57.9564L18.4377 56.1315L11.1353 37.5042Z" fill="#F3B2D9"/>
<path d="M85.6164 8.30521L92.919 26.933L97.5741 25.108L90.2679 6.48173L85.6128 8.30664L85.6164 8.30521Z" fill="#F3B2D9"/>
<path d="M13.7826 57.9563L9.12756 59.7812L12.7788 69.0951L17.4339 67.2702L13.7826 57.9563Z" fill="#F3B2D9"/>
<path d="M60.3333 39.7076L51.0232 43.3574L52.8495 48.0161L62.1597 44.3663L60.3333 39.7076Z" fill="#F3B2D9"/>
<path d="M102.229 23.2825L97.574 25.1074L101.225 34.4213L105.88 32.5964L102.229 23.2825Z" fill="#F3B2D9"/>
<path d="M43.5396 51.6654L20.264 60.79L22.0905 65.449L45.3661 56.3244L43.5396 51.6654Z" fill="#F3B2D9"/>
<path d="M52.8495 48.0159L48.1945 49.8408L50.0208 54.4995L54.6759 52.6746L52.8495 48.0159Z" fill="#F3B2D9"/>
<path d="M68.6397 47.1961L66.8134 42.5374L62.1583 44.3623L63.9847 49.021L68.6397 47.1961Z" fill="#F3B2D9"/>
<path d="M94.7452 31.5913L71.4698 40.7158L73.2962 45.3745L96.5715 36.25L94.7452 31.5913Z" fill="#F3B2D9"/>
<path d="M29.3914 84.0729L22.089 65.4456L17.434 67.2705L24.7364 85.8978L29.3914 84.0729Z" fill="#F3B2D9"/>
<path d="M57.322 73.1237L50.0195 54.4964L45.3644 56.3213L52.6669 74.9486L57.322 73.1237Z" fill="#F3B2D9"/>
<path d="M80.5938 64.0005L73.2912 45.3723L68.6361 47.1973L75.9387 65.8254L80.5938 64.0005Z" fill="#F3B2D9"/>
<path d="M108.528 53.0485L101.225 34.4212L96.5702 36.2461L103.873 54.8734L108.528 53.0485Z" fill="#F3B2D9"/>
<path d="M37.8791 64.6253L33.224 66.4502L35.0505 71.1094L39.7057 69.2844L37.8791 64.6253Z" fill="#F3B2D9"/>
<path d="M89.0849 44.5511L84.4298 46.376L86.2561 51.0347L90.9112 49.2098L89.0849 44.5511Z" fill="#F3B2D9"/>
<path d="M35.049 71.1058L30.3939 72.9307L32.2203 77.5894L36.8753 75.7645L35.049 71.1058Z" fill="#F3B2D9"/>
<path d="M86.2548 51.0315L81.5997 52.8564L83.4261 57.5151L88.0811 55.6902L86.2548 51.0315Z" fill="#F3B2D9"/>
<path d="M31.215 88.7241L54.4904 79.5996L52.664 74.9409L29.3901 84.0691L31.2164 88.7278L31.215 88.7241Z" fill="#F3B2D9"/>
<path d="M82.4172 68.6519L105.693 59.5273L103.866 54.8686L80.5908 63.9932L82.4172 68.6519Z" fill="#F3B2D9"/>
</svg>
