<svg width="155" height="147" viewBox="0 0 155 147" fill="none" xmlns="http://www.w3.org/2000/svg">
<path d="M81.4792 0H73.2798V15.7959H81.4792V0Z" fill="#9FBAF1"/>
<path d="M0 77.5998H15.7959V69.4004H0V77.5998Z" fill="#9FBAF1"/>
<path d="M73.2925 146.999H81.4919V131.203H73.2925V146.999Z" fill="#9FBAF1"/>
<path d="M138.976 69.4004V77.5998H154.343V69.4004H138.976Z" fill="#9FBAF1"/>
<path d="M127.091 23.3179H119.548V31.3098H127.714V23.6462H135.257V15.6543H127.091V23.3179Z" fill="#9FBAF1"/>
<path d="M127.52 115.637H119.548V123.783H127.286V131.379H135.257V123.32H127.52V115.637Z" fill="#9FBAF1"/>
<path d="M27.111 31.3103H34.7611V23.1979H27.5732V15.6348H19.5613V23.6601H27.1042V31.2901L27.111 31.3103Z" fill="#9FBAF1"/>
<path d="M27.0976 123.321H19.5344V131.333H27.5597V123.79H34.761V115.711H27.0773V123.328L27.0976 123.321Z" fill="#9FBAF1"/>
<path d="M122.564 100.081H127.38V90.1867H132.217V56.5589H127.742V47.3011H122.925V42.4845H118.417V37.668H113.6V32.8849H108.784V28.0684H98.8897V23.4863H55.6549V27.7066H46.3971V32.5231H41.5806V37.3062H36.7641V42.1227H31.981V46.9392H27.1645V56.5789H22.3279V90.2068H26.8028V99.7393H31.6193V104.556H36.4024V109.372H41.2189V114.155H46.0354V118.972H55.6752V123.554H98.91V119.334H108.443V114.517H113.259V109.734H118.076V104.918H122.584V100.101L122.564 100.081ZM122.396 99.2034H117.834V104.02H113.051V108.803H108.268V113.62H98.6283V118.356H65.791V113.968H56.1513V109.151H51.643V104.368H46.8599V99.5851H42.0433V90.2201H37.3073V57.1068H41.695V47.7953H46.5116V42.9787H51.2946V38.1957H55.803V33.3791H65.4427V28.6431H98.28V33.0308H107.866V37.8474H112.683V42.6304H117.466V47.4135H122.028V57.0533H126.764V89.8905H122.376V99.202L122.396 99.2034Z" fill="#9FBAF1"/>
<path d="M113.205 51.9633H108.422V47.1802H103.639V42.3637H94.0195V37.7012H69.9763V42.4707H60.3903V47.2872H55.5737V52.0703H51.0654V61.3818H46.3828V85.6856H51.1189V95.0506H55.6809V99.8337H60.4974V104.65H70.0835V109.299H94.1267V104.563H103.713V99.78H108.529V94.9635H113.312V85.5985H118.008V61.3358H113.205L113.205 51.9633ZM112.931 85.2979H108.248V94.6629H103.465V99.4794H93.8453V104.215H70.3321V99.553H60.746V94.7365H55.9295V85.425H51.4345V61.7111H55.8557V52.3461H60.6388V47.5295H70.2585V42.7934H93.7717V47.456H103.358V52.2725H108.174V61.584H112.924V85.2979H112.931Z" fill="#9FBAF1"/>
<path d="M89.2101 70.9285H84.7486V61.7175H89.0024V66.3464H93.9395V61.3222H89.2034V56.7602H84.7285V52.0977H79.6038V56.8672H74.7873V61.4292H70.0913V71.2699H74.8945V76.0865H79.6305V85.4515H75.1356V80.7154H70.1114V85.7396H74.9145V90.489H79.6305V94.9103H84.7552V90.3818H89.3173V85.6123H93.9999V75.7716H89.2168V70.9551L89.2101 70.9285ZM79.6441 70.9285H75.2028V61.7175H79.6441V70.9285ZM88.9019 85.4382H84.7686V76.0732H88.9019V85.4382Z" fill="#9FBAF1"/>
</svg>
