<svg width="188" height="202" viewBox="0 0 188 202" fill="none" xmlns="http://www.w3.org/2000/svg">
<mask id="path-1-outside-1_405_11162" maskUnits="userSpaceOnUse" x="-12.0196" y="0.218794" width="212.764" height="212.764" fill="black">
<rect fill="white" x="-12.0196" y="0.218794" width="212.764" height="212.764"/>
<path d="M26.6646 143.475L37.015 141.143L47.3654 138.812L57.7158 136.481L55.3844 126.13L65.7348 123.799L76.0852 121.467L73.7538 111.117L84.1042 108.786L81.7727 98.4353L79.4413 88.0849L69.0909 90.4163L66.7595 80.066L56.4091 82.3974L46.0587 84.7288L43.7273 74.3785L33.3769 76.7099L23.0265 79.0413L20.6951 68.691L10.3447 71.0224L8.0133 60.672L5.68189 50.3217L16.0323 47.9902L26.3827 45.6588L28.7141 56.0092L39.0645 53.6778L49.4149 51.3463L59.7653 49.0149L62.0967 59.3653L72.4471 57.0339L82.7975 54.7024L93.1479 52.371L95.4793 62.7214L105.83 60.3899L116.18 58.0585L113.849 47.7082L124.199 45.3767L121.868 35.0264L132.218 32.695L129.887 22.3446L140.237 20.0132L137.906 9.66284L148.256 7.33142L158.606 5L160.938 15.3504L163.269 25.7007L152.919 28.0321L155.25 38.3825L144.9 40.7139L147.231 51.0643L136.881 53.3957L139.212 63.746L128.862 66.0775L131.193 76.4278L133.525 86.7782L143.875 84.4467L146.207 94.7971L148.538 105.147L150.869 115.498L161.22 113.166L163.551 123.517L165.883 133.867L168.214 144.217L178.564 141.886L180.896 152.236L183.227 162.587L172.877 164.918L162.526 167.25L160.195 156.899L157.864 146.549L147.513 148.88L145.182 138.53L134.831 140.861L132.5 130.511L130.169 120.161L119.818 122.492L117.487 112.142L107.136 114.473L96.786 116.805L99.1174 127.155L88.767 129.486L91.0984 139.837L93.4298 150.187L83.0794 152.518L85.4108 162.869L87.7422 173.219L90.0736 183.57L92.405 193.92L82.0546 196.251L79.7232 185.901L77.3918 175.551L67.0414 177.882L64.71 167.532L62.3786 157.181L52.0282 159.513L41.6778 161.844L39.3464 151.494L28.996 153.825L18.6456 156.157L16.3142 145.806L26.6646 143.475Z"/>
</mask>
<path d="M26.6646 143.475L37.015 141.143L47.3654 138.812L57.7158 136.481L55.3844 126.13L65.7348 123.799L76.0852 121.467L73.7538 111.117L84.1042 108.786L81.7727 98.4353L79.4413 88.0849L69.0909 90.4163L66.7595 80.066L56.4091 82.3974L46.0587 84.7288L43.7273 74.3785L33.3769 76.7099L23.0265 79.0413L20.6951 68.691L10.3447 71.0224L8.0133 60.672L5.68189 50.3217L16.0323 47.9902L26.3827 45.6588L28.7141 56.0092L39.0645 53.6778L49.4149 51.3463L59.7653 49.0149L62.0967 59.3653L72.4471 57.0339L82.7975 54.7024L93.1479 52.371L95.4793 62.7214L105.83 60.3899L116.18 58.0585L113.849 47.7082L124.199 45.3767L121.868 35.0264L132.218 32.695L129.887 22.3446L140.237 20.0132L137.906 9.66284L148.256 7.33142L158.606 5L160.938 15.3504L163.269 25.7007L152.919 28.0321L155.25 38.3825L144.9 40.7139L147.231 51.0643L136.881 53.3957L139.212 63.746L128.862 66.0775L131.193 76.4278L133.525 86.7782L143.875 84.4467L146.207 94.7971L148.538 105.147L150.869 115.498L161.22 113.166L163.551 123.517L165.883 133.867L168.214 144.217L178.564 141.886L180.896 152.236L183.227 162.587L172.877 164.918L162.526 167.25L160.195 156.899L157.864 146.549L147.513 148.88L145.182 138.53L134.831 140.861L132.5 130.511L130.169 120.161L119.818 122.492L117.487 112.142L107.136 114.473L96.786 116.805L99.1174 127.155L88.767 129.486L91.0984 139.837L93.4298 150.187L83.0794 152.518L85.4108 162.869L87.7422 173.219L90.0736 183.57L92.405 193.92L82.0546 196.251L79.7232 185.901L77.3918 175.551L67.0414 177.882L64.71 167.532L62.3786 157.181L52.0282 159.513L41.6778 161.844L39.3464 151.494L28.996 153.825L18.6456 156.157L16.3142 145.806L26.6646 143.475Z" stroke="#FDFDF5" stroke-width="8" mask="url(#path-1-outside-1_405_11162)"/>
</svg>
