<svg width="60" height="60" viewBox="0 0 60 60" fill="none" xmlns="http://www.w3.org/2000/svg">
<path d="M56.25 37.5H52.5H48.75H45V33.75H41.25H37.5V30H33.75V26.25V22.5H37.5V18.75H41.25H45V15H48.75H52.5V11.25H56.25V7.5V3.75H52.5H48.75V7.5H45H41.25H37.5V11.25H33.75H30H26.25V15H22.5H18.75V11.25H15V7.5H11.25V3.75H7.5V0H3.75H0V3.75V7.5H3.75V11.25H7.5V15H11.25V18.75H15V22.5V26.25H11.25V30V33.75V37.5H7.5V41.25V45V48.75H3.75V52.5V56.25H7.5H11.25V52.5V48.75H15V45H18.75V41.25V37.5H22.5V33.75H26.25H30V37.5H33.75V41.25V45H37.5V48.75V52.5V56.25V60H41.25V56.25V52.5H45V48.75V45H48.75H52.5V41.25H56.25H60V37.5H56.25Z" fill="#FDFDF5"/>
</svg>
