<svg width="86" height="80" viewBox="0 0 86 80" fill="none" xmlns="http://www.w3.org/2000/svg">
<path d="M79.4018 30.6958L78.7128 33.5024L75.8965 32.8111L75.2003 35.6469L78.0167 36.3382L68.3327 75.787L71.1588 76.4808L82.2279 31.3895L79.4018 30.6958Z" fill="#7280E5"/>
<path d="M68.3327 75.7865L3.50732 59.873L2.81595 62.6894L67.6413 78.6029L68.3327 75.7865Z" fill="#7280E5"/>
<path d="M75.1997 35.6472L72.3833 34.9558L70.3092 43.405L73.1256 44.0963L75.1997 35.6472Z" fill="#7280E5"/>
<path d="M70.3095 43.4043L67.4932 42.7129L66.108 48.3554L68.9244 49.0467L70.3095 43.4043Z" fill="#7280E5"/>
<path d="M49.1929 44.1931L49.8843 41.3767L47.0679 40.6853L44.9914 49.1442L47.8078 49.8355L48.5015 47.0094L65.4192 51.1624L66.1106 48.3461L49.1929 44.1931Z" fill="#7280E5"/>
<path d="M44.9912 49.1452L42.1748 48.4539L41.4834 51.2702L44.2998 51.9616L44.9912 49.1452Z" fill="#7280E5"/>
<path d="M41.4834 51.2685L38.667 50.5771L37.9732 53.4032L40.7896 54.0946L41.4834 51.2685Z" fill="#7280E5"/>
<path d="M47.7591 37.8685L39.3003 35.792L38.6065 38.6181L47.0654 40.6946L47.7591 37.8685Z" fill="#7280E5"/>
<path d="M39.3583 47.7624L36.5322 47.0686L35.8409 49.885L38.6669 50.5787L39.3583 47.7624Z" fill="#7280E5"/>
<path d="M38.6087 38.6088L35.7923 37.9175L35.1009 40.7339L18.1929 36.5832L17.5015 39.3996L34.4095 43.5502L33.7158 46.3763L36.5322 47.0677L38.6087 38.6088Z" fill="#7280E5"/>
<path d="M65.9527 12.4536L34.9434 4.84131L34.252 7.65769L65.2613 15.2699L65.9527 12.4536Z" fill="#7280E5"/>
<path d="M19.5761 30.9502L16.7598 30.2588L15.3746 35.9013L18.191 36.5926L19.5761 30.9502Z" fill="#7280E5"/>
<path d="M18.8334 21.8102L16.0073 21.1165L13.9332 29.5656L16.7593 30.2594L18.8334 21.8102Z" fill="#7280E5"/>
<path d="M79.4012 30.6963L80.0926 27.8799L66.001 24.4207L68.0775 15.9618L65.2611 15.2704L63.1846 23.7293L60.3682 23.0379L61.7533 17.3955L36.3865 11.1683L35.0013 16.8108L32.1752 16.117L34.2517 7.65819L31.4354 6.96682L29.3589 15.4257L15.2672 11.9664L14.5759 14.7828L79.4012 30.6963ZM38.5091 14.6858L58.2335 19.5278L57.5421 22.3442L37.8177 17.5022L38.5091 14.6858Z" fill="#7280E5"/>
<path d="M13.191 20.4247L16.0074 21.116L16.7035 18.2802L13.8872 17.5889L14.5761 14.7822L11.7598 14.0908L0.690646 59.1821L3.50703 59.8734L13.191 20.4247Z" fill="#7280E5"/>
</svg>
