<svg width="1851" height="265" viewBox="0 0 1851 265" fill="none" xmlns="http://www.w3.org/2000/svg">
<path d="M1582.66 265V35.1155H1618.6V0H1670.47V35.1155H1706.82V104.938H1726.84V35.1155H1763.19V0H1815.47V35.1155H1851V265H1799.54V55.9399H1779.12V125.354H1742.77V230.293H1690.9V125.354H1654.55V55.9399H1634.53V265H1582.66Z" fill="#9FBAF1"/>
<path d="M1336.57 265V69.8228H1372.51V35.1155H1408.45V0H1460.73V35.1155H1496.67V69.8228H1533.02V265H1480.74V195.177H1388.44V265H1336.57ZM1388.44 139.237H1480.74V90.6472H1444.8V55.9399H1424.38V90.6472H1388.44V139.237Z" fill="#9FBAF1"/>
<path d="M1126.42 265V230.293H1090.47V35.1155H1126.42V0H1250.58V35.1155H1286.93V90.6472H1234.65V55.9399H1142.34V104.938H1214.64V160.062H1142.34V209.468H1234.65V174.353H1286.93V230.293H1250.58V265H1126.42Z" fill="#9FBAF1"/>
<path d="M928.627 265V55.9399H908.614V90.6472H856.744V35.1155H892.685V0H1016.85V35.1155H1053.2V90.6472H1000.92V55.9399H980.906V265H928.627Z" fill="#9FBAF1"/>
<path d="M564.826 265V230.293H528.884V174.353H580.754V209.468H673.059V160.062H564.826V125.354H528.884V35.1155H564.826V0H688.988V35.1155H725.338V90.6472H673.059V55.9399H580.754V104.938H688.988V139.237H725.338V230.293H688.988V265H564.826Z" fill="#9FBAF1"/>
<path d="M282.036 265V230.293H246.095V174.353H282.036V139.237H317.978V125.354H282.036V90.6472H246.095V35.1155H282.036V0H406.199V35.1155H442.549V90.6472H406.199V125.354H370.257V139.237H406.199V174.353H442.549V209.468H478.899V265H426.62V230.293H406.199V265H282.036ZM297.965 209.468H390.27V195.177H354.328V160.062H333.907V195.177H297.965V209.468ZM333.907 104.938H354.328V69.8228H390.27V55.9399H297.965V69.8228H333.907V104.938Z" fill="#9FBAF1"/>
<path d="M35.9417 265V230.293H0V35.1155H35.9417V0H160.104V35.1155H196.454V125.354H144.175V55.9399H51.8705V209.468H144.175V195.177H108.234V160.062H71.8835V104.938H124.162V139.237H196.454V230.293H160.104V265H35.9417Z" fill="#9FBAF1"/>
</svg>
