<svg width="106" height="106" viewBox="0 0 106 106" fill="none" xmlns="http://www.w3.org/2000/svg">
<path d="M69.4569 84.0987L65.1592 86.0258L67.0863 90.3235L71.384 88.3964L69.4569 84.0987Z" fill="#9FBAF1"/>
<path d="M93.2928 68.2602L88.9951 70.1874L90.9223 74.4851L95.22 72.5579L93.2928 68.2602Z" fill="#9FBAF1"/>
<path d="M71.8226 77.8877L67.5249 79.8148L69.4521 84.1125L73.7498 82.1854L71.8226 77.8877Z" fill="#9FBAF1"/>
<path d="M67.534 79.8108L63.2363 81.738L65.1635 86.0357L69.4612 84.1085L67.534 79.8108Z" fill="#9FBAF1"/>
<path d="M63.2362 81.7379L58.9385 83.6651L60.8656 87.9628L65.1633 86.0357L63.2362 81.7379Z" fill="#9FBAF1"/>
<path d="M41.7664 91.3655L37.4688 93.2926L39.3959 97.5903L43.6936 95.6632L41.7664 91.3655Z" fill="#9FBAF1"/>
<path d="M95.6639 62.0363L91.3662 63.9635L93.2934 68.2612L97.5911 66.334L95.6639 62.0363Z" fill="#9FBAF1"/>
<path d="M91.3661 63.9634L87.0684 65.8906L88.9955 70.1883L93.2932 68.2611L91.3661 63.9634Z" fill="#9FBAF1"/>
<path d="M87.078 65.8864L82.7803 67.8135L84.7074 72.1112L89.0051 70.1841L87.078 65.8864Z" fill="#9FBAF1"/>
<path d="M69.8958 73.5909L65.5981 75.5181L67.5253 79.8158L71.823 77.8886L69.8958 73.5909Z" fill="#9FBAF1"/>
<path d="M61.3094 77.4412L57.0117 79.3683L58.9389 83.666L63.2366 81.7389L61.3094 77.4412Z" fill="#9FBAF1"/>
<path d="M44.1371 85.1416L39.8394 87.0687L41.7665 91.3664L46.0642 89.4393L44.1371 85.1416Z" fill="#9FBAF1"/>
<path d="M39.8397 87.0687L35.542 88.9958L37.4691 93.2935L41.7668 91.3664L39.8397 87.0687Z" fill="#9FBAF1"/>
<path d="M35.5506 88.9918L31.2529 90.919L33.1801 95.2167L37.4778 93.2895L35.5506 88.9918Z" fill="#9FBAF1"/>
<path d="M93.7401 57.7468L89.4424 59.674L91.3695 63.9716L95.6672 62.0445L93.7401 57.7468Z" fill="#9FBAF1"/>
<path d="M85.1541 61.5968L80.8564 63.524L82.7836 67.8217L87.0813 65.8945L85.1541 61.5968Z" fill="#9FBAF1"/>
<path d="M72.2704 67.3743L67.9727 69.3014L69.8998 73.5991L74.1975 71.672L72.2704 67.3743Z" fill="#9FBAF1"/>
<path d="M67.9725 69.3014L63.6748 71.2285L65.602 75.5262L69.8997 73.5991L67.9725 69.3014Z" fill="#9FBAF1"/>
<path d="M63.6839 71.2245L59.3862 73.1517L61.3134 77.4494L65.6111 75.5222L63.6839 71.2245Z" fill="#9FBAF1"/>
<path d="M59.3861 73.1517L55.0884 75.0788L57.0155 79.3765L61.3132 77.4494L59.3861 73.1517Z" fill="#9FBAF1"/>
<path d="M55.098 75.0746L50.8003 77.0018L52.7274 81.2995L57.0251 79.3723L55.098 75.0746Z" fill="#9FBAF1"/>
<path d="M42.2137 80.8521L37.916 82.7792L39.8432 87.0769L44.1409 85.1498L42.2137 80.8521Z" fill="#9FBAF1"/>
<path d="M33.6273 84.7023L29.3296 86.6295L31.2567 90.9272L35.5544 89L33.6273 84.7023Z" fill="#9FBAF1"/>
<path d="M96.1024 51.5269L91.8047 53.454L93.7318 57.7517L98.0295 55.8246L96.1024 51.5269Z" fill="#9FBAF1"/>
<path d="M91.8133 53.45L87.5156 55.3772L89.4428 59.6749L93.7405 57.7477L91.8133 53.45Z" fill="#9FBAF1"/>
<path d="M87.516 55.3772L83.2183 57.3043L85.1454 61.602L89.4431 59.6749L87.516 55.3772Z" fill="#9FBAF1"/>
<path d="M83.2274 57.3001L78.9297 59.2272L80.8568 63.5249L85.1545 61.5978L83.2274 57.3001Z" fill="#9FBAF1"/>
<path d="M78.93 59.2272L74.6323 61.1544L76.5595 65.4521L80.8572 63.5249L78.93 59.2272Z" fill="#9FBAF1"/>
<path d="M74.6317 61.1545L70.334 63.0817L72.2611 67.3794L76.5588 65.4522L74.6317 61.1545Z" fill="#9FBAF1"/>
<path d="M48.8729 72.7052L44.5752 74.6324L46.5023 78.93L50.8 77.0029L48.8729 72.7052Z" fill="#9FBAF1"/>
<path d="M44.5755 74.6323L40.2778 76.5595L42.205 80.8572L46.5027 78.93L44.5755 74.6323Z" fill="#9FBAF1"/>
<path d="M40.287 76.5553L35.9893 78.4824L37.9164 82.7801L42.2141 80.853L40.287 76.5553Z" fill="#9FBAF1"/>
<path d="M35.9891 78.4824L31.6914 80.4095L33.6186 84.7072L37.9163 82.7801L35.9891 78.4824Z" fill="#9FBAF1"/>
<path d="M31.7005 80.4056L27.4028 82.3327L29.33 86.6304L33.6277 84.7032L31.7005 80.4056Z" fill="#9FBAF1"/>
<path d="M27.4027 82.3327L23.105 84.2598L25.0321 88.5575L29.3298 86.6304L27.4027 82.3327Z" fill="#9FBAF1"/>
<path d="M94.1746 47.2283L89.877 49.1555L91.8041 53.4532L96.1018 51.526L94.1746 47.2283Z" fill="#9FBAF1"/>
<path d="M72.7044 56.856L68.4067 58.7831L70.3339 63.0808L74.6316 61.1537L72.7044 56.856Z" fill="#9FBAF1"/>
<path d="M64.1185 60.7061L59.8208 62.6332L61.748 66.9309L66.0457 65.0038L64.1185 60.7061Z" fill="#9FBAF1"/>
<path d="M55.5321 64.5563L51.2344 66.4835L53.1615 70.7812L57.4592 68.854L55.5321 64.5563Z" fill="#9FBAF1"/>
<path d="M46.9456 68.4066L42.6479 70.3338L44.5751 74.6315L48.8728 72.7043L46.9456 68.4066Z" fill="#9FBAF1"/>
<path d="M25.4754 78.0341L21.1777 79.9613L23.1049 84.259L27.4026 82.3318L25.4754 78.0341Z" fill="#9FBAF1"/>
<path d="M87.9632 44.8636L83.6655 46.7908L85.5927 51.0885L89.8904 49.1613L87.9632 44.8636Z" fill="#9FBAF1"/>
<path d="M83.6654 46.7907L79.3677 48.7179L81.2948 53.0156L85.5925 51.0884L83.6654 46.7907Z" fill="#9FBAF1"/>
<path d="M70.7816 52.5681L66.4839 54.4953L68.411 58.793L72.7087 56.8658L70.7816 52.5681Z" fill="#9FBAF1"/>
<path d="M45.0228 64.1188L40.7251 66.0459L42.6522 70.3436L46.9499 68.4165L45.0228 64.1188Z" fill="#9FBAF1"/>
<path d="M32.139 69.896L27.8413 71.8232L29.7685 76.1208L34.0662 74.1937L32.139 69.896Z" fill="#9FBAF1"/>
<path d="M27.8504 71.8191L23.5527 73.7463L25.4799 78.044L29.7776 76.1168L27.8504 71.8191Z" fill="#9FBAF1"/>
<path d="M81.7381 42.4922L77.4404 44.4193L79.3676 48.717L83.6653 46.7899L81.7381 42.4922Z" fill="#9FBAF1"/>
<path d="M77.4496 44.4151L73.1519 46.3423L75.079 50.64L79.3767 48.7128L77.4496 44.4151Z" fill="#9FBAF1"/>
<path d="M68.8539 48.2696L64.5562 50.1967L66.4833 54.4944L70.781 52.5673L68.8539 48.2696Z" fill="#9FBAF1"/>
<path d="M57.9066 58.3413L53.6089 60.2685L55.536 64.5662L59.8337 62.639L57.9066 58.3413Z" fill="#9FBAF1"/>
<path d="M55.9793 54.0428L51.6816 55.9699L53.6088 60.2676L57.9065 58.3405L55.9793 54.0428Z" fill="#9FBAF1"/>
<path d="M43.0951 59.8202L38.7974 61.7474L40.7245 66.0451L45.0222 64.1179L43.0951 59.8202Z" fill="#9FBAF1"/>
<path d="M34.5091 63.6703L30.2114 65.5975L32.1386 69.8952L36.4363 67.968L34.5091 63.6703Z" fill="#9FBAF1"/>
<path d="M30.2113 65.5974L25.9136 67.5246L27.8407 71.8223L32.1384 69.8951L30.2113 65.5974Z" fill="#9FBAF1"/>
<path d="M75.5272 40.1273L71.2295 42.0544L73.1566 46.3521L77.4543 44.425L75.5272 40.1273Z" fill="#9FBAF1"/>
<path d="M71.2293 42.0544L66.9316 43.9815L68.8588 48.2792L73.1565 46.3521L71.2293 42.0544Z" fill="#9FBAF1"/>
<path d="M66.9315 43.9817L62.6338 45.9089L64.5609 50.2066L68.8586 48.2794L66.9315 43.9817Z" fill="#9FBAF1"/>
<path d="M41.1722 55.5324L36.8745 57.4595L38.8017 61.7572L43.0994 59.8301L41.1722 55.5324Z" fill="#9FBAF1"/>
<path d="M36.8748 57.4595L32.5771 59.3867L34.5043 63.6844L38.802 61.7572L36.8748 57.4595Z" fill="#9FBAF1"/>
<path d="M32.5863 59.3825L28.2886 61.3096L30.2157 65.6073L34.5134 63.6801L32.5863 59.3825Z" fill="#9FBAF1"/>
<path d="M69.3016 37.7558L65.0039 39.683L66.9311 43.9807L71.2288 42.0535L69.3016 37.7558Z" fill="#9FBAF1"/>
<path d="M65.0038 39.6832L60.7061 41.6103L62.6332 45.908L66.9309 43.9809L65.0038 39.6832Z" fill="#9FBAF1"/>
<path d="M52.1292 45.4564L47.8315 47.3835L49.7587 51.6812L54.0564 49.7541L52.1292 45.4564Z" fill="#9FBAF1"/>
<path d="M39.245 51.2338L34.9473 53.161L36.8744 57.4587L41.1721 55.5315L39.245 51.2338Z" fill="#9FBAF1"/>
<path d="M34.9471 53.161L30.6494 55.0881L32.5766 59.3858L36.8743 57.4587L34.9471 53.161Z" fill="#9FBAF1"/>
<path d="M63.0809 35.3954L58.7832 37.3225L60.7104 41.6202L65.0081 39.6931L63.0809 35.3954Z" fill="#9FBAF1"/>
<path d="M54.495 39.2455L50.1973 41.1726L52.1244 45.4703L56.4221 43.5432L54.495 39.2455Z" fill="#9FBAF1"/>
<path d="M45.9085 43.0957L41.6108 45.0229L43.538 49.3206L47.8357 47.3934L45.9085 43.0957Z" fill="#9FBAF1"/>
<path d="M37.3221 46.946L33.0244 48.8732L34.9516 53.1709L39.2493 51.2437L37.3221 46.946Z" fill="#9FBAF1"/>
<path d="M61.1537 31.0968L56.856 33.024L58.7831 37.3217L63.0808 35.3945L61.1537 31.0968Z" fill="#9FBAF1"/>
<path d="M48.2787 36.87L43.981 38.7972L45.9081 43.0949L50.2058 41.1677L48.2787 36.87Z" fill="#9FBAF1"/>
<path d="M35.3949 42.6475L31.0972 44.5746L33.0243 48.8723L37.322 46.9452L35.3949 42.6475Z" fill="#9FBAF1"/>
<path d="M59.2269 26.8001L54.9292 28.7272L56.8563 33.0249L61.154 31.0977L59.2269 26.8001Z" fill="#9FBAF1"/>
<path d="M33.4681 38.3507L29.1704 40.2778L31.0976 44.5755L35.3953 42.6484L33.4681 38.3507Z" fill="#9FBAF1"/>
<path d="M53.015 24.4333L48.7173 26.3605L50.6444 30.6582L54.9421 28.731L53.015 24.4333Z" fill="#9FBAF1"/>
<path d="M35.8426 32.1337L31.5449 34.0608L33.4721 38.3585L37.7698 36.4314L35.8426 32.1337Z" fill="#9FBAF1"/>
<path d="M51.0882 20.1365L46.7905 22.0637L48.7177 26.3614L53.0154 24.4342L51.0882 20.1365Z" fill="#9FBAF1"/>
<path d="M46.7904 22.0637L42.4927 23.9908L44.4198 28.2885L48.7175 26.3614L46.7904 22.0637Z" fill="#9FBAF1"/>
<path d="M42.5018 23.9868L38.2041 25.914L40.1313 30.2117L44.4289 28.2845L42.5018 23.9868Z" fill="#9FBAF1"/>
<path d="M38.2039 25.9139L33.9062 27.8411L35.8334 32.1388L40.1311 30.2116L38.2039 25.9139Z" fill="#9FBAF1"/>
<path d="M33.9159 27.8369L29.6182 29.7641L31.5453 34.0618L35.843 32.1346L33.9159 27.8369Z" fill="#9FBAF1"/>
<path d="M44.8675 17.7758L40.5698 19.703L42.497 24.0007L46.7947 22.0735L44.8675 17.7758Z" fill="#9FBAF1"/>
<path d="M40.5789 19.6989L36.2812 21.6261L38.2084 25.9238L42.5061 23.9966L40.5789 19.6989Z" fill="#9FBAF1"/>
<path d="M36.2811 21.6261L31.9834 23.5532L33.9105 27.8509L38.2082 25.9238L36.2811 21.6261Z" fill="#9FBAF1"/>
<path d="M38.6512 15.4004L34.3535 17.3275L36.2807 21.6252L40.5784 19.6981L38.6512 15.4004Z" fill="#9FBAF1"/>
</svg>
