<svg width="84" height="57" viewBox="0 0 84 57" fill="none" xmlns="http://www.w3.org/2000/svg">
<path d="M67.4474 46.637H62.2656V51.8188H67.4474V46.637Z" fill="#EAF3B2"/>
<path d="M15.6291 41.4549V36.2731H10.4473V41.4549V46.6367H15.6291V41.4549Z" fill="#EAF3B2"/>
<path d="M15.6294 31.0909V36.2727H20.8112V31.0909V25.9091H15.6294V31.0909Z" fill="#EAF3B2"/>
<path d="M67.4473 41.4549V46.6367H72.6291V41.4549V36.2731H67.4473V41.4549Z" fill="#EAF3B2"/>
<path d="M72.6289 31.0909V36.2727H77.8943V31.0909V25.9091H72.6289V31.0909Z" fill="#EAF3B2"/>
<path d="M77.8944 15.5455H72.629H67.4472H62.2654V10.3636V5.18182H57.0836H51.9018H46.7199H41.5381H36.3563H31.1745H25.9927V0H20.8109H15.629H10.4472H5.18182V5.18182H0V10.3636V15.5455V20.7273V25.9091V31.0909V36.2727V41.4545V46.6364V51.8182H5.18182V57H10.4472H15.629H20.8109H25.9927H31.1745H36.3563H41.5381H46.7199H51.9018H57.0836H62.2654V51.8182H57.0836H51.9018H46.7199H41.5381H36.3563H31.1745H25.9927H20.8109H15.629H10.4472V46.6364H5.18182V41.4545V36.2727V31.0909V25.9091V20.7273V15.5455V10.3636H10.4472V5.18182H15.629H20.8109V10.3636H25.9927H31.1745H36.3563H41.5381H46.7199H51.9018H57.0836V15.5455H51.9018H46.7199H41.5381H36.3563H31.1745H25.9927H20.8109V20.7273V25.9091H25.9927V20.7273H31.1745H36.3563H41.5381H46.7199H51.9018H57.0836H62.2654H67.4472H72.629H77.8944V25.9091H83.0762V20.7273V15.5455H77.8944Z" fill="#EAF3B2"/>
</svg>
