<svg width="819" height="126" viewBox="0 0 819 126" fill="none" xmlns="http://www.w3.org/2000/svg">
<path d="M700.271 125.244V16.5963H716.173V0H739.124V16.5963H755.208V49.596H764.063V16.5963H780.147V0H803.278V16.5963H819V125.244H796.23V26.4383H787.194V59.245H771.111V108.841H748.16V59.245H732.076V26.4383H723.221V125.244H700.271Z" fill="#3F4679"/>
<path d="M591.383 125.244V32.9996H607.286V16.5963H623.189V0H646.32V16.5963H662.223V32.9996H678.307V125.244H655.175V92.2446H614.334V125.244H591.383ZM614.334 65.8063H655.175V42.8416H639.272V26.4383H630.237V42.8416H614.334V65.8063Z" fill="#3F4679"/>
<path d="M498.398 125.244V108.841H482.495V16.5963H498.398V0H553.335V16.5963H569.419V42.8416H546.287V26.4383H505.445V49.596H537.432V75.6483H505.445V98.9989H546.287V82.4026H569.419V108.841H553.335V125.244H498.398Z" fill="#3F4679"/>
<path d="M410.884 125.244V26.4383H402.029V42.8416H379.078V16.5963H394.981V0H449.918V16.5963H466.002V42.8416H442.871V26.4383H434.016V125.244H410.884Z" fill="#3F4679"/>
<path d="M249.915 125.244V108.841H234.012V82.4026H256.963V98.9989H297.805V75.6483H249.915V59.245H234.012V16.5963H249.915V0H304.853V16.5963H320.936V42.8416H297.805V26.4383H256.963V49.596H304.853V65.8063H320.936V108.841H304.853V125.244H249.915Z" fill="#3F4679"/>
<path d="M124.791 125.244V108.841H108.888V82.4026H124.791V65.8063H140.694V59.245H124.791V42.8416H108.888V16.5963H124.791V0H179.728V16.5963H195.812V42.8416H179.728V59.245H163.825V65.8063H179.728V82.4026H195.812V98.9989H211.895V125.244H188.764V108.841H179.728V125.244H124.791ZM131.839 98.9989H172.68V92.2446H156.777V75.6483H147.741V92.2446H131.839V98.9989ZM147.741 49.596H156.777V32.9996H172.68V26.4383H131.839V32.9996H147.741V49.596Z" fill="#3F4679"/>
<path d="M15.9029 125.244V108.841H0V16.5965H15.9029V0.000244141H70.8403V16.5965H86.924V59.2452H63.7924V26.4385H22.9508V98.9992H63.7924V92.2448H47.8895V75.6485H31.8059V49.5962H54.9374V65.8065H86.924V108.841H70.8403V125.244H15.9029Z" fill="#3F4679"/>
</svg>
