<svg width="98" height="88" viewBox="0 0 98 88" fill="none" xmlns="http://www.w3.org/2000/svg">
<path d="M19.5546 4.88887V0H14.6657H9.77686V4.88887H14.6657H19.5546Z" fill="#EAF3B2"/>
<path d="M4.88887 9.7771H0V29.3326H4.88887V9.7771Z" fill="#EAF3B2"/>
<path d="M29.3332 9.7771H24.4443V14.666H29.3332V9.7771Z" fill="#EAF3B2"/>
<path d="M68.4435 14.6658H29.3325V19.5546H68.4435V14.6658Z" fill="#EAF3B2"/>
<path d="M29.3332 19.5542H24.4443V24.4431H29.3332V19.5542Z" fill="#EAF3B2"/>
<path d="M19.5553 29.3342H4.88867V34.2231H19.5553V29.3342Z" fill="#EAF3B2"/>
<path d="M24.4436 24.4456H19.5547V29.3344H24.4436V24.4456Z" fill="#EAF3B2"/>
<path d="M4.88887 34.2227H0V68.4448H4.88887V34.2227Z" fill="#EAF3B2"/>
<path d="M14.6657 73.334H9.77686V78.2229H14.6657V73.334Z" fill="#EAF3B2"/>
<path d="M19.5554 78.2227H14.6665V83.1115H19.5554V78.2227Z" fill="#EAF3B2"/>
<path d="M29.3332 45.6284H24.4443V50.5173H29.3332V45.6284Z" fill="#EAF3B2"/>
<path d="M43.9999 68.4456H34.2222V73.3344H43.9999V68.4456Z" fill="#EAF3B2"/>
<path d="M9.77754 4.88867H4.88867V9.77754H9.77754V4.88867Z" fill="#EAF3B2"/>
<path d="M24.4436 4.88867H19.5547V9.77754H24.4436V4.88867Z" fill="#EAF3B2"/>
<path d="M34.2214 58.6655H29.3325V68.4433H34.2214V58.6655Z" fill="#EAF3B2"/>
<path d="M9.77754 68.4456H4.88867V73.3344H9.77754V68.4456Z" fill="#EAF3B2"/>
<path d="M14.6657 43.9998H9.77686V48.8886H14.6657V43.9998Z" fill="#EAF3B2"/>
<path d="M19.5554 48.8884H14.6665V53.7773H19.5554V48.8884Z" fill="#EAF3B2"/>
<path d="M19.5546 58.6655H9.77686V63.5544H19.5546V58.6655Z" fill="#EAF3B2"/>
<path d="M97.7771 9.7771H92.8882V29.3326H97.7771V9.7771Z" fill="#EAF3B2"/>
<path d="M87.9994 4.88887V0H83.1106H78.2217V4.88887H83.1106H87.9994Z" fill="#EAF3B2"/>
<path d="M73.3327 9.7771H68.4438V14.666H73.3327V9.7771Z" fill="#EAF3B2"/>
<path d="M73.3327 19.5542H68.4438V24.4431H73.3327V19.5542Z" fill="#EAF3B2"/>
<path d="M92.8883 29.3342H78.2217V34.2231H92.8883V29.3342Z" fill="#EAF3B2"/>
<path d="M78.2214 24.4456H73.3325V29.3344H78.2214V24.4456Z" fill="#EAF3B2"/>
<path d="M87.9992 73.334H83.1104V78.2229H87.9992V73.334Z" fill="#EAF3B2"/>
<path d="M83.1106 78.2227H78.2217V83.1115H83.1106V78.2227Z" fill="#EAF3B2"/>
<path d="M78.2211 83.1111H19.5547V88H78.2211V83.1111Z" fill="#EAF3B2"/>
<path d="M73.3327 45.6284H68.4438V50.5173H73.3327V45.6284Z" fill="#EAF3B2"/>
<path d="M63.5546 68.4456H53.7769V73.3344H63.5546V68.4456Z" fill="#EAF3B2"/>
<path d="M53.7777 63.554H44V68.4428H53.7777V63.554Z" fill="#EAF3B2"/>
<path d="M92.8884 4.88867H87.9995V9.77754H92.8884V4.88867Z" fill="#EAF3B2"/>
<path d="M78.2214 4.88867H73.3325V9.77754H78.2214V4.88867Z" fill="#EAF3B2"/>
<path d="M68.4436 58.6655H63.5547V68.4433H68.4436V58.6655Z" fill="#EAF3B2"/>
<path d="M92.8884 68.4456H87.9995V73.3344H92.8884V68.4456Z" fill="#EAF3B2"/>
<path d="M97.7771 34.2227H92.8882V68.4448H97.7771V34.2227Z" fill="#EAF3B2"/>
<path d="M87.9992 43.9998H83.1104V48.8886H87.9992V43.9998Z" fill="#EAF3B2"/>
<path d="M83.1106 48.8884H78.2217V53.7773H83.1106V48.8884Z" fill="#EAF3B2"/>
<path d="M87.9994 58.6655H78.2217V63.5544H87.9994V58.6655Z" fill="#EAF3B2"/>
<path d="M58.6658 24.4456H39.1104V29.3344H58.6658V24.4456Z" fill="#EAF3B2"/>
<path d="M58.6658 34.2227H39.1104V39.1115H58.6658V34.2227Z" fill="#EAF3B2"/>
</svg>
