<svg width="170" height="28" viewBox="0 0 170 28" fill="none" xmlns="http://www.w3.org/2000/svg">
<path d="M162.574 1.3125H170L165.651 25.9473H158.578L160.665 14.0874L153.734 23.1671H153.097L149.066 13.6299L146.909 25.9473H139.837L144.186 1.3125H151.259L154.972 11.4128L162.574 1.3125Z" fill="#EAF3B2"/>
<path d="M138.417 25.9473H131.027L130.744 22.78H123.601L122.186 25.9473H114.372L126.607 1.3125H134.881L138.417 25.9473ZM129.506 9.58275L126.112 17.1492H130.213L129.506 9.58275Z" fill="#EAF3B2"/>
<path d="M117.49 1.3125L116.359 7.71755H107.342L106.882 10.3922H115.015L113.883 16.7268H105.75L105.255 19.4719H114.449L113.318 25.9473H97.0516L101.401 1.3125H117.49Z" fill="#EAF3B2"/>
<path d="M80.5449 1.3125H99.2862L98.084 8.13986H92.2494L89.1023 25.9473H82.0301L85.1772 8.13986H79.3427L80.5449 1.3125Z" fill="#EAF3B2"/>
<path d="M58.8682 26.511C56.2279 26.511 54.0709 25.9831 52.3971 24.9273C50.747 23.8481 49.6272 22.3113 49.0378 20.3171L55.1553 17.1849C55.9097 19.0619 57.3477 20.0003 59.4693 20.0003C61.1431 20.0003 62.0625 19.5663 62.2275 18.6982C62.3218 18.1351 62.0271 17.7011 61.3435 17.3961C60.9663 17.2084 60.6362 17.0676 60.3534 16.9738C60.0469 16.8565 59.1864 16.5867 57.772 16.1643C53.3872 14.6628 51.5367 11.9647 52.2203 8.07005C52.5975 5.88811 53.6819 4.11676 55.4735 2.75598C57.2416 1.41866 59.3986 0.75 61.9446 0.75C64.0663 0.75 65.8815 1.2427 67.3902 2.22809C68.8989 3.21348 70.0423 4.63291 70.8202 6.48639L64.8442 9.65372C64.2313 8.05832 63.1115 7.26062 61.4849 7.26062C60.2355 7.26062 59.5283 7.68294 59.3632 8.52756C59.2454 9.06718 59.4575 9.48949 59.9997 9.79449C60.6127 10.1699 61.6735 10.6039 63.1822 11.0966C65.1389 11.7535 66.6594 12.563 67.7438 13.5249C69.1582 14.7684 69.6533 16.6805 69.229 19.2613C68.8046 21.6309 67.6966 23.4375 65.905 24.6809C64.1134 25.901 61.7678 26.511 58.8682 26.511Z" fill="#EAF3B2"/>
<path d="M44.2331 12.6099L49.1836 15.8124C48.1935 17.6894 47.1798 19.3199 46.1426 20.7042L48.8654 24.4346L43.1015 27.25L41.3335 24.9273C39.3769 25.9831 37.2316 26.511 34.8978 26.511C31.9039 26.511 29.6644 25.7602 28.1792 24.2586C26.7176 22.7336 26.1518 20.845 26.4819 18.5926C26.9062 15.6834 28.6978 13.4662 31.8567 11.9412C31.1967 10.4866 30.9727 9.04371 31.1849 7.61255C31.5149 5.501 32.4932 3.83522 34.1199 2.61521C35.7936 1.37174 37.821 0.75 40.2019 0.75C44.4688 0.75 47.4038 2.68559 49.0068 6.55677L42.6772 9.86487C42.0171 8.15217 41.1331 7.29582 40.0251 7.29582C39.035 7.29582 38.4575 7.77678 38.2924 8.73871C38.1982 9.25487 38.3278 9.82968 38.6814 10.4631L39.1411 11.2374C39.2118 11.3547 39.4594 11.6832 39.8837 12.2228L42.6065 15.918C43.2901 14.7684 43.8323 13.6657 44.2331 12.6099ZM35.994 20.669C36.6069 20.669 37.2316 20.5517 37.8681 20.3171L34.9332 16.4459C34.1316 17.009 33.6719 17.6659 33.5541 18.4167C33.4362 19.0501 33.6012 19.5898 34.0491 20.0355C34.497 20.4578 35.1453 20.669 35.994 20.669Z" fill="#EAF3B2"/>
<path d="M13.5161 11.4133H26.1046L25.6095 14.3343C25.0202 17.9474 23.4525 20.8919 20.9065 23.1677C18.3841 25.3965 15.237 26.511 11.4651 26.511C7.62256 26.511 4.61687 25.2558 2.44807 22.7454C0.326409 20.2115 -0.416171 17.0559 0.220326 13.2786C0.809676 9.61853 2.48343 6.61543 5.24158 4.26925C7.95259 1.92308 11.1587 0.75 14.8598 0.75C17.2172 0.75 19.2681 1.25443 21.0126 2.26328C22.7806 3.24867 24.1833 4.64464 25.2205 6.4512L18.7495 9.93526C17.7829 8.41025 16.2506 7.64774 14.1525 7.64774C12.4552 7.64774 10.9583 8.21082 9.66171 9.33698C8.38871 10.3928 7.5872 11.8239 7.25716 13.6305C6.9507 15.3197 7.24537 16.8095 8.14118 18.0999C9.037 19.3434 10.3336 19.9651 12.0309 19.9651C14.5533 19.9651 16.3567 19.1088 17.4411 17.3961H12.4552L13.5161 11.4133Z" fill="#EAF3B2"/>
</svg>
