<svg width="192" height="142" viewBox="0 0 192 142" fill="none" xmlns="http://www.w3.org/2000/svg">
<path d="M27.5244 72.704V70.5874H25.4078V68.4709H23.2913V66.3543H12.6992V68.4709H10.5827V70.5874H8.46611V72.704H6.34958V83.296H8.46611V85.4126H10.5827V87.5291H12.6992V89.6457H23.2913V87.5291H25.4078V85.4126H27.5244V83.296H29.6409V72.704H27.5244ZM21.1701 74.8205H16.9323V76.937H21.1701V83.2913H19.0535V85.4079H16.937V83.2913H14.8205V81.1748H19.0582V79.0582H14.8205V72.704H16.937V70.5874H19.0535V72.704H21.1701V74.8205ZM33.8835 72.704V68.4662H31.7669V66.3496H29.6504V64.2331H27.5338V62.1165H23.296V60H12.704V62.1165H8.46615V64.2331H6.34962V66.3496H4.23308V68.4662H2.11654V72.704H0V83.296H2.11654V87.5338H4.23308V89.6504H6.34962V91.7669H8.46615V93.8835H12.704V96H23.296V93.8835H27.5338V91.7669H29.6504V89.6504H31.7669V87.5338H33.8835V83.296H36V72.704H33.8835ZM31.7622 83.2928H29.6457V85.4094H27.5292V87.5259H25.4126V89.6425H23.2961V91.759H12.704V89.6425H10.5875V87.5259H8.47092V85.4094H6.35438V83.2928H4.23784V72.7008H6.35438V70.5842H8.47092V68.4677H10.5875V66.3511H12.704V64.2346H23.2961V66.3511H25.4126V68.4677H27.5292V70.5842H29.6457V72.7008H31.7622V83.2928Z" fill="#F4CE24"/>
<path d="M98.5244 12.704V10.5874H96.4078V8.47088H94.2913V6.35434H83.6992V8.47088H81.5827V10.5874H79.4661V12.704H77.3496V23.296H79.4661V25.4126H81.5827V27.5291H83.6992V29.6457H94.2913V27.5291H96.4078V25.4126H98.5244V23.296H100.641V12.704H98.5244ZM92.1701 14.8205H87.9323V16.937H92.1701V23.2913H90.0535V25.4079H87.937V23.2913H85.8205V21.1748H90.0582V19.0582H85.8205V12.704H87.937V10.5874H90.0535V12.704H92.1701V14.8205ZM104.883 12.704V8.46615H102.767V6.34962H100.65V4.23308H98.5338V2.11654H94.296V0H83.704V2.11654H79.4662V4.23308H77.3496V6.34962H75.2331V8.46615H73.1165V12.704H71V23.296H73.1165V27.5338H75.2331V29.6504H77.3496V31.7669H79.4662V33.8835H83.704V36H94.296V33.8835H98.5338V31.7669H100.65V29.6504H102.767V27.5338H104.883V23.296H107V12.704H104.883ZM102.762 23.2928H100.646V25.4094H98.5292V27.5259H96.4126V29.6425H94.2961V31.759H83.704V29.6425H81.5875V27.5259H79.4709V25.4094H77.3544V23.2928H75.2378V12.7008H77.3544V10.5842H79.4709V8.46767H81.5875V6.35114H83.704V4.2346H94.2961V6.35114H96.4126V8.46767H98.5292V10.5842H100.646V12.7008H102.762V23.2928Z" fill="#F4CE24"/>
<path d="M183.524 76.704V74.5874H181.408V72.4709H179.291V70.3543H168.699V72.4709H166.583V74.5874H164.466V76.704H162.35V87.296H164.466V89.4126H166.583V91.5291H168.699V93.6457H179.291V91.5291H181.408V89.4126H183.524V87.296H185.641V76.704H183.524ZM177.17 78.8205H172.932V80.937H177.17V87.2913H175.054V89.4079H172.937V87.2913H170.82V85.1748H175.058V83.0582H170.82V76.704H172.937V74.5874H175.054V76.704H177.17V78.8205ZM189.883 76.704V72.4662H187.767V70.3496H185.65V68.2331H183.534V66.1165H179.296V64H168.704V66.1165H164.466V68.2331H162.35V70.3496H160.233V72.4662H158.117V76.704H156V87.296H158.117V91.5338H160.233V93.6504H162.35V95.7669H164.466V97.8835H168.704V100H179.296V97.8835H183.534V95.7669H185.65V93.6504H187.767V91.5338H189.883V87.296H192V76.704H189.883ZM187.762 87.2928H185.646V89.4094H183.529V91.5259H181.413V93.6425H179.296V95.759H168.704V93.6425H166.587V91.5259H164.471V89.4094H162.354V87.2928H160.238V76.7008H162.354V74.5842H164.471V72.4677H166.587V70.3511H168.704V68.2346H179.296V70.3511H181.413V72.4677H183.529V74.5842H185.646V76.7008H187.762V87.2928Z" fill="#F4CE24"/>
<path d="M57 102.941H61.8777V117.586H57V102.941Z" fill="#9FBAF1"/>
<path d="M61.8809 83.4102H66.7586V88.2879H61.8809V83.4102Z" fill="#9FBAF1"/>
<path d="M61.8809 117.59H71.6472V122.468H61.8809V117.59Z" fill="#9FBAF1"/>
<path d="M71.6473 93.1768H76.525V88.2988H66.766V98.0582H61.8811V102.943H71.6475L71.6473 93.1768Z" fill="#9FBAF1"/>
<path d="M71.6472 122.468H76.525V127.346H71.6472V122.468Z" fill="#9FBAF1"/>
<path d="M81.4137 127.356H76.5251V142H86.2915V137.122H81.4138L81.4137 127.356Z" fill="#9FBAF1"/>
<path d="M86.2913 59H110.702V63.8777H86.2913V59Z" fill="#9FBAF1"/>
<path d="M91.1801 78.5333H86.2916V63.8779H81.4138V78.5333H66.7661V83.4111H91.1802L91.1801 78.5333Z" fill="#9FBAF1"/>
<path d="M91.1799 83.4112V88.2998H115.59V63.8789H110.702V83.4119L91.1799 83.4112Z" fill="#9FBAF1"/>
<path d="M115.59 88.2988H125.357V93.1766H115.59V88.2988Z" fill="#9FBAF1"/>
<path d="M86.2913 132.233H91.169V137.111H86.2913V132.233Z" fill="#9FBAF1"/>
<path d="M115.59 132.234V127.356H91.1799V132.234H96.0577V137.122H91.1799V142H100.935V132.234H105.824V137.122H110.701V132.234L115.59 132.234Z" fill="#9FBAF1"/>
<path d="M115.59 132.233V137.122H110.702V142H120.468V137.122H125.357V132.233H115.59Z" fill="#9FBAF1"/>
<path d="M125.357 93.1777H130.234V98.0547H125.357V93.1777Z" fill="#9FBAF1"/>
<path d="M125.357 137.123V142.001H135.116V98.0586H130.234V137.123L125.357 137.123Z" fill="#9FBAF1"/>
<path d="M130.234 88.2988H135.112V93.1766H130.234V88.2988Z" fill="#9FBAF1"/>
<path d="M76.5249 98.0586H81.4026V102.936H76.5249V98.0586Z" fill="#9FBAF1"/>
<path d="M94.0943 72.6966H97.0087V78.5322H105.752V75.6108H108.673V72.6965H105.752V69.7822H102.837V75.6107H99.923V69.7822H91.1798V72.6965H88.2546V75.6108H91.1798V78.5322H94.0943V72.6966Z" fill="#9FBAF1"/>
</svg>
