<svg width="71" height="81" viewBox="0 0 71 81" fill="none" xmlns="http://www.w3.org/2000/svg">
<path d="M66.66 31.3701H64.7H62.74V33.3301V35.2901H64.7H66.66H68.62H70.58V33.3301V31.3701H68.62H66.66Z" fill="#F3B2D9"/>
<path d="M62.74 54.8997H60.78V52.9395H58.8199H56.86V54.8997V56.8599H58.8199V58.8201H60.78V60.7803H62.74H64.7V58.8201V56.8599H62.74V54.8997Z" fill="#F3B2D9"/>
<path d="M60.78 7.83984V9.79987H58.8199V11.7599H56.86V13.7198V15.6799H58.8199H60.78V13.7198H62.74V11.7599H64.7V9.79987V7.83984H62.74H60.78Z" fill="#F3B2D9"/>
<path d="M58.82 47.06V45.0899V43.13V41.1699V39.21V37.2499V35.2899V33.3299V31.3699V29.4098V27.4499V25.4898V23.5298H56.86H54.9V21.5598V19.5998H52.9401H50.98V17.6398V15.6798H49.02H47.05V13.7197V11.7598H45.09H43.13H41.17H39.21H37.2501H35.29H33.33H31.3701H29.41H27.45H25.4901H23.52V13.7197V15.6798H21.5601H19.6V17.6398V19.5998H17.64H15.6801V21.5598V23.5298H13.72H11.76V25.4898V27.4499V29.4098V31.3699V33.3299V35.2899V37.2499V39.21V41.1699V43.13V45.0899V47.06H13.72H15.6801V49.02V50.98H17.64H19.6V52.94V54.9001H21.5601H23.52V56.86V58.8201V60.78V62.7401H25.4901V64.7001H27.45V66.6601H29.41H31.3701H33.33V68.6201H35.29H37.2501H39.21V66.6601H41.17H43.13H45.09V64.7001V62.7401H47.05V60.78V58.8201V56.86V54.9001H49.02H50.98V52.94V50.98H52.9401H54.9V49.02V47.06H56.86H58.82ZM45.09 17.6398V19.5998H47.05H49.02V21.5598H50.98V23.5298V25.4898H52.9401H54.9V27.4499H52.9401H50.98V25.4898H49.02V23.5298V21.5598H47.05H45.09V19.5998H43.13V17.6398V15.6798H45.09V17.6398ZM37.2501 64.7001V62.7401V60.78V58.8201H39.21V56.86V54.9001V52.94H41.17V50.98V49.02V47.06H39.21V49.02H37.2501H35.29H33.33H31.3701V47.06H29.41V49.02V50.98V52.94H31.3701V54.9001V56.86V58.8201H33.33V60.78V62.7401V64.7001H31.3701V62.7401V60.78V58.8201H29.41V56.86V54.9001V52.94H27.45V50.98V49.02V47.06H25.4901H23.52V45.0899H21.5601V43.13H23.52V41.1699H25.4901V39.21H27.45H29.41V41.1699H31.3701V43.13V45.0899V47.06H33.33H35.29H37.2501H39.21V45.0899V43.13V41.1699H41.17V39.21H43.13H45.09V41.1699H47.05V43.13H49.02V45.0899H47.05V47.06H45.09H43.13V49.02V50.98V52.94H41.17V54.9001V56.86V58.8201H39.21V60.78V62.7401V64.7001H37.2501Z" fill="#F3B2D9"/>
<path d="M43.1299 45.0897H45.0899H47.0499V43.1298H45.0899V41.1699H43.1299H41.1699V43.1298V45.0897V47.0596H43.1299V45.0897Z" fill="#F3B2D9"/>
<path d="M41.17 74.5098H43.1299H45.09V72.5498H43.1299H41.17H39.21V74.5098H41.17Z" fill="#F3B2D9"/>
<path d="M41.17 70.5801H43.1299H45.09V68.6201H43.1299H41.17H39.21V70.5801H41.17Z" fill="#F3B2D9"/>
<path d="M37.25 78.4297H35.29H33.33V76.4697H31.37H29.41H27.45V78.4297H29.41V80.3898H31.37H33.33H35.29H37.25H39.21H41.17V78.4297H43.1299V76.4697H41.17H39.21V78.4297H37.25Z" fill="#F3B2D9"/>
<path d="M35.29 74.5098H33.33V76.4697H35.29H37.25H39.21V74.5098H37.25H35.29Z" fill="#F3B2D9"/>
<path d="M35.29 70.5801H33.33V72.5498H35.29H37.25H39.21V70.5801H37.25H35.29Z" fill="#F3B2D9"/>
<path d="M33.33 0V1.96002V3.91998V5.88V7.83997H35.29H37.25V5.88V3.91998V1.96002V0H35.29H33.33Z" fill="#F3B2D9"/>
<path d="M31.37 74.5098H33.33V72.5498H31.37H29.41H27.45V74.5098H29.41H31.37Z" fill="#F3B2D9"/>
<path d="M31.37 70.5801H33.33V68.6201H31.37H29.41H27.45V70.5801H29.41H31.37Z" fill="#F3B2D9"/>
<path d="M29.41 43.1298V41.1699H27.45H25.4901V43.1298H23.52V45.0897H25.4901H27.45V47.0596H29.41V45.0897V43.1298Z" fill="#F3B2D9"/>
<path d="M27.45 74.5098H25.49V76.4697H27.45V74.5098Z" fill="#F3B2D9"/>
<path d="M27.45 70.5801H25.49V72.5498H27.45V70.5801Z" fill="#F3B2D9"/>
<path d="M27.45 66.6602H25.49V68.6202H27.45V66.6602Z" fill="#F3B2D9"/>
<path d="M9.79993 52.9395V54.8997H7.8399V56.8599H5.87988V58.8201V60.7803H7.8399H9.79993V58.8201H11.7599V56.8599H13.7199V54.8997V52.9395H11.7599H9.79993Z" fill="#F3B2D9"/>
<path d="M7.8399 13.7198H9.79993V15.6799H11.7599H13.7199V13.7198V11.7599H11.7599V9.79987H9.79993V7.83984H7.8399H5.87988V9.79987V11.7599H7.8399V13.7198Z" fill="#F3B2D9"/>
<path d="M7.83997 35.2901V33.3301V31.3701H5.87994H3.91998H1.95996H0V33.3301V35.2901H1.95996H3.91998H5.87994H7.83997Z" fill="#F3B2D9"/>
</svg>
