<svg width="73" height="84" viewBox="0 0 73 84" fill="none" xmlns="http://www.w3.org/2000/svg">
<path d="M53.0451 56.5215L53.7338 54.8137L54.4226 53.106L52.7148 52.4173L51.0071 51.7285L51.6958 50.0208L52.3846 48.3131L50.6769 47.6244L48.9692 46.9356L49.6579 45.2279L50.3467 43.5202L48.6303 42.8279L46.9225 42.1392L45.2148 41.4504L43.5071 40.7617L41.7994 40.0729L40.0917 39.3842L38.384 38.6955L36.6763 38.0067L34.9685 37.3179L33.2609 36.6292L31.5531 35.9404L29.8454 35.2517L28.129 34.5594L26.4213 33.8707L24.7136 33.1819L25.4023 31.4742L26.0946 29.7578L24.3869 29.0691L22.6791 28.3803L23.3679 26.6726L24.0566 24.9649L24.7454 23.2572L25.4341 21.5495L26.1229 19.8418L26.8116 18.1341L28.5193 18.8228L30.2271 19.5116L30.9158 17.8038L31.6046 16.0962L33.3122 16.7849L35.02 17.4737L35.7087 15.7659L36.3975 14.0582L37.0862 12.3505L37.775 10.6428L36.0672 9.95404L34.3596 9.26531L33.6708 10.973L32.9821 12.6807L31.2743 11.992L29.5666 11.3032L28.8779 13.0109L28.1891 14.7187L26.4814 14.0299L24.7737 13.3412L24.085 15.0488L23.3962 16.7566L21.6885 16.0678L19.9808 15.3791L19.292 17.0868L18.6033 18.7945L17.9146 20.5022L17.2258 22.2099L16.5371 23.9176L15.8483 25.6253L17.556 26.3141L19.2637 27.0028L18.5715 28.7192L17.8827 30.4269L19.5904 31.1157L21.2981 31.8044L20.6094 33.5122L19.9206 35.2198L21.6284 35.9086L23.3361 36.5973L22.6473 38.3051L21.9586 40.0127L23.6663 40.7015L25.374 41.3902L27.0904 42.0825L26.4017 43.7902L25.7129 45.4979L25.0242 47.2056L24.3354 48.9133L23.6467 50.6211L22.9579 52.3287L22.2657 54.0452L21.5769 55.7529L20.8882 57.4606L20.1994 59.1683L19.5107 60.876L18.8219 62.5837L18.1332 64.2915L17.4444 65.9991L16.7557 67.7069L16.0669 69.4146L15.3782 71.1223L17.0859 71.811L18.7937 72.4998L20.5013 73.1885L21.1901 71.4808L21.8788 69.7731L22.5676 68.0654L24.2753 68.7541L25.983 69.4429L26.6718 67.7352L27.3605 66.0275L28.0493 64.3198L28.738 62.6121L27.0303 61.9233L25.3226 61.2346L26.0113 59.5268L26.7001 57.8191L27.3888 56.1114L28.0811 54.395L28.7698 52.6873L29.4586 50.9796L30.1473 49.2719L30.836 47.5642L31.5248 45.8565L32.2136 44.1487L33.9213 44.8375L35.629 45.5263L37.3367 46.215L36.6479 47.9227L35.9592 49.6304L35.2705 51.3381L34.5817 53.0458L33.8929 54.7536L33.2042 56.4612L32.5119 58.1777L31.8232 59.8854L31.1344 61.5931L30.4457 63.3008L29.757 65.0085L29.0682 66.7162L28.3794 68.424L27.6907 70.1316L27.002 71.8394L26.3132 73.5471L25.6245 75.2548L27.3322 75.9435L29.0399 76.6323L30.7476 77.321L31.4363 75.6133L32.1251 73.9056L32.8139 72.1979L34.5216 72.8866L36.2293 73.5754L37.9457 74.2676L38.6345 72.56L39.3232 70.8522L41.0309 71.541L42.7386 72.2297L43.4274 70.522L44.1161 68.8143L45.8238 69.5031L47.5316 70.1918L48.2203 68.4841L48.9091 66.7764L50.6168 67.4651L52.3245 68.1539L53.0132 66.4462L53.7055 64.7298L54.3942 63.0221L55.083 61.3144L55.7717 59.6066L56.4605 57.899L54.7527 57.2102L53.0451 56.5215ZM45.4936 65.3989L43.7859 64.7101L42.0782 64.0214L41.3894 65.7291L40.7007 67.4368L38.9843 66.7446L37.2766 66.0558L35.5688 65.3671L36.2576 63.6593L36.9463 61.9516L37.6351 60.2439L38.3273 58.5275L39.0161 56.8198L39.7048 55.1121L40.3936 53.4044L41.0823 51.6967L41.7711 49.989L42.4598 48.2812L44.1676 48.97L45.8753 49.6588L47.5917 50.351L46.9029 52.0587L46.2142 53.7665L47.9219 54.4552L49.6296 55.1439L48.9409 56.8516L48.2521 58.5594L47.5634 60.2671L46.8746 61.9748L46.1823 63.6912L45.4936 65.3989Z" fill="#9FBAF1"/>
<path d="M44.1964 39.0541L45.9041 39.7428L46.5963 38.0264L47.2851 36.3187L47.9738 34.611L48.6626 32.9033L49.3513 31.1956L50.04 29.4879L50.7288 27.7802L51.4175 26.0725L52.1063 24.3648L53.814 25.0536L55.5217 25.7423L57.2381 26.4346L56.5494 28.1423L55.8606 29.85L57.5684 30.5387L59.2761 31.2275L58.5873 32.9352L57.8986 34.6428L59.6063 35.3316L61.314 36.0204L62.0028 34.3127L62.6915 32.605L63.3803 30.8973L64.069 29.1896L62.3613 28.5008L60.6535 27.8121L61.3423 26.1044L62.031 24.3966L60.3234 23.7079L58.6156 23.0192L59.3044 21.3115L59.9931 19.6038L58.2767 18.9115L56.569 18.2228L54.8612 17.534L55.5535 15.8176L56.2422 14.1099L56.931 12.4022L55.2233 11.7135L53.5156 11.0247L51.8079 10.3359L51.1191 12.0437L50.4304 13.7514L49.7381 15.4678L49.0494 17.1755L48.3606 18.8831L47.6719 20.5909L46.9831 22.2986L46.2944 24.0062L45.6056 25.714L44.9169 27.4217L44.2282 29.1293L43.5394 30.8371L42.8507 32.5447L42.1619 34.2524L41.4732 35.9602L40.7809 37.6765L42.4887 38.3653L44.1964 39.0541Z" fill="#9FBAF1"/>
<path d="M33.9501 34.9212L35.6577 35.61L36.35 33.8936L37.0387 32.1859L37.7275 30.4782L38.4162 28.7705L39.105 27.0628L39.7937 25.3551L40.4824 23.6474L41.1712 21.9397L41.8599 20.232L43.5677 20.9208L45.2754 21.6095L45.9641 19.9018L46.6529 18.1941L47.3416 16.4864L48.0304 14.7787L46.3226 14.09L44.6149 13.4012L45.3072 11.6848L45.9959 9.97709L46.6847 8.26937L44.977 7.58064L43.2693 6.89188L41.5615 6.20312L40.8728 7.91084L40.184 9.61856L39.4918 11.3349L38.803 13.0427L38.1143 14.7503L37.4255 16.458L36.7368 18.1658L36.0481 19.8734L35.3593 21.5811L34.6706 23.2889L33.9818 24.9965L33.2931 26.7042L32.6043 28.4119L31.9156 30.1196L31.2268 31.8274L30.5346 33.5437L32.2423 34.2325L33.9501 34.9212Z" fill="#9FBAF1"/>
<path d="M15.0685 57.0975L15.7572 55.3898L16.446 53.682L14.7382 52.9933L13.0305 52.3045L13.7192 50.5969L14.4115 48.8804L12.7038 48.1917L10.9961 47.5029L10.3038 49.2194L9.6151 50.927L8.92634 52.6348L8.23759 54.3425L9.94532 55.0312L11.653 55.72L10.9643 57.4276L10.2755 59.1353L11.9832 59.8241L13.691 60.5129L13.0022 62.2206L12.3135 63.9282L14.0212 64.617L15.7289 65.3057L16.4176 63.5981L17.1064 61.8903L17.7951 60.1826L18.4839 58.475L16.7761 57.7862L15.0685 57.0975Z" fill="#9FBAF1"/>
</svg>
