<svg width="152" height="172" viewBox="0 0 152 172" fill="none" xmlns="http://www.w3.org/2000/svg">
<path d="M121.088 80.9009L119.497 77.5234L117.906 74.1459L114.528 75.7372L111.15 77.3285L109.559 73.9511L107.968 70.5736L104.59 72.1648L101.213 73.7562L99.6216 70.3787L98.0303 67.0012L94.6356 68.6006L91.258 70.1919L87.8805 71.7833L84.5031 73.3746L81.1255 74.9659L77.748 76.5572L74.3706 78.1485L70.993 79.7398L67.6155 81.3312L64.238 82.9224L60.8605 84.5138L57.483 86.1051L54.0883 87.7045L50.7107 89.2958L47.3333 90.8871L45.742 87.5096L44.1426 84.1149L40.765 85.7062L37.3875 87.2976L35.7962 83.92L34.2049 80.5425L32.6136 77.1651L31.0223 73.7875L29.431 70.4101L27.8397 67.0326L31.2172 65.4412L34.5947 63.8499L33.0034 60.4724L31.4121 57.095L34.7896 55.5037L38.1671 53.9124L36.5758 50.5348L34.9845 47.1573L33.3932 43.7799L31.8019 40.4023L28.4243 41.9937L25.0469 43.5849L26.6382 46.9625L28.2295 50.3399L24.8519 51.9312L21.4744 53.5226L23.0657 56.9001L24.6571 60.2776L21.2796 61.8689L17.9021 63.4602L19.4934 66.8377L21.0847 70.2152L17.7073 71.8065L14.3297 73.3978L15.921 76.7753L17.5123 80.1527L19.1036 83.5303L20.6949 86.9077L22.2862 90.2852L23.8776 93.6628L27.2551 92.0714L30.6325 90.4802L32.2319 93.8748L33.8233 97.2524L37.2008 95.661L40.5782 94.0698L42.1696 97.4473L43.7608 100.825L47.1384 99.2334L50.5159 97.6421L52.1072 101.02L53.6985 104.397L57.076 102.806L60.4535 101.214L63.8482 99.615L65.4395 102.993L67.0308 106.37L68.6221 109.747L70.2134 113.125L71.8047 116.503L73.396 119.88L74.9955 123.275L76.5868 126.652L78.1781 130.03L79.7694 133.407L81.3607 136.785L82.952 140.162L84.5433 143.54L86.1346 146.917L87.7259 150.295L89.3173 153.672L90.9085 157.05L94.2861 155.458L97.6636 153.867L101.041 152.276L99.4498 148.898L97.8584 145.521L96.2671 142.143L99.6447 140.552L103.022 138.961L101.431 135.583L99.8396 132.206L98.2483 128.828L96.657 125.451L93.2795 127.042L89.9019 128.633L88.3106 125.256L86.7193 121.878L85.128 118.501L83.5285 115.106L81.9373 111.729L80.3459 108.351L78.7546 104.974L77.1633 101.596L75.572 98.2186L73.9807 94.8411L77.3582 93.2497L80.7358 91.6584L84.1132 90.0671L85.7045 93.4447L87.2958 96.8222L88.8871 100.2L90.4784 103.577L92.0698 106.955L93.661 110.332L95.2605 113.727L96.8518 117.104L98.4431 120.482L100.034 123.859L101.626 127.237L103.217 130.614L104.808 133.992L106.4 137.369L107.991 140.747L109.582 144.124L111.174 147.502L114.551 145.91L117.929 144.319L121.306 142.728L119.715 139.35L118.123 135.973L116.532 132.595L119.91 131.004L123.287 129.413L126.682 127.813L125.091 124.436L123.499 121.058L126.877 119.467L130.254 117.876L128.663 114.498L127.072 111.121L130.449 109.529L133.827 107.938L132.235 104.561L130.644 101.183L134.022 99.5918L137.399 98.0004L135.808 94.623L134.208 91.2282L132.617 87.8508L131.026 84.4733L129.434 81.0957L127.843 77.7183L124.466 79.3096L121.088 80.9009ZM123.889 104.366L120.512 105.957L117.134 107.548L118.725 110.926L120.317 114.303L116.922 115.903L113.544 117.494L110.167 119.085L108.576 115.708L106.984 112.33L105.393 108.953L103.794 105.558L102.202 102.181L100.611 98.8032L99.0196 95.4257L97.4284 92.0483L95.837 88.6707L94.2457 85.2932L97.6232 83.7019L101.001 82.1105L104.395 80.5111L105.987 83.8887L107.578 87.2662L110.956 85.6749L114.333 84.0836L115.924 87.461L117.516 90.8385L119.107 94.2161L120.698 97.5935L122.298 100.988L123.889 104.366Z" fill="#AFCAFF"/>
<path d="M82.9119 69.9962L86.2893 68.4049L84.69 65.0103L83.0987 61.6329L81.5074 58.2554L79.9161 54.878L78.3248 51.5005L76.7336 48.1232L75.1423 44.7457L73.551 41.3682L71.9597 37.9909L75.3373 36.3996L78.7148 34.8082L82.1095 33.2088L83.7007 36.5862L85.292 39.9637L88.6695 38.3723L92.0469 36.7811L93.6382 40.1585L95.2295 43.5359L98.607 41.9446L101.985 40.3533L100.393 36.9759L98.802 33.5984L97.2107 30.221L95.6195 26.8436L92.2419 28.4349L88.8644 30.0262L87.2731 26.6488L85.6818 23.2713L82.3044 24.8626L78.9269 26.4539L77.3356 23.0765L75.7443 19.6991L72.3497 21.2985L68.9721 22.8898L65.5946 24.4811L63.9952 21.0865L62.4039 17.709L60.8126 14.3316L57.4352 15.9228L54.0577 17.5141L50.6802 19.1055L52.2715 22.4829L53.8628 25.8604L55.4621 29.255L57.0534 32.6325L58.6447 36.0099L60.236 39.3873L61.8273 42.7648L63.4185 46.1422L65.0098 49.5196L66.6011 52.8971L68.1924 56.2745L69.7837 59.6519L71.3749 63.0293L72.9662 66.4068L74.5575 69.7842L76.1569 73.1789L79.5344 71.5875L82.9119 69.9962Z" fill="#AFCAFF"/>
<path d="M62.6478 79.5443L66.0253 77.953L64.4259 74.5583L62.8345 71.1807L61.2432 67.8032L59.6519 64.4258L58.0606 61.0482L56.4693 57.6708L54.878 54.2932L53.2867 50.9157L51.6954 47.5382L55.073 45.9469L58.4505 44.3556L56.8592 40.978L55.2679 37.6005L53.6766 34.223L52.0853 30.8455L48.7077 32.4368L45.3302 34.0282L43.7308 30.6335L42.1395 27.2559L40.5482 23.8784L37.1707 25.4697L33.7932 27.061L30.4156 28.6523L32.007 32.0299L33.5983 35.4074L35.1977 38.8021L36.789 42.1797L38.3803 45.5571L39.9716 48.9347L41.5629 52.3122L43.1542 55.6896L44.7455 59.0672L46.3368 62.4447L47.9281 65.8222L49.5194 69.1997L51.1107 72.5772L52.702 75.9547L54.2934 79.3323L55.8928 82.727L59.2703 81.1356L62.6478 79.5443Z" fill="#AFCAFF"/>
<path d="M69.6157 138.16L68.0244 134.783L66.4331 131.405L63.0555 132.996L59.678 134.588L58.0867 131.21L56.4873 127.815L53.1098 129.407L49.7323 130.998L51.3317 134.393L52.923 137.77L54.5143 141.148L56.1057 144.526L59.4832 142.934L62.8606 141.343L64.4519 144.72L66.0432 148.098L69.4208 146.507L72.7983 144.915L74.3896 148.293L75.9809 151.67L79.3583 150.079L82.7359 148.488L81.1446 145.11L79.5533 141.733L77.9619 138.355L76.3707 134.978L72.9931 136.569L69.6157 138.16Z" fill="#AFCAFF"/>
</svg>
