<svg width="137" height="145" viewBox="0 0 137 145" fill="none" xmlns="http://www.w3.org/2000/svg">
<path d="M0 76.7676H8.52132V102.35H0V76.7676Z" fill="#EAF3B2"/>
<path d="M8.52686 42.6445H17.0482V51.1658H8.52686V42.6445Z" fill="#EAF3B2"/>
<path d="M8.52686 102.355H25.5885V110.877H8.52686V102.355Z" fill="#EAF3B2"/>
<path d="M25.5887 59.7069H34.11V51.1855H17.0612V68.2343H8.52734V76.7682H25.589L25.5887 59.7069Z" fill="#EAF3B2"/>
<path d="M25.5886 110.877H34.1099V119.398H25.5886V110.877Z" fill="#EAF3B2"/>
<path d="M42.6503 119.418H34.1101V145.001H51.1718V136.479H42.6504L42.6503 119.418Z" fill="#EAF3B2"/>
<path d="M51.1714 0H93.8158V8.52132H51.1714V0Z" fill="#EAF3B2"/>
<path d="M59.712 34.1236H51.1718V8.52148H42.6505V34.1236H17.0613V42.6449H59.7122L59.712 34.1236Z" fill="#EAF3B2"/>
<path d="M59.7119 42.6454V51.1856H102.356V8.52344H93.8162V42.6467L59.7119 42.6454Z" fill="#EAF3B2"/>
<path d="M102.356 51.1855H119.418V59.7069H102.356V51.1855Z" fill="#EAF3B2"/>
<path d="M51.1714 127.939H59.6927V136.461H51.1714V127.939Z" fill="#EAF3B2"/>
<path d="M102.356 127.939V119.418H59.7119V127.939H68.2332V136.479H59.7119V145.001H76.7542V127.939H85.2944V136.479H93.8157V127.939L102.356 127.939Z" fill="#EAF3B2"/>
<path d="M102.356 127.939V136.48H93.8162V145.001H110.878V136.48H119.418V127.939H102.356Z" fill="#EAF3B2"/>
<path d="M119.418 59.707H127.939V68.2284H119.418V59.707Z" fill="#EAF3B2"/>
<path d="M119.418 136.479V145.001H136.467V68.2344H127.939V136.479L119.418 136.479Z" fill="#EAF3B2"/>
<path d="M127.939 51.1855H136.461V59.7069H127.939V51.1855Z" fill="#EAF3B2"/>
<path d="M34.1099 68.2344H42.6312V76.7557H34.1099V68.2344Z" fill="#EAF3B2"/>
<path d="M64.803 23.9295H69.8945V34.1247H85.1686V29.0207H90.2726V23.9293H85.1686V18.8379H80.0772V29.0206H74.9857V18.8379H59.7116V23.9293H54.6013V29.0207H59.7116V34.1247H64.803V23.9295Z" fill="#EAF3B2"/>
</svg>
