<svg width="79" height="83" viewBox="0 0 79 83" fill="none" xmlns="http://www.w3.org/2000/svg">
<path d="M0 43.9414H4.87769V58.5859H0V43.9414Z" fill="#9FBAF1"/>
<path d="M4.88086 24.4102H9.7586V29.2879H4.88086V24.4102Z" fill="#9FBAF1"/>
<path d="M4.88086 58.5898H14.6472V63.4676H4.88086V58.5898Z" fill="#9FBAF1"/>
<path d="M14.647 34.1768H19.5248V29.2988H9.76579V39.0582H4.88086V43.9434H14.6472L14.647 34.1768Z" fill="#9FBAF1"/>
<path d="M14.6475 63.4688H19.5252V68.3465H14.6475V63.4688Z" fill="#9FBAF1"/>
<path d="M24.4139 68.3555H19.5254V82.999H29.2917V78.1214H24.414L24.4139 68.3555Z" fill="#9FBAF1"/>
<path d="M29.291 0H53.7014V4.87774H29.291V0Z" fill="#9FBAF1"/>
<path d="M34.1796 19.5343H29.2911V4.87891H24.4133V19.5343H9.76562V24.4121H34.1797L34.1796 19.5343Z" fill="#9FBAF1"/>
<path d="M34.1797 24.4112V29.2998H58.59V4.87891H53.7015V24.4119L34.1797 24.4112Z" fill="#9FBAF1"/>
<path d="M58.5908 29.2988H68.3572V34.1766H58.5908V29.2988Z" fill="#9FBAF1"/>
<path d="M29.291 73.2344H34.1688V78.1121H29.291V73.2344Z" fill="#9FBAF1"/>
<path d="M58.59 73.2331V68.3555H34.1797V73.2331H39.0574V78.1214H34.1797V82.999H43.9349V73.233H48.8235V78.1213H53.7012V73.233L58.59 73.2331Z" fill="#9FBAF1"/>
<path d="M58.5907 73.2344V78.1231H53.7021V83.001H63.4685V78.1231H68.3571V73.2344H58.5907Z" fill="#9FBAF1"/>
<path d="M68.3564 34.1777H73.2343V39.0547H68.3564V34.1777Z" fill="#9FBAF1"/>
<path d="M68.3564 78.123V83.0008H78.1154V39.0586H73.2341V78.1231L68.3564 78.123Z" fill="#9FBAF1"/>
<path d="M73.2344 29.2988H78.1121V34.1766H73.2344V29.2988Z" fill="#9FBAF1"/>
<path d="M19.5254 39.0586H24.4031V43.9363H19.5254V39.0586Z" fill="#9FBAF1"/>
<path d="M37.0945 13.6956H40.0089V19.5312H48.7521V16.6098H51.6737V13.6955H48.7521V10.7812H45.8377V16.6097H42.9233V10.7812H34.1801V13.6955H31.2549V16.6098H34.1801V19.5312H37.0945V13.6956Z" fill="#9FBAF1"/>
</svg>
