<svg width="104" height="156" viewBox="0 0 104 156" fill="none" xmlns="http://www.w3.org/2000/svg">
<path d="M57.8092 113.704L57.1764 111.975L56.5436 110.246L54.8144 110.879L53.0851 111.511L52.4524 109.782L51.8196 108.053L50.0904 108.686L48.3612 109.318L47.7284 107.589L47.0956 105.86L45.3576 106.496L43.6284 107.129L41.8991 107.762L40.1699 108.394L38.4406 109.027L36.7114 109.66L34.9822 110.293L33.2529 110.925L31.5237 111.558L29.7945 112.191L28.0652 112.824L26.3359 113.456L24.5979 114.092L22.8687 114.725L21.1395 115.358L20.5067 113.629L19.8707 111.891L18.1415 112.523L16.4122 113.156L15.7794 111.427L15.1467 109.698L14.5139 107.969L13.8812 106.239L13.2484 104.51L12.6157 102.781L14.3449 102.148L16.0742 101.515L15.4414 99.7861L14.8087 98.0569L16.5379 97.4241L18.2671 96.7913L17.6344 95.0621L17.0016 93.3329L16.3689 91.6037L15.7361 89.8744L14.0069 90.5072L12.2777 91.1399L12.9104 92.8692L13.5432 94.5984L11.8139 95.2311L10.0846 95.8639L10.7174 97.5932L11.3502 99.3224L9.62097 99.9552L7.89171 100.588L8.52445 102.317L9.15721 104.046L7.42801 104.679L5.69875 105.312L6.33151 107.041L6.96426 108.77L7.59702 110.5L8.22976 112.229L8.86252 113.958L9.49528 115.687L11.2245 115.054L12.9537 114.422L13.5897 116.16L14.2225 117.889L15.9517 117.256L17.6809 116.623L18.3137 118.353L18.9464 120.082L20.6757 119.449L22.405 118.816L23.0377 120.546L23.6705 122.275L25.3997 121.642L27.1289 121.009L28.867 120.373L29.4997 122.103L30.1325 123.832L30.7652 125.561L31.398 127.29L32.0307 129.019L32.6635 130.749L33.2995 132.487L33.9322 134.216L34.565 135.945L35.1977 137.674L35.8305 139.404L36.4632 141.133L37.096 142.862L37.7288 144.591L38.3615 146.321L38.9943 148.05L39.627 149.779L41.3563 149.146L43.0855 148.513L44.8147 147.881L44.182 146.152L43.5492 144.422L42.9165 142.693L44.6457 142.06L46.375 141.427L45.7422 139.698L45.1095 137.969L44.4767 136.24L43.844 134.511L42.1147 135.143L40.3855 135.776L39.7527 134.047L39.1199 132.318L38.4872 130.588L37.8512 128.85L37.2185 127.121L36.5857 125.392L35.9529 123.663L35.3202 121.934L34.6874 120.204L34.0547 118.475L35.7839 117.842L37.5132 117.209L39.2424 116.577L39.8752 118.306L40.5079 120.035L41.1407 121.764L41.7734 123.494L42.4062 125.223L43.0389 126.952L43.6749 128.69L44.3077 130.419L44.9404 132.149L45.5732 133.878L46.2059 135.607L46.8387 137.336L47.4714 139.066L48.1042 140.795L48.7369 142.524L49.3697 144.253L50.0025 145.982L51.7317 145.35L53.461 144.717L55.1902 144.084L54.5574 142.355L53.9247 140.626L53.2919 138.896L55.0212 138.264L56.7504 137.631L58.4885 136.995L57.8557 135.266L57.2229 133.536L58.9522 132.904L60.6814 132.271L60.0486 130.542L59.4159 128.813L61.1452 128.18L62.8744 127.547L62.2417 125.818L61.6089 124.088L63.3381 123.456L65.0674 122.823L64.4346 121.094L63.7986 119.356L63.1659 117.627L62.5331 115.897L61.9004 114.168L61.2676 112.439L59.5384 113.072L57.8092 113.704ZM58.1504 125.354L56.4212 125.987L54.6919 126.62L55.3247 128.349L55.9574 130.078L54.2194 130.714L52.4902 131.347L50.7609 131.98L50.1281 130.25L49.4954 128.521L48.8626 126.792L48.2266 125.054L47.5939 123.325L46.9611 121.595L46.3284 119.866L45.6956 118.137L45.0629 116.408L44.4301 114.678L46.1594 114.046L47.8886 113.413L49.6267 112.777L50.2594 114.506L50.8922 116.235L52.6214 115.603L54.3506 114.97L54.9834 116.699L55.6161 118.428L56.2489 120.158L56.8816 121.887L57.5176 123.625L58.1504 125.354Z" fill="#9FBAF1"/>
<path d="M39.5373 106.665L41.2665 106.033L40.6305 104.295L39.9978 102.565L39.365 100.836L38.7323 99.1071L38.0995 97.3779L37.4668 95.6487L36.834 93.9195L36.2013 92.1903L35.5686 90.4611L37.2978 89.8283L39.0271 89.1956L40.7651 88.5596L41.3978 90.2888L42.0306 92.018L43.7598 91.3852L45.489 90.7525L46.1218 92.4817L46.7545 94.2109L48.4838 93.5781L50.213 92.9453L49.5803 91.2161L48.9476 89.4869L48.3148 87.7577L47.6821 86.0285L45.9528 86.6613L44.2236 87.2941L43.5908 85.5648L42.958 83.8356L41.2288 84.4684L39.4996 85.1011L38.8668 83.372L38.2341 81.6427L36.4961 82.2787L34.7668 82.9115L33.0376 83.5443L32.4016 81.8063L31.7688 80.077L31.1361 78.3478L29.4069 78.9806L27.6776 79.6133L25.9484 80.2461L26.5811 81.9753L27.2139 83.7045L27.8498 85.4425L28.4826 87.1718L29.1153 88.9009L29.7481 90.6302L30.3808 92.3594L31.0136 94.0885L31.6463 95.8178L32.2791 97.547L32.9118 99.2762L33.5446 101.005L34.1773 102.735L34.8101 104.464L35.4428 106.193L36.0788 107.931L37.8081 107.298L39.5373 106.665Z" fill="#9FBAF1"/>
<path d="M29.1621 110.462L30.8913 109.83L30.2553 108.092L29.6225 106.362L28.9898 104.633L28.357 102.904L27.7243 101.175L27.0915 99.4456L26.4588 97.7164L25.826 95.9871L25.1933 94.258L26.9225 93.6252L28.6518 92.9925L28.019 91.2632L27.3862 89.534L26.7535 87.8048L26.1207 86.0756L24.3915 86.7084L22.6622 87.3411L22.0262 85.6032L21.3935 83.8739L20.7607 82.1447L19.0315 82.7775L17.3023 83.4102L15.573 84.043L16.2058 85.7722L16.8385 87.5014L17.4745 89.2394L18.1073 90.9686L18.74 92.6978L19.3728 94.427L20.0055 96.1562L20.6383 97.8854L21.271 99.6146L21.9038 101.344L22.5366 103.073L23.1693 104.802L23.8021 106.531L24.4348 108.261L25.0676 109.99L25.7036 111.728L27.4328 111.095L29.1621 110.462Z" fill="#9FBAF1"/>
<path d="M30.0012 139.576L29.3685 137.846L28.7357 136.117L27.0064 136.75L25.2772 137.382L24.6444 135.653L24.0084 133.915L22.2792 134.548L20.5499 135.181L21.1859 136.919L21.8187 138.648L22.4515 140.377L23.0843 142.107L24.8135 141.474L26.5427 140.841L27.1755 142.57L27.8083 144.3L29.5375 143.667L31.2668 143.034L31.8996 144.763L32.5323 146.493L34.2615 145.86L35.9908 145.227L35.358 143.498L34.7253 141.769L34.0925 140.039L33.4597 138.31L31.7305 138.943L30.0012 139.576Z" fill="#9FBAF1"/>
<path d="M88.3312 38.1683L88.9091 37.1376L89.4869 36.1068L88.4562 35.529L87.4254 34.9511L88.0032 33.9204L88.5811 32.8897L87.5504 32.3119L86.5196 31.734L87.0974 30.7033L87.6753 29.6726L86.6393 29.0918L85.6086 28.514L84.5778 27.9361L83.5471 27.3583L82.5164 26.7805L81.4856 26.2026L80.4549 25.6248L79.4242 25.047L78.3934 24.4691L77.3627 23.8913L76.3319 23.3135L75.3012 22.7356L74.2652 22.1549L73.2345 21.577L72.2038 20.9992L72.7816 19.9685L73.3624 18.9325L72.3316 18.3546L71.3009 17.7768L71.8787 16.7461L72.4566 15.7153L73.0344 14.6846L73.6122 13.6539L74.19 12.6231L74.7679 11.5924L75.7986 12.1702L76.8294 12.7481L77.4072 11.7173L77.985 10.6866L79.0157 11.2644L80.0465 11.8423L80.6243 10.8115L81.2022 9.78078L81.78 8.75007L82.3578 7.71933L81.3271 7.14149L80.2963 6.56367L79.7185 7.59441L79.1407 8.62513L78.1099 8.04729L77.0792 7.46945L76.5014 8.5002L75.9235 9.53094L74.8928 8.95312L73.8621 8.37529L73.2842 9.406L72.7064 10.4367L71.6757 9.85892L70.645 9.28109L70.0671 10.3118L69.4893 11.3425L68.9115 12.3733L68.3336 13.404L67.7558 14.4347L67.178 15.4655L68.2087 16.0433L69.2394 16.6212L68.6587 17.6571L68.0808 18.6879L69.1116 19.2657L70.1423 19.8435L69.5644 20.8743L68.9866 21.905L70.0174 22.4828L71.0481 23.0607L70.4703 24.0914L69.8925 25.1221L70.9232 25.6999L71.9539 26.2778L72.9899 26.8585L72.4121 27.8893L71.8342 28.92L71.2564 29.9508L70.6786 30.9815L70.1007 32.0122L69.5229 33.043L68.9421 34.079L68.3643 35.1097L67.7865 36.1404L67.2086 37.1712L66.6308 38.2019L66.053 39.2326L65.4751 40.2634L64.8973 41.2941L64.3195 42.3248L63.7416 43.3556L63.1638 44.3863L64.1946 44.9641L65.2253 45.542L66.256 46.1198L66.8338 45.0891L67.4117 44.0583L67.9895 43.0276L69.0203 43.6054L70.051 44.1833L70.6288 43.1525L71.2067 42.1218L71.7845 41.0911L72.3623 40.0603L71.3316 39.4825L70.3008 38.9047L70.8787 37.8739L71.4565 36.8432L72.0343 35.8125L72.6151 34.7764L73.1929 33.7457L73.7708 32.715L74.3486 31.6842L74.9264 30.6535L75.5043 29.6228L76.0821 28.592L77.1128 29.1699L78.1436 29.7477L79.1743 30.3255L78.5965 31.3563L78.0186 32.387L77.4408 33.4177L76.863 34.4485L76.2851 35.4792L75.7073 36.5099L75.1265 37.546L74.5487 38.5767L73.9709 39.6074L73.393 40.6382L72.8152 41.6689L72.2374 42.6996L71.6595 43.7304L71.0817 44.7611L70.5039 45.7918L69.926 46.8226L69.3482 47.8533L70.379 48.4311L71.4097 49.009L72.4404 49.5868L73.0182 48.5561L73.5961 47.5253L74.1739 46.4946L75.2047 47.0724L76.2354 47.6502L77.2714 48.231L77.8492 47.2003L78.427 46.1696L79.4578 46.7474L80.4885 47.3252L81.0663 46.2945L81.6442 45.2638L82.6749 45.8416L83.7057 46.4194L84.2835 45.3887L84.8613 44.3579L85.892 44.9358L86.9228 45.5136L87.5006 44.4829L88.0814 43.4469L88.6592 42.4162L89.237 41.3854L89.8149 40.3547L90.3927 39.324L89.362 38.7461L88.3312 38.1683ZM82.7998 43.2023L81.7691 42.6244L80.7384 42.0466L80.1605 43.0774L79.5827 44.1081L78.5467 43.5273L77.516 42.9495L76.4852 42.3717L77.0631 41.3409L77.6409 40.3102L78.2187 39.2794L78.7995 38.2434L79.3773 37.2127L79.9552 36.182L80.533 35.1512L81.1108 34.1205L81.6887 33.0898L82.2665 32.059L83.2972 32.6369L84.328 33.2147L85.364 33.7955L84.7861 34.8262L84.2083 35.857L85.239 36.4348L86.2698 37.0126L85.6919 38.0433L85.1141 39.0741L84.5363 40.1048L83.9584 41.1355L83.3777 42.1716L82.7998 43.2023Z" fill="#9FBAF1"/>
<path d="M84.1251 26.3287L85.1558 26.9065L85.7365 25.8705L86.3144 24.8398L86.8922 23.8091L87.47 22.7784L88.0479 21.7476L88.6257 20.7169L89.2035 19.6862L89.7813 18.6554L90.3592 17.6247L91.3899 18.2026L92.4206 18.7804L93.4566 19.3612L92.8788 20.3919L92.301 21.4226L93.3317 22.0005L94.3624 22.5783L93.7846 23.609L93.2068 24.6397L94.2375 25.2175L95.2683 25.7954L95.8461 24.7647L96.4239 23.7339L97.0017 22.7032L97.5795 21.6725L96.5488 21.0947L95.5181 20.5168L96.0959 19.4861L96.6737 18.4554L95.643 17.8775L94.6123 17.2997L95.1901 16.269L95.7679 15.2383L94.7319 14.6575L93.7012 14.0797L92.6705 13.5018L93.2512 12.4659L93.8291 11.4351L94.4069 10.4044L93.3762 9.82657L92.3454 9.24873L91.3147 8.6709L90.7369 9.70163L90.159 10.7324L89.5783 11.7683L89.0004 12.7991L88.4226 13.8298L87.8448 14.8605L87.267 15.8913L86.6891 16.922L86.1113 17.9527L85.5335 18.9834L84.9557 20.0141L84.3778 21.0449L83.8 22.0756L83.2222 23.1063L82.6444 24.137L82.0636 25.173L83.0943 25.7508L84.1251 26.3287Z" fill="#9FBAF1"/>
<path d="M77.9405 22.8612L78.9712 23.439L79.552 22.403L80.1298 21.3723L80.7077 20.3415L81.2855 19.3108L81.8633 18.28L82.4412 17.2493L83.019 16.2186L83.5968 15.1878L84.1747 14.1571L85.2054 14.7349L86.2362 15.3128L86.814 14.282L87.3918 13.2513L87.9697 12.2205L88.5475 11.1898L87.5168 10.6119L86.486 10.0341L87.0668 8.99813L87.6446 7.96737L88.2225 6.93662L87.1917 6.3588L86.161 5.78096L85.1302 5.20312L84.5524 6.23388L83.9746 7.26463L83.3938 8.30061L82.816 9.33136L82.2381 10.3621L81.6603 11.3928L81.0824 12.4236L80.5046 13.4543L79.9268 14.4851L79.3489 15.5158L78.7711 16.5465L78.1933 17.5773L77.6155 18.608L77.0376 19.6388L76.4598 20.6695L75.879 21.7055L76.9097 22.2833L77.9405 22.8612Z" fill="#9FBAF1"/>
<path d="M64.1118 35.435L64.6896 34.4042L65.2674 33.3734L64.2367 32.7955L63.2059 32.2177L63.7838 31.1869L64.3646 30.1508L63.3338 29.573L62.3031 28.9951L61.7223 30.0312L61.1445 31.062L60.5666 32.0928L59.9888 33.1236L61.0196 33.7014L62.0503 34.2793L61.4724 35.31L60.8946 36.3408L61.9254 36.9187L62.9561 37.4966L62.3783 38.5274L61.8004 39.5582L62.8311 40.136L63.8619 40.7139L64.4397 39.6831L65.0176 38.6523L65.5954 37.6215L66.1732 36.5907L65.1425 36.0129L64.1118 35.435Z" fill="#9FBAF1"/>
</svg>
