<svg width="98" height="133" viewBox="0 0 98 133" fill="none" xmlns="http://www.w3.org/2000/svg">
<path d="M50.1514 2.76397L51.53 6.62176L47.6722 8.00036L43.8144 9.37895L39.9566 10.7575L36.0988 12.1361L32.2411 13.5147L28.3833 14.8933L24.5254 16.2719L20.6677 17.6504L16.8099 19.029L12.9521 20.4076L9.09437 21.7861L7.71578 17.9284L3.85795 19.307L0.00012207 20.6855L1.37871 24.5433L2.75725 28.401L6.61508 27.0224L7.99366 30.8802L9.3722 34.7379L10.7508 38.5957L12.1294 42.4535L13.5149 46.3309L14.8935 50.1887L16.2721 54.0464L17.6507 57.9041L19.0292 61.7619L22.8871 60.3833L26.7448 59.0048L25.3662 55.147L23.9877 51.2893L22.6091 47.4315L21.2305 43.5737L19.8449 39.6963L18.4663 35.8385L17.0877 31.9807L20.9456 30.6021L24.8034 29.2235L28.6611 27.845L32.5189 26.4664L36.3768 25.0878L40.2345 23.7092L44.0923 22.3307L47.95 20.9521L51.8078 19.5735L53.1864 23.4313L54.565 27.2891L55.9506 31.1665L57.3292 35.0243L58.7078 38.8821L60.0863 42.7397L61.4649 46.5975L65.3227 45.2189L69.1804 43.8404L67.8018 39.9826L66.4233 36.1249L65.0447 32.2671L63.6661 28.4093L62.2806 24.5319L60.902 20.6741L59.5234 16.8164L58.1448 12.9587L56.7663 9.10088L60.6438 7.71525L59.2653 3.85757L57.8867 -0.000222227L54.0091 1.38541L50.1514 2.76397Z" fill="#EAF3B2"/>
<path d="M73.8791 81.3367L75.2576 85.1945L76.6362 89.0523L78.0148 92.91L79.3933 96.7678L80.7719 100.626L76.9141 102.004L75.5355 98.1464L71.6778 99.5249L73.0564 103.383L69.1986 104.761L67.82 100.904L63.9623 102.282L65.3408 106.14L61.483 107.518L60.1044 103.661L56.2466 105.039L57.6252 108.897L53.7675 110.276L52.3889 106.418L48.5311 107.796L49.9097 111.654L46.0518 113.033L44.6732 109.175L43.2947 105.317L41.9161 101.46L40.5375 97.6018L39.1589 93.744L37.7804 89.8863L36.3948 86.0088L32.5371 87.3873L28.6792 88.7659L30.0649 92.6434L31.4434 96.5011L32.822 100.359L34.2006 104.217L35.5791 108.074L36.9577 111.932L38.3363 115.79L39.7148 119.648L41.0934 123.505L37.2356 124.884L38.6142 128.742L39.9927 132.599L43.8505 131.221L47.7084 129.842L46.3298 125.985L50.1875 124.606L54.0454 123.227L57.9032 121.849L61.7609 120.47L65.6187 119.092L69.4766 117.713L73.3343 116.335L77.1921 114.956L81.0498 113.577L84.9076 112.199L88.7655 110.82L90.144 114.678L94.0017 113.299L97.8792 111.914L96.5007 108.056L95.1221 104.198L91.2446 105.584L89.866 101.726L88.4875 97.8684L87.1089 94.0106L85.7303 90.1528L84.3518 86.2952L82.9732 82.4374L81.5946 78.5796L80.2161 74.7219L78.8304 70.8444L74.9727 72.223L71.1149 73.6015L72.5005 77.479L73.8791 81.3367Z" fill="#EAF3B2"/>
<path d="M63.3996 76.36L67.2573 74.9814L71.1151 73.6029L69.7366 69.7452L68.358 65.8874L64.5002 67.266L60.6425 68.6445L62.021 72.5023L63.3996 76.36Z" fill="#EAF3B2"/>
<path d="M53.7491 49.3535L55.1277 53.2112L56.5063 57.069L60.364 55.6904L64.2218 54.3118L62.8432 50.454L61.4647 46.5964L57.6069 47.975L53.7491 49.3535Z" fill="#EAF3B2"/>
<path d="M54.8498 40.2582L50.9921 41.6367L52.3706 45.4944L56.2283 44.1158L54.8498 40.2582Z" fill="#EAF3B2"/>
<path d="M70.3001 95.6683L66.4423 97.0469L67.8208 100.905L71.6787 99.5261L70.3001 95.6683Z" fill="#EAF3B2"/>
<path d="M52.371 45.4964L48.5132 46.875L49.8918 50.7328L53.7496 49.3542L52.371 45.4964Z" fill="#EAF3B2"/>
<path d="M49.6137 37.7796L45.7559 39.1582L47.1344 43.016L50.9923 41.6374L49.6137 37.7796Z" fill="#EAF3B2"/>
<path d="M65.0618 93.1859L61.2041 94.5645L62.5826 98.4221L66.4404 97.0436L65.0618 93.1859Z" fill="#EAF3B2"/>
<path d="M48.7905 59.8281L50.1691 63.6858L51.5477 67.5434L52.9262 71.4011L56.784 70.0226L60.6418 68.644L59.2632 64.7863L57.8847 60.9287L56.5061 57.071L52.6482 58.4496L48.7905 59.8281Z" fill="#EAF3B2"/>
<path d="M47.1338 43.016L43.2761 44.3945L44.6547 48.2522L48.5124 46.8737L47.1338 43.016Z" fill="#EAF3B2"/>
<path d="M62.5838 98.4241L58.726 99.8027L60.1045 103.661L63.9624 102.282L62.5838 98.4241Z" fill="#EAF3B2"/>
<path d="M59.8267 90.7093L55.9689 92.0879L57.3475 95.9457L61.2053 94.5671L59.8267 90.7093Z" fill="#EAF3B2"/>
<path d="M57.0683 82.9905L53.2104 84.3691L54.589 88.2268L58.4468 86.8482L57.0683 82.9905Z" fill="#EAF3B2"/>
<path d="M54.3052 75.2581L50.4474 76.6367L51.8259 80.4944L55.6838 79.1158L54.3052 75.2581Z" fill="#EAF3B2"/>
<path d="M47.4109 55.9652L43.5531 57.3438L44.9317 61.2015L48.7895 59.8229L47.4109 55.9652Z" fill="#EAF3B2"/>
<path d="M44.6548 48.2523L40.797 49.6309L42.1756 53.4887L46.0334 52.1101L44.6548 48.2523Z" fill="#EAF3B2"/>
<path d="M41.8975 40.5374L38.0397 41.916L39.4183 45.7738L43.2761 44.3952L41.8975 40.5374Z" fill="#EAF3B2"/>
<path d="M57.347 95.9417L53.4891 97.3203L54.8677 101.178L58.7255 99.7994L57.347 95.9417Z" fill="#EAF3B2"/>
<path d="M49.0689 72.7788L47.6903 68.9211L46.3118 65.0635L44.9332 61.2058L41.0754 62.5844L37.2177 63.9629L38.5962 67.8206L39.9748 71.6782L41.3534 75.5359L45.2111 74.1574L49.0689 72.7788Z" fill="#EAF3B2"/>
<path d="M39.4186 45.7737L35.5608 47.1523L36.9393 51.01L40.7972 49.6314L39.4186 45.7737Z" fill="#EAF3B2"/>
<path d="M54.8683 101.182L51.0106 102.561L52.3892 106.418L56.2469 105.04L54.8683 101.182Z" fill="#EAF3B2"/>
<path d="M36.9395 51.0101L33.0818 52.3887L34.4604 56.2465L38.3181 54.8679L36.9395 51.0101Z" fill="#EAF3B2"/>
<path d="M34.1821 43.2933L30.3243 44.6719L31.7029 48.5297L35.5606 47.1511L34.1821 43.2933Z" fill="#EAF3B2"/>
<path d="M44.1107 83.2512L42.7322 79.3936L41.3536 75.5358L37.4958 76.9144L33.6379 78.293L35.0165 82.1508L36.3951 86.0084L40.2529 84.6298L44.1107 83.2512Z" fill="#EAF3B2"/>
<path d="M34.4603 56.2467L30.6025 57.6253L26.7446 59.0039L28.1232 62.8616L29.5018 66.7194L33.3596 65.3408L37.2174 63.9622L35.8388 60.1044L34.4603 56.2467Z" fill="#EAF3B2"/>
<path d="M31.7033 48.5296L27.8455 49.9082L29.224 53.7659L33.0818 52.3873L31.7033 48.5296Z" fill="#EAF3B2"/>
</svg>
