<svg width="1920" height="802" viewBox="0 0 1920 802" fill="none" xmlns="http://www.w3.org/2000/svg">
<path d="M1668.63 779.658C1589.19 779.658 1524.3 763.699 1473.94 731.781C1424.29 699.154 1390.6 652.695 1372.87 592.405L1556.92 497.715C1579.62 554.458 1622.88 582.83 1686.72 582.83C1737.07 582.83 1764.73 569.708 1769.7 543.464C1772.54 526.441 1763.67 513.319 1743.1 504.098C1731.75 498.424 1721.82 494.168 1713.31 491.331C1704.09 487.784 1678.21 479.628 1635.65 466.86C1503.73 421.466 1448.05 339.897 1468.62 222.155C1479.97 156.19 1512.6 102.639 1566.5 61.4999C1619.69 21.0703 1684.59 0.855469 1761.19 0.855469C1825.02 0.855469 1879.63 15.7506 1925.02 45.5409C1970.42 75.3311 2004.81 118.243 2028.22 174.277L1848.42 270.032C1829.98 221.8 1796.3 197.684 1747.36 197.684C1709.77 197.684 1688.49 210.451 1683.52 235.986C1679.98 252.3 1686.36 265.067 1702.67 274.288C1721.11 285.636 1753.03 298.758 1798.42 313.653C1857.29 333.513 1903.04 357.984 1935.66 387.065C1978.22 424.657 1993.11 482.465 1980.35 560.487C1967.58 632.125 1934.24 686.741 1880.34 724.333C1826.44 761.217 1755.87 779.658 1668.63 779.658Z" fill="#F4CE24"/>
<path d="M1228.32 359.402L1377.26 456.22C1347.47 512.964 1316.98 562.26 1285.77 604.108L1367.69 716.885L1194.28 802L1141.08 731.78C1082.21 763.698 1017.67 779.657 947.457 779.657C857.382 779.657 790.004 756.96 745.321 711.565C701.348 665.461 684.326 608.364 694.255 540.272C707.022 452.319 760.925 385.291 855.964 339.187C836.105 295.211 829.367 251.59 835.75 208.323C845.68 144.487 875.114 94.1273 924.052 57.2441C974.408 19.6517 1035.4 0.855469 1107.04 0.855469C1235.41 0.855469 1323.71 59.372 1371.94 176.405L1181.51 276.415C1161.65 224.637 1135.05 198.748 1101.72 198.748C1071.93 198.748 1054.55 213.288 1049.59 242.369C1046.75 257.974 1050.65 275.351 1061.29 294.502L1075.12 317.909C1077.25 321.455 1084.7 331.385 1097.46 347.699L1179.38 459.412C1199.95 424.657 1216.26 391.32 1228.32 359.402ZM980.437 603.044C998.877 603.044 1017.67 599.497 1036.82 592.404L948.521 475.371C924.406 492.394 910.576 512.255 907.03 534.952C903.484 554.103 908.448 570.416 921.924 583.893C935.4 596.66 954.904 603.044 980.437 603.044Z" fill="#F4CE24"/>
<path d="M304.163 323.229H682.902L668.008 411.536C650.276 520.767 603.111 609.783 526.512 678.584C450.623 745.967 355.938 779.658 242.458 779.658C126.851 779.658 36.4214 741.711 -28.8295 665.817C-92.6619 589.213 -115.003 493.814 -95.8536 379.617C-78.1223 268.968 -27.7657 178.178 55.2165 107.249C136.78 36.3201 233.238 0.855469 344.59 0.855469C415.515 0.855469 477.22 16.1052 529.704 46.6048C582.898 76.3951 625.098 118.598 656.305 173.213L461.616 278.543C432.537 232.439 386.436 209.387 323.313 209.387C272.247 209.387 227.209 226.41 188.201 260.456C149.901 292.375 125.787 335.641 115.857 390.257C106.637 441.326 115.503 486.366 142.454 525.377C169.406 562.969 208.414 581.766 259.48 581.766C335.37 581.766 389.627 555.877 422.253 504.098H272.247L304.163 323.229Z" fill="#F4CE24"/>
</svg>
