<svg width="138" height="187" viewBox="0 0 138 187" fill="none" xmlns="http://www.w3.org/2000/svg">
<path d="M67.2304 3.89596L65.2885 9.33014L70.7226 11.2721L76.1567 13.214L81.5906 15.1558L87.0247 17.0977L92.4587 19.0396L97.8928 20.9815L103.327 22.9234L108.761 24.8653L114.195 26.8072L119.629 28.7491L125.063 30.691L127.005 25.2568L132.439 27.1987L137.873 29.1406L135.931 34.5748L133.989 40.0088L128.555 38.0669L126.613 43.5011L124.672 48.9351L122.73 54.3693L120.788 59.8034L118.836 65.2652L116.894 70.6994L114.952 76.1336L113.011 81.5676L111.069 87.0018L105.635 85.0598L100.201 83.118L102.143 77.6838L104.084 72.2498L106.026 66.8156L107.968 61.3814L109.92 55.9197L111.862 50.4855L113.804 45.0513L108.369 43.1094L102.935 41.1675L97.5014 39.2256L92.0673 37.2837L86.6332 35.3418L81.1993 33.3999L75.7652 31.458L70.3312 29.5162L64.8971 27.5743L62.9553 33.0084L61.0134 38.4426L59.0617 43.9044L57.1198 49.3386L55.1779 54.7727L53.2361 60.2068L51.2943 65.6409L45.8601 63.699L40.4262 61.7572L42.3681 56.323L44.3099 50.889L46.2517 45.4548L48.1936 40.0206L50.1453 34.5588L52.0872 29.1247L54.0291 23.6905L55.9709 18.2565L57.9128 12.8223L52.4509 10.8705L54.3927 5.43645L56.3346 0.00227153L61.7964 1.9541L67.2304 3.89596Z" fill="#1D1D1D"/>
<path d="M33.8079 114.574L31.866 120.008L29.9241 125.442L27.9823 130.876L26.0404 136.31L24.0986 141.744L29.5327 143.686L31.4746 138.252L36.9085 140.194L34.9666 145.628L40.4007 147.57L42.3426 142.136L47.7766 144.077L45.8347 149.511L51.2688 151.453L53.2107 146.019L58.6448 147.961L56.7029 153.395L62.1369 155.337L64.0787 149.903L69.5128 151.845L67.571 157.279L73.0051 159.221L74.947 153.787L76.8888 148.353L78.8306 142.919L80.7725 137.485L82.7144 132.051L84.6562 126.617L86.608 121.155L92.0419 123.097L97.476 125.039L95.5243 130.5L93.5824 135.934L91.6406 141.368L89.6987 146.802L87.7569 152.236L85.815 157.67L83.8731 163.104L81.9313 168.538L79.9895 173.972L85.4236 175.914L83.4817 181.348L81.5399 186.782L76.1058 184.84L70.6717 182.899L72.6135 177.465L67.1795 175.523L61.7454 173.581L56.3113 171.639L50.8774 169.697L45.4432 167.755L40.0091 165.814L34.5752 163.872L29.1411 161.93L23.7071 159.988L18.273 158.046L12.8389 156.104L10.8971 161.538L5.46314 159.596L0.00127804 157.645L1.94309 152.211L3.88496 146.777L9.34683 148.728L11.2887 143.294L13.2305 137.86L15.1724 132.426L17.1143 126.992L19.0561 121.558L20.9979 116.124L22.9398 110.69L24.8816 105.256L26.8334 99.7945L32.2674 101.736L37.7015 103.678L35.7497 109.14L33.8079 114.574Z" fill="#1D1D1D"/>
<path d="M48.5695 107.563L43.1356 105.621L37.7015 103.68L39.6433 98.2456L41.5851 92.8115L47.0192 94.7535L52.4531 96.6953L50.5113 102.129L48.5695 107.563Z" fill="#1D1D1D"/>
<path d="M62.1631 69.5234L60.2213 74.9567L58.2794 80.3902L52.8455 78.4486L47.4114 76.5069L49.3532 71.0735L51.295 65.6402L56.7292 67.5818L62.1631 69.5234Z" fill="#1D1D1D"/>
<path d="M60.6129 56.7102L66.0469 58.6523L64.1051 64.0872L58.6711 62.145L60.6129 56.7102Z" fill="#1D1D1D"/>
<path d="M38.8491 134.761L44.2832 136.703L42.3413 142.136L36.9072 140.195L38.8491 134.761Z" fill="#1D1D1D"/>
<path d="M64.104 64.0891L69.5381 66.0312L67.5962 71.4661L62.1621 69.5239L64.104 64.0891Z" fill="#1D1D1D"/>
<path d="M67.9878 53.2224L73.4219 55.1641L71.48 60.5974L66.0459 58.6558L67.9878 53.2224Z" fill="#1D1D1D"/>
<path d="M46.2282 131.265L51.6621 133.207L49.7203 138.64L44.2864 136.699L46.2282 131.265Z" fill="#1D1D1D"/>
<path d="M69.1475 84.2734L67.2056 89.7075L65.2638 95.1414L63.3219 100.575L57.888 98.6337L52.4538 96.6918L54.3957 91.2577L56.3375 85.8238L58.2794 80.3898L63.7135 82.3316L69.1475 84.2734Z" fill="#1D1D1D"/>
<path d="M71.4811 60.5969L76.915 62.5391L74.9732 67.9739L69.5393 66.0317L71.4811 60.5969Z" fill="#1D1D1D"/>
<path d="M49.7182 138.644L55.1523 140.586L53.2105 146.019L47.7764 144.078L49.7182 138.644Z" fill="#1D1D1D"/>
<path d="M53.602 127.777L59.0361 129.719L57.0943 135.154L51.6602 133.211L53.602 127.777Z" fill="#1D1D1D"/>
<path d="M57.4878 116.902L62.9219 118.844L60.9801 124.279L55.546 122.336L57.4878 116.902Z" fill="#1D1D1D"/>
<path d="M61.3794 106.015L66.8135 107.957L64.8717 113.39L59.4376 111.449L61.3794 106.015Z" fill="#1D1D1D"/>
<path d="M71.0903 78.8396L76.5244 80.7812L74.5825 86.2146L69.1484 84.273L71.0903 78.8396Z" fill="#1D1D1D"/>
<path d="M74.9731 67.9719L80.4072 69.9141L78.4654 75.3489L73.0313 73.4067L74.9731 67.9719Z" fill="#1D1D1D"/>
<path d="M78.8569 57.1052L84.291 59.0469L82.3491 64.4802L76.915 62.5386L78.8569 57.1052Z" fill="#1D1D1D"/>
<path d="M57.0951 135.148L62.5293 137.09L60.5875 142.525L55.1533 140.582L57.0951 135.148Z" fill="#1D1D1D"/>
<path d="M68.7546 102.52L70.6965 97.0858L72.6383 91.6519L74.5802 86.2179L80.0143 88.1597L85.4482 90.1016L83.5064 95.5356L81.5646 100.97L79.6227 106.404L74.1887 104.462L68.7546 102.52Z" fill="#1D1D1D"/>
<path d="M82.3491 64.4797L87.7832 66.4219L85.8414 71.8566L80.4072 69.9145L82.3491 64.4797Z" fill="#1D1D1D"/>
<path d="M60.5866 142.527L66.0205 144.469L64.0787 149.902L58.6448 147.961L60.5866 142.527Z" fill="#1D1D1D"/>
<path d="M85.8404 71.8587L91.2744 73.8008L89.3325 79.2356L83.8986 77.2935L85.8404 71.8587Z" fill="#1D1D1D"/>
<path d="M89.7253 60.9881L95.1592 62.9297L93.2173 68.3631L87.7834 66.4215L89.7253 60.9881Z" fill="#1D1D1D"/>
<path d="M75.7394 117.273L77.6812 111.839L79.623 106.405L85.0571 108.347L90.4912 110.289L88.5494 115.723L86.6076 121.157L81.1735 119.215L75.7394 117.273Z" fill="#1D1D1D"/>
<path d="M89.333 79.2334L94.7671 81.1753L100.201 83.1172L98.2594 88.5511L96.3175 93.9852L90.8834 92.0433L85.4493 90.1014L87.3912 84.6673L89.333 79.2334Z" fill="#1D1D1D"/>
<path d="M93.2162 68.363L98.6504 70.3047L96.7086 75.738L91.2744 73.7963L93.2162 68.363Z" fill="#1D1D1D"/>
</svg>
