<svg width="64" height="68" viewBox="0 0 64 68" fill="none" xmlns="http://www.w3.org/2000/svg">
<path d="M55.8193 48.944L52.161 48.12L48.5026 47.2959L44.8443 46.4719L45.6683 42.8135L42.01 41.9895L38.3516 41.1655L39.1757 37.5071L35.5173 36.6831L36.3414 33.0247L37.1654 29.3664L40.8237 30.1904L41.6478 26.5321L45.3061 27.3561L48.9645 28.1802L49.7885 24.5218L53.4468 25.3459L57.1052 26.1699L57.9292 22.5116L61.5876 23.3356L62.4116 19.6773L63.2356 16.0189L59.5773 15.1949L55.919 14.3709L55.0949 18.0292L51.4366 17.2052L47.7782 16.3811L44.1199 15.5571L43.2959 19.2154L39.6375 18.3914L35.9792 17.5673L32.3208 16.7433L31.4968 20.4016L27.8385 19.5776L24.1801 18.7536L25.0042 15.0952L21.3458 14.2712L22.1699 10.6128L18.5115 9.7888L19.3356 6.13046L15.6772 5.30642L16.5013 1.64808L12.8429 0.824039L9.18457 0L8.36053 3.65834L7.53649 7.31668L11.1948 8.14072L10.3708 11.7991L14.0291 12.6231L13.2051 16.2814L16.8634 17.1055L16.0394 20.7638L19.6977 21.5879L18.8737 25.2462L18.0497 28.9045L14.3913 28.0805L13.5673 31.7388L12.7432 35.3972L11.9192 39.0555L8.26086 38.2315L7.43682 41.8898L6.61278 45.5482L5.78874 49.2065L2.1304 48.3825L1.30636 52.0408L0.482324 55.6992L4.14067 56.5232L7.79901 57.3472L8.62305 53.6889L9.44708 50.0306L13.1054 50.8546L13.9295 47.1962L17.5878 48.0203L18.4118 44.3619L19.2359 40.7036L22.8942 41.5276L23.7183 37.8693L27.3766 38.6933L31.0349 39.5174L30.2109 43.1757L33.8692 43.9998L33.0452 47.6581L32.2212 51.3164L35.8795 52.1405L35.0555 55.7988L34.2314 59.4572L33.4074 63.1155L32.5834 66.7738L36.2417 67.5979L37.0657 63.9395L37.8898 60.2812L41.5481 61.1052L42.3722 57.4469L43.1962 53.7886L46.8545 54.6126L50.5129 55.4366L51.3369 51.7783L54.9953 52.6023L58.6536 53.4264L59.4776 49.768L55.8193 48.944Z" fill="#9FBAF1"/>
</svg>
