<svg width="1897" height="297" viewBox="0 0 1897 297" fill="none" xmlns="http://www.w3.org/2000/svg">
<path d="M1397.85 78.138H1495.84V219.064H1397.85V78.138Z" fill="#EAF3B2"/>
<path d="M1814.14 6.31075H1897L1848.47 282.406H1769.55L1792.83 149.486L1715.49 251.247H1708.39L1663.4 144.359L1639.33 282.406H1560.42L1608.95 6.31075H1687.87L1729.3 119.51L1814.14 6.31075Z" fill="#EAF3B2"/>
<path d="M1544.57 282.406H1462.1L1458.95 246.908H1379.24L1363.46 282.406H1276.25L1412.78 6.31075H1505.11L1544.57 282.406ZM1445.14 99L1407.26 183.801H1453.03L1445.14 99Z" fill="#EAF3B2"/>
<path d="M1311.05 6.31075L1298.43 78.0956H1197.81L1192.68 108.072H1283.43L1270.81 179.068H1180.05L1174.53 209.833H1277.12L1264.49 282.406H1082.98L1131.52 6.31075H1311.05Z" fill="#EAF3B2"/>
<path d="M898.787 6.31075H1107.92L1094.5 82.8287H1029.4L994.278 282.406H915.36L950.478 82.8287H885.372L898.787 6.31075Z" fill="#EAF3B2"/>
<path d="M656.9 288.717C627.437 288.717 603.367 282.801 584.69 270.968C566.276 258.873 553.781 241.649 547.204 219.299L615.468 184.195C623.886 205.231 639.932 215.749 663.608 215.749C682.285 215.749 692.544 210.884 694.385 201.155C695.438 194.845 692.149 189.98 684.521 186.562C680.312 184.458 676.629 182.88 673.472 181.829C670.052 180.514 660.451 177.49 644.667 172.757C595.739 155.928 575.089 125.689 582.717 82.0398C586.926 57.5857 599.027 37.7331 619.019 22.4821C638.749 7.49402 662.818 0 691.229 0C714.904 0 735.159 5.52191 751.995 16.5657C768.831 27.6096 781.589 43.5179 790.27 64.2908L723.585 99.7888C716.745 81.9084 704.25 72.9681 686.099 72.9681C672.157 72.9681 664.265 77.7012 662.424 87.1673C661.108 93.2151 663.476 97.9482 669.526 101.367C676.366 105.574 688.203 110.438 705.039 115.96C726.873 123.323 743.84 132.394 755.941 143.175C771.724 157.112 777.249 178.542 772.514 207.466C767.779 234.024 755.415 254.271 735.422 268.207C715.43 281.88 689.256 288.717 656.9 288.717Z" fill="#EAF3B2"/>
<path d="M493.59 132.92L548.832 168.813C537.784 189.849 526.472 208.124 514.898 223.637L545.281 265.446L480.963 297L461.234 270.968C439.4 282.801 415.462 288.717 389.419 288.717C356.011 288.717 331.02 280.303 314.447 263.474C298.138 246.382 291.824 225.215 295.507 199.972C300.242 167.367 320.235 142.518 355.484 125.426C348.119 109.124 345.62 92.9522 347.987 76.9123C351.67 53.247 362.587 34.5777 380.738 20.9044C399.415 6.96812 422.038 0 448.607 0C496.22 0 528.971 21.6932 546.859 65.0797L476.228 102.155C468.862 82.9602 458.998 73.3625 446.634 73.3625C435.586 73.3625 429.141 78.753 427.299 89.5339C426.247 95.3187 427.694 101.761 431.64 108.861L436.769 117.538C437.558 118.853 440.321 122.534 445.056 128.582L475.439 169.996C483.068 157.112 489.118 144.753 493.59 132.92ZM401.651 223.243C408.491 223.243 415.462 221.928 422.564 219.299L389.813 175.912C380.87 182.223 375.74 189.586 374.425 198C373.109 205.1 374.951 211.147 379.949 216.143C384.947 220.877 392.181 223.243 401.651 223.243Z" fill="#EAF3B2"/>
<path d="M150.823 119.51H291.296L285.772 152.247C279.196 192.741 261.702 225.741 233.292 251.247C205.145 276.227 170.026 288.717 127.937 288.717C85.0588 288.717 51.5189 274.649 27.3176 246.514C3.64234 218.116 -4.64399 182.749 2.45858 140.414C9.03503 99.3944 27.7121 65.737 58.4899 39.4422C88.7416 13.1474 124.517 0 165.818 0C192.123 0 215.009 5.65338 234.476 16.9602C254.205 28.004 269.857 43.6494 281.432 63.8964L209.222 102.944C198.437 85.8526 181.338 77.3068 157.926 77.3068C138.986 77.3068 122.281 83.6175 107.813 96.239C93.6082 108.072 84.6642 124.112 80.9814 144.359C77.5616 163.291 80.8499 179.988 90.8461 194.45C100.842 208.386 115.31 215.355 134.251 215.355C162.398 215.355 182.522 205.757 194.622 186.562H138.986L150.823 119.51Z" fill="#EAF3B2"/>
<path d="M1435.35 86.9551L1442.73 126.73L1472.08 98.8853L1454.66 135.398L1494.78 130.119L1459.22 149.422L1494.78 168.726L1454.66 163.447L1472.08 199.959L1442.73 172.115L1435.35 211.89L1427.97 172.115L1398.62 199.959L1416.04 163.447L1375.92 168.726L1411.48 149.422L1375.92 130.119L1416.04 135.398L1398.62 98.8853L1427.97 126.73L1435.35 86.9551Z" fill="#F3B2D9"/>
</svg>
