<svg width="188" height="202" viewBox="0 0 188 202" fill="none" xmlns="http://www.w3.org/2000/svg">
<mask id="path-1-outside-1_383_15908" maskUnits="userSpaceOnUse" x="-12.0196" y="0.218794" width="212.764" height="212.764" fill="black">
<rect fill="white" x="-12.0196" y="0.218794" width="212.764" height="212.764"/>
<path d="M26.6647 143.475L37.0151 141.144L47.3655 138.812L57.7159 136.481L55.3844 126.131L65.7348 123.799L76.0852 121.468L73.7538 111.117L84.1042 108.786L81.7728 98.4356L79.4414 88.0852L69.091 90.4166L66.7596 80.0662L56.4092 82.3976L46.0587 84.7291L43.7273 74.3787L33.3769 76.7101L23.0265 79.0415L20.6951 68.6911L10.3447 71.0225L8.01329 60.6721L5.68187 50.3217L16.0323 47.9903L26.3827 45.6589L28.7141 56.0093L39.0645 53.6779L49.4149 51.3464L59.7653 49.015L62.0967 59.3654L72.4471 57.034L82.7975 54.7026L93.1479 52.3712L95.4793 62.7216L105.83 60.3901L116.18 58.0587L113.849 47.7083L124.199 45.3769L121.868 35.0265L132.218 32.6951L129.887 22.3447L140.237 20.0132L137.906 9.66284L148.256 7.33142L158.606 5L160.938 15.3504L163.269 25.7008L152.919 28.0322L155.25 38.3826L144.9 40.714L147.231 51.0644L136.881 53.3959L139.212 63.7463L128.862 66.0777L131.193 76.4281L133.525 86.7785L143.875 84.4471L146.207 94.7975L148.538 105.148L150.869 115.498L161.22 113.167L163.551 123.517L165.883 133.868L168.214 144.218L178.565 141.887L180.896 152.237L183.227 162.587L172.877 164.919L162.527 167.25L160.195 156.9L157.864 146.549L147.513 148.881L145.182 138.53L134.832 140.862L132.5 130.512L130.169 120.161L119.818 122.493L117.487 112.142L107.136 114.474L96.786 116.805L99.1175 127.155L88.7671 129.487L91.0985 139.837L93.4299 150.188L83.0795 152.519L85.4109 162.869L87.7423 173.22L90.0738 183.57L92.4052 193.921L82.0548 196.252L79.7234 185.902L77.3919 175.551L67.0415 177.883L64.7101 167.532L62.3787 157.182L52.0283 159.513L41.6779 161.845L39.3465 151.494L28.9961 153.826L18.6457 156.157L16.3143 145.807L26.6647 143.475Z"/>
</mask>
<path d="M26.6647 143.475L37.0151 141.144L47.3655 138.812L57.7159 136.481L55.3844 126.131L65.7348 123.799L76.0852 121.468L73.7538 111.117L84.1042 108.786L81.7728 98.4356L79.4414 88.0852L69.091 90.4166L66.7596 80.0662L56.4092 82.3976L46.0587 84.7291L43.7273 74.3787L33.3769 76.7101L23.0265 79.0415L20.6951 68.6911L10.3447 71.0225L8.01329 60.6721L5.68187 50.3217L16.0323 47.9903L26.3827 45.6589L28.7141 56.0093L39.0645 53.6779L49.4149 51.3464L59.7653 49.015L62.0967 59.3654L72.4471 57.034L82.7975 54.7026L93.1479 52.3712L95.4793 62.7216L105.83 60.3901L116.18 58.0587L113.849 47.7083L124.199 45.3769L121.868 35.0265L132.218 32.6951L129.887 22.3447L140.237 20.0132L137.906 9.66284L148.256 7.33142L158.606 5L160.938 15.3504L163.269 25.7008L152.919 28.0322L155.25 38.3826L144.9 40.714L147.231 51.0644L136.881 53.3959L139.212 63.7463L128.862 66.0777L131.193 76.4281L133.525 86.7785L143.875 84.4471L146.207 94.7975L148.538 105.148L150.869 115.498L161.22 113.167L163.551 123.517L165.883 133.868L168.214 144.218L178.565 141.887L180.896 152.237L183.227 162.587L172.877 164.919L162.527 167.25L160.195 156.9L157.864 146.549L147.513 148.881L145.182 138.53L134.832 140.862L132.5 130.512L130.169 120.161L119.818 122.493L117.487 112.142L107.136 114.474L96.786 116.805L99.1175 127.155L88.7671 129.487L91.0985 139.837L93.4299 150.188L83.0795 152.519L85.4109 162.869L87.7423 173.22L90.0738 183.57L92.4052 193.921L82.0548 196.252L79.7234 185.902L77.3919 175.551L67.0415 177.883L64.7101 167.532L62.3787 157.182L52.0283 159.513L41.6779 161.845L39.3465 151.494L28.9961 153.826L18.6457 156.157L16.3143 145.807L26.6647 143.475Z" fill="#1D1D1D"/>
<path d="M26.6647 143.475L37.0151 141.144L47.3655 138.812L57.7159 136.481L55.3844 126.131L65.7348 123.799L76.0852 121.468L73.7538 111.117L84.1042 108.786L81.7728 98.4356L79.4414 88.0852L69.091 90.4166L66.7596 80.0662L56.4092 82.3976L46.0587 84.7291L43.7273 74.3787L33.3769 76.7101L23.0265 79.0415L20.6951 68.6911L10.3447 71.0225L8.01329 60.6721L5.68187 50.3217L16.0323 47.9903L26.3827 45.6589L28.7141 56.0093L39.0645 53.6779L49.4149 51.3464L59.7653 49.015L62.0967 59.3654L72.4471 57.034L82.7975 54.7026L93.1479 52.3712L95.4793 62.7216L105.83 60.3901L116.18 58.0587L113.849 47.7083L124.199 45.3769L121.868 35.0265L132.218 32.6951L129.887 22.3447L140.237 20.0132L137.906 9.66284L148.256 7.33142L158.606 5L160.938 15.3504L163.269 25.7008L152.919 28.0322L155.25 38.3826L144.9 40.714L147.231 51.0644L136.881 53.3959L139.212 63.7463L128.862 66.0777L131.193 76.4281L133.525 86.7785L143.875 84.4471L146.207 94.7975L148.538 105.148L150.869 115.498L161.22 113.167L163.551 123.517L165.883 133.868L168.214 144.218L178.565 141.887L180.896 152.237L183.227 162.587L172.877 164.919L162.527 167.25L160.195 156.9L157.864 146.549L147.513 148.881L145.182 138.53L134.832 140.862L132.5 130.512L130.169 120.161L119.818 122.493L117.487 112.142L107.136 114.474L96.786 116.805L99.1175 127.155L88.7671 129.487L91.0985 139.837L93.4299 150.188L83.0795 152.519L85.4109 162.869L87.7423 173.22L90.0738 183.57L92.4052 193.921L82.0548 196.252L79.7234 185.902L77.3919 175.551L67.0415 177.883L64.7101 167.532L62.3787 157.182L52.0283 159.513L41.6779 161.845L39.3465 151.494L28.9961 153.826L18.6457 156.157L16.3143 145.807L26.6647 143.475Z" stroke="#F3B2D9" stroke-width="8" mask="url(#path-1-outside-1_383_15908)"/>
</svg>
