<svg width="136" height="101" viewBox="0 0 136 101" fill="none" xmlns="http://www.w3.org/2000/svg">
<path d="M135.756 15.0091H133.614V55.737H135.756V15.0091Z" fill="#FDFDF5"/>
<path d="M101.454 55.7375V57.8795H105.745V62.1709H112.171V57.8795H122.889V62.1709H129.322V57.8795H133.613V55.7375H101.454ZM110.029 60.0289H107.887V57.8795H110.029V60.0289ZM127.18 60.0289H125.038V57.8795H127.18V60.0289Z" fill="#FDFDF5"/>
<path d="M127.18 21.4346H125.038V51.445H127.18V21.4346Z" fill="#FDFDF5"/>
<path d="M118.604 21.4346H116.462V51.445H118.604V21.4346Z" fill="#FDFDF5"/>
<path d="M127.18 0H107.887V2.1494H127.18V0Z" fill="#FDFDF5"/>
<path d="M110.029 21.4346H107.887V51.445H110.029V21.4346Z" fill="#FDFDF5"/>
<path d="M133.613 15.009V12.867H129.322V2.14951H127.18V6.43354H107.887V2.14951H105.745V12.867H101.454V15.009H133.613ZM107.887 8.57556H127.18V12.867H107.887V8.57556Z" fill="#FDFDF5"/>
<path d="M101.454 15.0091H99.312V55.737H101.454V15.0091Z" fill="#FDFDF5"/>
<path d="M15.0093 63.8642L15.0093 66.0062L55.7372 66.0062L55.7372 63.8642L15.0093 63.8642Z" fill="#FDFDF5"/>
<path d="M55.7378 98.166L57.8798 98.166L57.8798 93.8746L62.1712 93.8746L62.1712 87.4485L57.8798 87.4485L57.8798 76.7311L62.1712 76.7311L62.1712 70.2976L57.8798 70.2976L57.8798 66.0062L55.7378 66.0062L55.7378 98.166ZM60.0292 89.5906L60.0292 91.7326L57.8798 91.7326L57.8798 89.5906L60.0292 89.5906ZM60.0292 72.4396L60.0292 74.5817L57.8798 74.5817L57.8798 72.4396L60.0292 72.4396Z" fill="#FDFDF5"/>
<path d="M21.4351 72.4395L21.4351 74.5815L51.4455 74.5815L51.4455 72.4395L21.4351 72.4395Z" fill="#FDFDF5"/>
<path d="M21.4351 81.0152L21.4351 83.1573L51.4455 83.1573L51.4455 81.0152L21.4351 81.0152Z" fill="#FDFDF5"/>
<path d="M-8.43321e-07 72.4397L0 91.7326L2.1494 91.7326L2.1494 72.4397L-8.43321e-07 72.4397Z" fill="#FDFDF5"/>
<path d="M21.4351 89.5906L21.4351 91.7326L51.4455 91.7326L51.4455 89.5906L21.4351 89.5906Z" fill="#FDFDF5"/>
<path d="M15.0094 66.0062L12.8674 66.0062L12.8674 70.2976L2.1499 70.2976L2.1499 72.4396L6.43394 72.4396L6.43394 91.7326L2.1499 91.7326L2.1499 93.8746L12.8674 93.8746L12.8674 98.166L15.0094 98.166L15.0094 66.0062ZM8.57596 91.7326L8.57596 72.4396L12.8674 72.4396L12.8674 91.7326L8.57596 91.7326Z" fill="#FDFDF5"/>
<path d="M15.0093 98.166L15.0093 100.308L55.7372 100.308L55.7372 98.166L15.0093 98.166Z" fill="#FDFDF5"/>
</svg>
