<svg width="81" height="140" viewBox="0 0 81 140" fill="none" xmlns="http://www.w3.org/2000/svg">
<path d="M27.7902 73.89L29.5477 73.0056L29.7149 74.142L31.4725 73.2576L31.3053 72.1212L31.138 70.9847L29.3805 71.8691L29.2133 70.7326L29.0461 69.5961L28.8789 68.4596L27.1213 69.344L25.3638 70.2284L25.531 71.3649L25.6982 72.5014L25.8654 73.6379L27.623 72.7535L27.7902 73.89Z" fill="#9FBAF1"/>
<path d="M76.4853 57.8956L76.3281 56.8808L76.1709 55.866L74.5227 56.6566L74.3655 55.6418L72.7172 56.4324L72.56 55.4176L70.9118 56.2083L70.7546 55.1935L69.1064 55.9841L67.4581 56.7747L67.3009 55.7599L65.6527 56.5505L64.0045 57.3412L62.3563 58.1318L60.708 58.9224L60.8652 59.9372L61.0225 60.952L62.6707 60.1614L64.3189 59.3708L65.9671 58.5802L66.1243 59.595L67.7726 58.8043L69.4208 58.0137L69.578 59.0285L71.2262 58.2379L71.3834 59.2527L73.0316 58.4621L73.1888 59.4769L73.346 60.4917L74.9943 59.701L75.1515 60.7158L75.3087 61.7306L75.4659 62.7454L75.6231 63.7602L75.7803 64.775L74.1321 65.5657L74.2893 66.5805L74.4465 67.5953L72.7982 68.3859L72.9555 69.4007L71.3072 70.1913L71.4644 71.2061L69.8162 71.9968L68.168 72.7874L68.3252 73.8022L66.677 74.5928L65.0287 75.3834L63.3805 76.1741L61.7323 76.9647L61.5751 75.9499L59.9269 76.7405L58.2786 77.5311L56.6304 78.3218L56.4732 77.307L54.825 78.0976L54.6678 77.0828L53.0196 77.8734L52.8624 76.8586L52.7051 75.8438L52.5479 74.829L50.8997 75.6196L50.7425 74.6048L50.5853 73.59L50.4281 72.5752L50.2709 71.5604L51.9191 70.7698L51.7619 69.755L51.6047 68.7402L53.2529 67.9496L53.0957 66.9348L54.744 66.1441L54.5868 65.1293L54.4296 64.1145L52.7813 64.9052L51.1331 65.6958L51.2903 66.7106L49.6421 67.5012L49.7993 68.516L49.9565 69.5308L48.3083 70.3214L48.4655 71.3362L48.6227 72.351L46.9745 73.1417L47.1317 74.1565L47.2889 75.1713L47.4461 76.1861L47.6033 77.2009L47.7605 78.2157L49.4087 77.4251L49.5659 78.4399L49.7231 79.4547L51.3713 78.664L51.5285 79.6788L51.6857 80.6936L53.334 79.903L53.4912 80.9178L55.1394 80.1272L56.7876 79.3366L56.9448 80.3514L58.593 79.5607L60.2413 78.7701L60.3985 79.7849L62.0467 78.9943L63.6949 78.2037L65.3431 77.413L66.9914 76.6224L68.6396 75.8318L68.4824 74.817L70.1306 74.0264L71.7788 73.2357L73.4271 72.4451L73.2699 71.4303L74.9181 70.6397L74.7609 69.6249L76.4091 68.8343L76.2519 67.8195L77.9001 67.0288L77.7429 66.014L77.5857 64.9992L79.2339 64.2086L79.0767 63.1938L78.9195 62.179L78.7623 61.1642L78.6051 60.1494L78.4479 59.1346L78.2907 58.1198L78.1335 57.105L76.4853 57.8956Z" fill="#9FBAF1"/>
<path d="M51.8305 55.3078L51.6777 54.3966L53.2679 53.6798L53.1151 52.7685L54.7053 52.0517L54.8581 52.963L56.4483 52.2462L56.6011 53.1574L56.7538 54.0687L56.9066 54.9799L58.4968 54.2631L58.6496 55.1743L58.8024 56.0856L60.3926 55.3688L60.5453 56.28L60.6981 57.1912L60.8509 58.1025L62.4411 57.3857L62.5939 58.2969L64.1841 57.5801L65.7743 56.8633L65.6215 55.9521L64.0313 56.6689L63.8785 55.7577L63.7257 54.8464L63.5729 53.9352L61.9827 54.652L61.83 53.7408L61.6772 52.8295L61.5244 51.9183L59.9342 52.6351L59.7814 51.7238L59.6286 50.8126L59.4758 49.9014L57.8857 50.6182L57.7329 49.7069L57.5801 48.7957L55.9899 49.5125L55.8371 48.6013L55.6843 47.69L55.5316 46.7788L53.9414 47.4956L53.7886 46.5844L53.6358 45.6731L53.483 44.7619L55.0732 44.0451L56.6634 43.3283L56.5106 42.4171L56.3578 41.5059L56.205 40.5946L54.6148 41.3114L53.0247 42.0282L53.1774 42.9394L51.5873 43.6562L51.74 44.5675L50.1499 45.2842L48.5597 46.001L48.7125 46.9123L48.8652 47.8235L50.4554 47.1067L50.6082 48.0179L50.761 48.9292L49.1708 49.646L47.5806 50.3627L45.9905 51.0795L44.4003 51.7963L42.8101 52.5131L41.2199 53.2299L41.3727 54.1411L39.7825 54.8579L38.1923 55.5747L36.6021 56.2915L35.0119 57.0083L33.4218 57.7251L31.8316 58.4419L31.9844 59.3531L30.3942 60.0699L28.804 60.7867L27.2138 61.5034L27.061 60.5922L26.9082 59.681L25.3181 60.3978L25.1653 59.4865L26.7555 58.7698L28.3456 58.053L29.9358 57.3362L29.783 56.4249L29.6303 55.5137L28.0401 56.2305L26.4499 56.9473L24.8597 57.6641L23.2695 58.3809L21.6793 59.0977L20.0892 59.8144L18.499 60.5312L16.9088 61.248L15.3186 61.9648L15.4714 62.876L15.6242 63.7873L17.2144 63.0705L18.8045 62.3537L20.3947 61.6369L20.5475 62.5481L22.1377 61.8314L22.2905 62.7426L23.8807 62.0258L24.0334 62.937L24.1862 63.8483L24.339 64.7595L22.7488 65.4763L22.9016 66.3875L21.3114 67.1043L21.4642 68.0155L19.874 68.7323L20.0268 69.6435L18.4366 70.3603L18.5894 71.2716L18.7422 72.1828L17.152 72.8996L17.3048 73.8108L15.7146 74.5276L15.8674 75.4388L14.2772 76.1556L14.43 77.0669L12.8398 77.7836L12.9926 78.6949L11.4024 79.4117L11.5552 80.3229L11.708 81.2341L11.8608 82.1454L13.451 81.4286L15.0412 80.7118L16.6313 79.995L18.2215 79.2782L19.8117 78.5614L21.4019 77.8446L22.9921 77.1278L24.5823 76.4111L24.735 77.3223L26.3252 76.6055L27.9154 75.8887L29.5056 75.1719L31.0958 74.4551L32.686 73.7383L34.2762 73.0216L35.8663 72.3048L37.4565 71.588L39.0467 70.8712L38.8939 69.96L40.4841 69.2432L40.3313 68.3319L41.9215 67.6152L41.7687 66.7039L43.3589 65.9871L43.2061 65.0759L44.7963 64.3591L44.6435 63.4479L44.4907 62.5367L46.0809 61.8199L45.9281 60.9086L47.5183 60.1918L47.3655 59.2806L48.9557 58.5638L48.8029 57.6526L50.3931 56.9358L50.2403 56.0246L51.8305 55.3078ZM22.6865 75.3054L21.0963 76.0222L19.5061 76.739L17.916 77.4557L16.3258 78.1725L16.173 77.2613L17.7632 76.5445L17.6104 75.6333L19.2006 74.9165L19.0478 74.0053L20.638 73.2885L20.4852 72.3772L20.3324 71.466L21.9226 70.7492L21.7698 69.838L23.36 69.1212L23.2072 68.21L24.7974 67.4932L24.6446 66.582L26.2348 65.8652L26.082 64.9539L27.6722 64.2371L27.825 65.1484L27.9777 66.0596L28.1305 66.9708L29.7207 66.2541L29.8735 67.1653L30.0263 68.0765L30.1791 68.9877L31.7693 68.271L31.922 69.1822L32.0748 70.0934L33.665 69.3766L33.8178 70.2879L33.9706 71.1991L32.3804 71.9159L30.7902 72.6327L29.2 73.3495L27.6098 74.0662L26.0197 74.783L24.4295 75.4998L24.2767 74.5886L22.6865 75.3054ZM41.3104 63.9702L41.4631 64.8815L39.873 65.5982L40.0257 66.5095L38.4356 67.2263L38.5883 68.1375L36.9982 68.8543L36.8454 67.9431L35.2552 68.6598L35.1024 67.7486L34.9496 66.8374L34.7968 65.9261L33.2067 66.6429L33.0539 65.7317L32.9011 64.8205L32.7483 63.9092L31.1581 64.626L31.0053 63.7148L30.8525 62.8036L29.2624 63.5204L29.1096 62.6091L30.6998 61.8923L32.2899 61.1755L32.1372 60.2643L33.7273 59.5475L35.3175 58.8307L36.9077 58.114L38.4979 57.3972L40.0881 56.6804L41.6783 55.9636L43.2684 55.2468L43.1157 54.3356L44.7058 53.6188L46.296 52.902L47.8862 52.1852L49.4764 51.4684L51.0666 50.7516L50.9138 49.8404L52.504 49.1236L52.6568 50.0348L52.8095 50.9461L51.2194 51.6629L51.3721 52.5741L49.782 53.2909L49.9347 54.2021L48.3446 54.9189L48.4973 55.8301L46.9072 56.5469L47.06 57.4582L45.4698 58.1749L45.6226 59.0862L44.0324 59.803L44.1852 60.7142L42.595 61.431L42.7478 62.3422L42.9005 63.2534L41.3104 63.9702Z" fill="#9FBAF1"/>
<path d="M22.1789 66.087L20.5211 66.8878L18.8633 67.6885L17.2054 68.4893L15.5476 69.29L13.8897 70.0908L12.2319 70.8916L10.574 71.6923L10.732 72.7209L9.0742 73.5217L7.41635 74.3225L7.57437 75.3511L5.91652 76.1518L6.07454 77.1804L4.4167 77.9812L4.57472 79.0098L2.91687 79.8106L3.07489 80.8392L3.23291 81.8678L1.57506 82.6686L1.73308 83.6972L1.8911 84.7258L2.04911 85.7544L2.20713 86.783L2.36515 87.8116L2.52317 88.8402L4.18101 88.0394L4.33903 89.0681L4.49705 90.0967L4.65507 91.1253L6.31291 90.3245L6.47093 91.3531L8.12877 90.5524L8.28679 91.581L9.94464 90.7802L11.6025 89.9794L11.7605 91.008L13.4183 90.2073L15.0762 89.4065L15.2342 90.4351L16.8921 89.6344L18.5499 88.8336L20.2077 88.0328L21.8656 87.2321L23.5234 86.4313L23.3654 85.4027L25.0233 84.6019L26.6811 83.8012L26.5231 82.7726L28.1809 81.9718L29.8388 81.171L29.6808 80.1424L31.3386 79.3417L31.1806 78.313L31.0226 77.2844L32.6804 76.4837L32.5224 75.4551L30.8646 76.2558L29.2067 77.0566L29.3647 78.0852L27.7069 78.886L27.8649 79.9146L26.2071 80.7153L26.3651 81.7439L24.7072 82.5447L23.0494 83.3455L21.3915 84.1462L21.5496 85.1748L19.8917 85.9756L18.2339 86.7764L16.576 87.5771L14.9182 88.3779L14.7602 87.3493L13.1023 88.1501L11.4445 88.9508L11.2864 87.9222L9.6286 88.723L9.47058 87.6944L7.81274 88.4951L7.65472 87.4665L7.4967 86.4379L5.83886 87.2387L5.68084 86.2101L5.52282 85.1815L5.3648 84.1529L5.20679 83.1243L5.04877 82.0956L6.70661 81.2949L6.5486 80.2663L6.39058 79.2377L8.04842 78.4369L7.89041 77.4083L9.54825 76.6075L9.39023 75.5789L11.0481 74.7782L12.7059 73.9774L12.5479 72.9488L14.2058 72.148L15.8636 71.3473L17.5214 70.5465L19.1793 69.7457L20.8371 68.945L22.495 68.1442L22.337 67.1156L22.1789 66.087Z" fill="#9FBAF1"/>
</svg>
